<svg width="186" height="97" viewBox="0 0 186 97" fill="none" xmlns="http://www.w3.org/2000/svg">
<g opacity="0.4">
<mask id="path-1-inside-1" fill="white">
<path fill-rule="evenodd" clip-rule="evenodd" d="M180 48.5966C180 25.6235 152.911 7 119.496 7C103.286 7 88.5643 11.3827 77.7021 18.5186L5.92169e-05 48.596L77.6975 78.6717C88.5601 85.8093 103.283 90.1933 119.496 90.1933C152.911 90.1933 180 71.5698 180 48.5966Z"/>
</mask>
<path fill-rule="evenodd" clip-rule="evenodd" d="M180 48.5966C180 25.6235 152.911 7 119.496 7C103.286 7 88.5643 11.3827 77.7021 18.5186L5.92169e-05 48.596L77.6975 78.6717C88.5601 85.8093 103.283 90.1933 119.496 90.1933C152.911 90.1933 180 71.5698 180 48.5966Z" fill="#5382DE" fill-opacity="0.14"/>
<path d="M119.496 7L119.496 8L119.496 7ZM180 48.5966L181 48.5966L180 48.5966ZM77.7021 18.5186L78.0631 19.4511L78.1623 19.4127L78.2511 19.3543L77.7021 18.5186ZM5.92169e-05 48.596L-0.360933 47.6634L-2.77013 48.596L-0.360933 49.5286L5.92169e-05 48.596ZM77.6975 78.6717L78.2466 77.836L78.1577 77.7775L78.0585 77.7391L77.6975 78.6717ZM119.496 6C118.565 6 117.639 6.01429 116.718 6.04258L116.779 8.04164C117.68 8.01398 118.585 8 119.496 8L119.496 6ZM111.173 6.38594C109.307 6.56037 107.468 6.79262 105.659 7.08004L105.973 9.05526C107.739 8.77461 109.536 8.54771 111.359 8.37725L111.173 6.38594ZM100.201 8.13396C98.3689 8.55191 96.5751 9.02783 94.8236 9.55865L95.4036 11.4727C97.11 10.9555 98.8587 10.4916 100.646 10.0838L100.201 8.13396ZM89.5586 11.3675C87.7988 12.0467 86.0917 12.7843 84.4429 13.5766L85.309 15.3793C86.909 14.6105 88.5673 13.8939 90.2788 13.2333L89.5586 11.3675ZM79.5223 16.2049C78.7143 16.6833 77.9243 17.1761 77.153 17.6828L78.2511 19.3543C78.996 18.865 79.7596 18.3887 80.5413 17.9258L79.5223 16.2049ZM77.3411 17.586L74.566 18.6602L75.288 20.5253L78.0631 19.4511L77.3411 17.586ZM69.0159 20.8086L63.4657 22.957L64.1877 24.8221L69.7379 22.6737L69.0159 20.8086ZM57.9156 25.1054L52.3654 27.2537L53.0874 29.1189L58.6376 26.9705L57.9156 25.1054ZM46.8153 29.4021L41.2652 31.5505L41.9871 33.4157L47.5373 31.2673L46.8153 29.4021ZM35.715 33.6989L30.1649 35.8473L30.8868 37.7124L36.437 35.5641L35.715 33.6989ZM24.6147 37.9957L19.0646 40.1441L19.7866 42.0092L25.3367 39.8608L24.6147 37.9957ZM13.5144 42.2925L7.96429 44.4409L8.68626 46.306L14.2364 44.1576L13.5144 42.2925ZM2.41415 46.5892L-0.360933 47.6634L0.361036 49.5286L3.13612 48.4544L2.41415 46.5892ZM-0.360933 49.5286L2.41398 50.6027L3.13595 48.7376L0.361036 47.6634L-0.360933 49.5286ZM7.96379 52.751L13.5136 54.8992L14.2356 53.0341L8.68577 50.8858L7.96379 52.751ZM19.0634 57.0475L24.6132 59.1958L25.3352 57.3306L19.7854 55.1824L19.0634 57.0475ZM30.1631 61.344L35.7129 63.4923L36.4349 61.6271L30.885 59.4789L30.1631 61.344ZM41.2627 65.6405L46.8125 67.7888L47.5345 65.9237L41.9847 63.7754L41.2627 65.6405ZM52.3623 69.9371L57.9122 72.0853L58.6341 70.2202L53.0843 68.0719L52.3623 69.9371ZM63.462 74.2336L69.0118 76.3819L69.7338 74.5167L64.1839 72.3684L63.462 74.2336ZM74.5616 78.5301L77.3365 79.6043L78.0585 77.7391L75.2836 76.665L74.5616 78.5301ZM77.1484 79.5074C77.9197 80.0142 78.7098 80.5072 79.5178 80.9857L80.5369 79.2649C79.7552 78.8019 78.9915 78.3254 78.2466 77.836L77.1484 79.5074ZM84.4388 83.6147C86.0878 84.4072 87.7951 85.145 89.5551 85.8244L90.2754 83.9586C88.5637 83.2978 86.9052 82.581 85.3051 81.8121L84.4388 83.6147ZM94.8206 87.6337C96.5723 88.1647 98.3663 88.6407 100.198 89.0588L100.643 87.1089C98.8562 86.7011 97.1072 86.237 95.4007 85.7197L94.8206 87.6337ZM105.657 90.1129C107.466 90.4004 109.306 90.6327 111.172 90.8072L111.358 88.8159C109.535 88.6454 107.738 88.4185 105.971 88.1377L105.657 90.1129ZM116.718 91.1507C117.639 91.179 118.565 91.1933 119.496 91.1933L119.496 89.1933C118.585 89.1933 117.68 89.1793 116.779 89.1516L116.718 91.1507ZM119.496 91.1933C120.475 91.1933 121.449 91.1774 122.418 91.1461L122.353 89.1472C121.406 89.1778 120.454 89.1933 119.496 89.1933L119.496 91.1933ZM128.249 90.766C130.212 90.5727 132.145 90.3154 134.044 89.9971L133.713 88.0246C131.859 88.3354 129.971 88.5868 128.053 88.7756L128.249 90.766ZM139.773 88.8288C141.696 88.3649 143.575 87.8368 145.406 87.2481L144.794 85.3441C143.011 85.9174 141.179 86.4322 139.304 86.8846L139.773 88.8288ZM150.905 85.2392C152.741 84.4834 154.517 83.6631 156.224 82.7824L155.308 81.0048C153.652 81.8586 151.929 82.6551 150.143 83.3896L150.905 85.2392ZM161.314 79.8509C162.996 78.7714 164.592 77.6267 166.093 76.422L164.841 74.8623C163.397 76.021 161.859 77.1248 160.234 78.1678L161.314 79.8509ZM170.462 72.4711C171.867 71.0335 173.151 69.5313 174.301 67.9712L172.691 66.7844C171.599 68.2661 170.376 69.698 169.032 71.0729L170.462 72.4711ZM177.437 62.9385C178.354 61.156 179.107 59.3163 179.68 57.4282L177.766 56.8473C177.23 58.615 176.524 60.343 175.659 62.023L177.437 62.9385ZM180.852 51.5818C180.95 50.5955 181 49.6 181 48.5966L179 48.5966C179 49.5335 178.953 50.4628 178.862 51.3835L180.852 51.5818ZM181 48.5966C181 47.5933 180.95 46.5978 180.852 45.6114L178.862 45.8098C178.953 46.7305 179 47.6598 179 48.5966L181 48.5966ZM179.68 39.7651C179.107 37.877 178.354 36.0372 177.437 34.2548L175.659 35.1703C176.524 36.8503 177.23 38.5783 177.766 40.346L179.68 39.7651ZM174.301 29.222C173.151 27.662 171.867 26.1597 170.462 24.7222L169.032 26.1203C170.376 27.4952 171.599 28.9272 172.691 30.4089L174.301 29.222ZM166.093 20.7712C164.592 19.5666 162.996 18.4218 161.314 17.3423L160.234 19.0255C161.859 20.0685 163.397 21.1722 164.841 22.3309L166.093 20.7712ZM156.224 14.4109C154.517 13.5302 152.741 12.7098 150.905 11.9541L150.143 13.8036C151.929 14.5382 153.652 15.3347 155.308 16.1884L156.224 14.4109ZM145.406 9.94518C143.575 9.35647 141.696 8.82836 139.773 8.36447L139.304 10.3087C141.179 10.7611 143.011 11.2758 144.794 11.8492L145.406 9.94518ZM134.044 7.19614C132.145 6.87786 130.212 6.62052 128.249 6.42724L128.053 8.41761C129.971 8.60648 131.859 8.85787 133.713 9.16862L134.044 7.19614ZM122.418 6.04712C121.449 6.01582 120.475 6 119.496 6L119.496 8C120.454 8 121.406 8.01547 122.353 8.04608L122.418 6.04712ZM119.496 7L119.496 9L119.496 7ZM180 48.5966L182 48.5966L180 48.5966ZM77.7021 18.5186L78.4241 20.3837L78.6224 20.3069L78.8002 20.1901L77.7021 18.5186ZM5.92169e-05 48.596L-0.72191 46.7309L-5.54032 48.596L-0.72191 50.4612L5.92169e-05 48.596ZM77.6975 78.6717L78.7958 77.0002L78.6179 76.8834L78.4195 76.8065L77.6975 78.6717ZM119.496 5C118.555 5 117.618 5.01445 116.687 5.04305L116.81 9.04117C117.7 9.01382 118.596 9 119.496 9L119.496 5ZM111.08 5.39028C109.193 5.5667 107.332 5.80163 105.502 6.09243L106.13 10.0429C107.875 9.7656 109.65 9.54138 111.452 9.37291L111.08 5.39028ZM99.9781 7.15902C98.124 7.58209 96.3076 8.06397 94.5335 8.60163L95.6937 12.4297C97.3774 11.9194 99.1037 11.4614 100.868 11.0588L99.9781 7.15902ZM89.1985 10.4346C87.4146 11.1232 85.6831 11.8712 84.0098 12.6752L85.7421 16.2806C87.3176 15.5236 88.9516 14.8175 90.6389 14.1662L89.1985 10.4346ZM79.0128 15.3444C78.1917 15.8306 77.3884 16.3316 76.604 16.847L78.8002 20.1901C79.5318 19.7095 80.2823 19.2414 81.0508 18.7863L79.0128 15.3444ZM76.9801 16.6534L74.205 17.7276L75.649 21.4579L78.4241 20.3837L76.9801 16.6534ZM68.6549 19.876L63.1048 22.0244L64.5487 25.7547L70.0988 23.6063L68.6549 19.876ZM57.5546 24.1728L52.0045 26.3212L53.4484 30.0515L58.9985 27.9031L57.5546 24.1728ZM46.4543 28.4696L40.9042 30.6179L42.3481 34.3482L47.8983 32.1998L46.4543 28.4696ZM35.354 32.7663L29.8039 34.9147L31.2478 38.645L36.798 36.4966L35.354 32.7663ZM24.2537 37.0631L18.7036 39.2115L20.1475 42.9418L25.6977 40.7934L24.2537 37.0631ZM13.1535 41.3599L7.6033 43.5083L9.04725 47.2386L14.5974 45.0902L13.1535 41.3599ZM2.05316 45.6567L-0.72191 46.7309L0.722029 50.4612L3.4971 49.387L2.05316 45.6567ZM-0.72191 50.4612L2.05299 51.5353L3.49693 47.805L0.722029 46.7309L-0.72191 50.4612ZM7.60281 53.6835L13.1526 55.8318L14.5966 52.1015L9.04675 49.9533L7.60281 53.6835ZM18.7025 57.9801L24.2523 60.1283L25.6962 56.398L20.1464 54.2498L18.7025 57.9801ZM29.8021 62.2766L35.3519 64.4249L36.7958 60.6946L31.246 58.5463L29.8021 62.2766ZM40.9017 66.5731L46.4515 68.7214L47.8955 64.9911L42.3457 62.8428L40.9017 66.5731ZM52.0013 70.8696L57.5512 73.0179L58.9951 69.2876L53.4453 67.1394L52.0013 70.8696ZM63.101 75.1662L68.6508 77.3144L70.0947 73.5841L64.5449 71.4359L63.101 75.1662ZM74.2006 79.4627L76.9755 80.5368L78.4195 76.8065L75.6446 75.7324L74.2006 79.4627ZM76.5992 80.3431C77.3838 80.8586 78.1871 81.3598 79.0083 81.8461L81.0465 78.4044C80.2779 77.9492 79.5274 77.481 78.7958 77.0002L76.5992 80.3431ZM84.0056 84.516C85.6791 85.3203 87.4107 86.0685 89.1949 86.7573L90.6355 83.0257C88.948 82.3743 87.3139 81.668 85.7382 80.9108L84.0056 84.516ZM94.5305 88.5907C96.3048 89.1285 98.1214 89.6105 99.9757 90.0337L100.866 86.1339C99.1012 85.7313 97.3747 85.2731 95.6908 84.7627L94.5305 88.5907ZM105.5 91.1005C107.331 91.3914 109.191 91.6264 111.078 91.8029L111.451 87.8203C109.649 87.6517 107.873 87.4275 106.128 87.1501L105.5 91.1005ZM116.687 92.1502C117.618 92.1788 118.555 92.1933 119.496 92.1933L119.496 88.1933C118.595 88.1933 117.7 88.1794 116.81 88.1521L116.687 92.1502ZM119.496 92.1933C120.486 92.1933 121.471 92.1773 122.45 92.1456L122.321 88.1477C121.385 88.178 120.443 88.1933 119.496 88.1933L119.496 92.1933ZM128.347 91.7612C130.332 91.5657 132.288 91.3054 134.209 90.9834L133.548 87.0384C131.716 87.3454 129.851 87.5938 127.955 87.7805L128.347 91.7612ZM140.008 89.8009C141.954 89.3313 143.857 88.7965 145.712 88.2001L144.487 84.3921C142.728 84.9577 140.921 85.4658 139.069 85.9125L140.008 89.8009ZM151.285 86.1639C153.147 85.3976 154.949 84.5653 156.683 83.6712L154.849 80.1161C153.22 80.9564 151.522 81.7409 149.763 82.4649L151.285 86.1639ZM161.854 80.6925C163.565 79.5947 165.189 78.4295 166.719 77.2019L164.215 74.0825C162.8 75.2182 161.291 76.3014 159.694 77.3262L161.854 80.6925ZM171.177 73.1702C172.613 71.7013 173.927 70.1639 175.106 68.5647L171.887 66.1909C170.823 67.6334 169.63 69.0303 168.317 70.3739L171.177 73.1702ZM178.326 63.3963C179.27 61.5625 180.046 59.6669 180.637 57.7187L176.81 56.5568C176.291 58.2644 175.608 59.9365 174.77 61.5652L178.326 63.3963ZM181.847 51.681C181.948 50.6618 182 49.6332 182 48.5966L178 48.5966C178 49.5003 177.955 50.3964 177.867 51.2843L181.847 51.681ZM182 48.5966C182 47.56 181.948 46.5315 181.847 45.5123L177.867 45.909C177.955 46.7968 178 47.693 178 48.5966L182 48.5966ZM180.637 39.4746C180.046 37.5263 179.27 35.6307 178.326 33.797L174.77 35.6281C175.608 37.2568 176.291 38.9289 176.81 40.6365L180.637 39.4746ZM175.106 28.6286C173.927 27.0294 172.613 25.492 171.177 24.0231L168.317 26.8194C169.63 28.163 170.823 29.5598 171.887 31.0023L175.106 28.6286ZM166.719 19.9914C165.189 18.7638 163.565 17.5985 161.854 16.5008L159.694 19.8671C161.291 20.8918 162.8 21.9751 164.215 23.1108L166.719 19.9914ZM156.683 13.5221C154.949 12.628 153.147 11.7957 151.285 11.0293L149.763 14.7284C151.522 15.4524 153.22 16.2369 154.849 17.0772L156.683 13.5221ZM145.712 8.99319C143.857 8.39678 141.954 7.86199 140.008 7.39236L139.069 11.2808C140.921 11.7275 142.728 12.2355 144.487 12.8012L145.712 8.99319ZM134.209 6.2099C132.288 5.88786 130.332 5.62754 128.347 5.43205L127.955 9.4128C129.851 9.59946 131.716 9.84787 133.548 10.1549L134.209 6.2099ZM122.45 5.04764C121.471 5.016 120.486 5 119.496 5L119.496 9C120.443 9 121.385 9.0153 122.321 9.04556L122.45 5.04764Z" fill="#5382DE" mask="url(#path-1-inside-1)"/>
</g>
<g filter="url(#filter0_f)">
<path fill-rule="evenodd" clip-rule="evenodd" d="M164.947 48.027C164.947 33.1004 147.347 21 125.635 21C115.098 21 105.53 23.85 98.4713 28.49L47.9995 48.027L98.4714 67.564C105.53 72.2039 115.098 75.0539 125.635 75.0539C147.347 75.0539 164.947 62.9535 164.947 48.027Z" fill="#5382DE"/>
</g>
<g filter="url(#filter1_i)">
<path fill-rule="evenodd" clip-rule="evenodd" d="M164.998 48.0303C164.998 33.7345 148.141 22.1455 127.347 22.1455C119.905 22.1455 112.967 23.63 107.126 26.1917L107.126 26.1285L51.1209 47.9544L105.841 69.2795C111.938 72.2016 119.352 73.9151 127.347 73.9151C148.141 73.9151 164.998 62.3261 164.998 48.0303Z" fill="#5382DE" fill-opacity="0.7"/>
</g>
<defs>
<filter id="filter0_f" x="27" y="0" width="158.948" height="96.0539" filterUnits="userSpaceOnUse" color-interpolation-filters="sRGB">
<feFlood flood-opacity="0" result="BackgroundImageFix"/>
<feBlend mode="normal" in="SourceGraphic" in2="BackgroundImageFix" result="shape"/>
<feGaussianBlur stdDeviation="10.5" result="effect1_foregroundBlur"/>
</filter>
<filter id="filter1_i" x="51.1211" y="22.1455" width="113.877" height="55.7696" filterUnits="userSpaceOnUse" color-interpolation-filters="sRGB">
<feFlood flood-opacity="0" result="BackgroundImageFix"/>
<feBlend mode="normal" in="SourceGraphic" in2="BackgroundImageFix" result="shape"/>
<feColorMatrix in="SourceAlpha" type="matrix" values="0 0 0 0 0 0 0 0 0 0 0 0 0 0 0 0 0 0 127 0" result="hardAlpha"/>
<feOffset dy="4"/>
<feGaussianBlur stdDeviation="10.5"/>
<feComposite in2="hardAlpha" operator="arithmetic" k2="-1" k3="1"/>
<feColorMatrix type="matrix" values="0 0 0 0 0 0 0 0 0 0 0 0 0 0 0 0 0 0 0.25 0"/>
<feBlend mode="normal" in2="shape" result="effect1_innerShadow"/>
</filter>
</defs>
</svg>
