<svg width="187" height="84" viewBox="0 0 187 84" fill="none" xmlns="http://www.w3.org/2000/svg">
<g opacity="0.4">
<mask id="path-1-inside-1_956_5617" fill="white">
<path fill-rule="evenodd" clip-rule="evenodd" d="M180 41.5966C180 18.6235 152.911 1.15587e-06 119.496 -2.64472e-06C103.286 -4.77044e-06 88.5642 4.38269 77.702 11.5186L-1.81822e-06 41.596L77.6974 71.6717C88.5601 78.8093 103.283 83.1933 119.496 83.1933C152.911 83.1933 180 64.5698 180 41.5966Z"/>
</mask>
<path fill-rule="evenodd" clip-rule="evenodd" d="M180 41.5966C180 18.6235 152.911 1.15587e-06 119.496 -2.64472e-06C103.286 -4.77044e-06 88.5642 4.38269 77.702 11.5186L-1.81822e-06 41.596L77.6974 71.6717C88.5601 78.8093 103.283 83.1933 119.496 83.1933C152.911 83.1933 180 64.5698 180 41.5966Z" fill="#5382DE" fill-opacity="0.14"/>
<path d="M119.496 -2.64472e-06L119.496 0.999997L119.496 -2.64472e-06ZM180 41.5966L181 41.5966L180 41.5966ZM77.702 11.5186L78.063 12.4511L78.1622 12.4127L78.2511 12.3543L77.702 11.5186ZM-1.81822e-06 41.596L-0.360994 40.6634L-2.77019 41.596L-0.360994 42.5286L-1.81822e-06 41.596ZM77.6974 71.6717L78.2466 70.836L78.1577 70.7775L78.0584 70.7391L77.6974 71.6717ZM119.496 -1C118.565 -1 117.639 -0.985708 116.718 -0.957418L116.779 1.04164C117.68 1.01398 118.585 0.999997 119.496 0.999997L119.496 -1ZM111.173 -0.614064C109.307 -0.439632 107.468 -0.207376 105.659 0.0800427L105.973 2.05526C107.739 1.77461 109.536 1.54771 111.359 1.37725L111.173 -0.614064ZM100.201 1.13396C98.3689 1.55191 96.575 2.02783 94.8235 2.55865L95.4036 4.47268C97.1099 3.95555 98.8587 3.49155 100.645 3.08384L100.201 1.13396ZM89.5586 4.36747C87.7988 5.04674 86.0917 5.78431 84.4428 6.57657L85.309 8.37927C86.9089 7.61051 88.5673 6.89392 90.2788 6.23331L89.5586 4.36747ZM79.5222 9.20488C78.7143 9.68329 77.9242 10.1761 77.153 10.6828L78.2511 12.3543C78.9959 11.865 79.7596 11.3887 80.5412 10.9258L79.5222 9.20488ZM77.341 10.586L74.566 11.6602L75.2879 13.5253L78.063 12.4511L77.341 10.586ZM69.0158 13.8086L63.4657 15.957L64.1876 17.8221L69.7378 15.6737L69.0158 13.8086ZM57.9155 18.1054L52.3654 20.2537L53.0874 22.1189L58.6375 19.9705L57.9155 18.1054ZM46.8152 22.4021L41.2651 24.5505L41.9871 26.4157L47.5372 24.2673L46.8152 22.4021ZM35.7149 26.6989L30.1648 28.8473L30.8868 30.7124L36.4369 28.5641L35.7149 26.6989ZM24.6147 30.9957L19.0645 33.1441L19.7865 35.0092L25.3366 32.8608L24.6147 30.9957ZM13.5144 35.2925L7.96423 37.4409L8.6862 39.306L14.2364 37.1576L13.5144 35.2925ZM2.41409 39.5892L-0.360994 40.6634L0.360975 42.5286L3.13606 41.4544L2.41409 39.5892ZM-0.360994 42.5286L2.41392 43.6027L3.13589 41.7376L0.360975 40.6634L-0.360994 42.5286ZM7.96373 45.751L13.5135 47.8992L14.2355 46.0341L8.68571 43.8858L7.96373 45.751ZM19.0634 50.0475L24.6132 52.1958L25.3352 50.3306L19.7853 48.1824L19.0634 50.0475ZM30.163 54.344L35.7128 56.4923L36.4348 54.6271L30.885 52.4789L30.163 54.344ZM41.2626 58.6405L46.8125 60.7888L47.5344 58.9237L41.9846 56.7754L41.2626 58.6405ZM52.3623 62.9371L57.9121 65.0853L58.6341 63.2202L53.0842 61.0719L52.3623 62.9371ZM63.4619 67.2336L69.0117 69.3819L69.7337 67.5167L64.1839 65.3684L63.4619 67.2336ZM74.5615 71.5301L77.3365 72.6043L78.0584 70.7391L75.2835 69.665L74.5615 71.5301ZM77.1483 72.5074C77.9196 73.0142 78.7097 73.5072 79.5178 73.9857L80.5369 72.2649C79.7551 71.8019 78.9915 71.3254 78.2466 70.836L77.1483 72.5074ZM84.4387 76.6147C86.0877 77.4072 87.795 78.145 89.555 78.8244L90.2753 76.9586C88.5636 76.2978 86.9051 75.581 85.305 74.8121L84.4387 76.6147ZM94.8205 80.6337C96.5722 81.1647 98.3663 81.6407 100.198 82.0588L100.643 80.1089C98.8562 79.7011 97.1072 79.237 95.4007 78.7197L94.8205 80.6337ZM105.657 83.1129C107.466 83.4004 109.306 83.6327 111.172 83.8072L111.358 81.8159C109.534 81.6454 107.738 81.4185 105.971 81.1377L105.657 83.1129ZM116.718 84.1507C117.639 84.179 118.565 84.1933 119.496 84.1933L119.496 82.1933C118.585 82.1933 117.679 82.1793 116.779 82.1516L116.718 84.1507ZM119.496 84.1933C120.475 84.1933 121.449 84.1774 122.418 84.1461L122.353 82.1472C121.406 82.1778 120.454 82.1933 119.496 82.1933L119.496 84.1933ZM128.249 83.766C130.212 83.5727 132.145 83.3154 134.044 82.9971L133.713 81.0246C131.859 81.3354 129.971 81.5868 128.053 81.7756L128.249 83.766ZM139.773 81.8288C141.696 81.3649 143.575 80.8368 145.406 80.2481L144.794 78.3441C143.011 78.9174 141.179 79.4322 139.304 79.8846L139.773 81.8288ZM150.904 78.2392C152.741 77.4834 154.517 76.6631 156.224 75.7824L155.308 74.0048C153.652 74.8586 151.929 75.6551 150.143 76.3896L150.904 78.2392ZM161.314 72.8509C162.996 71.7714 164.592 70.6267 166.093 69.422L164.841 67.8623C163.397 69.021 161.859 70.1248 160.234 71.1678L161.314 72.8509ZM170.462 65.4711C171.867 64.0335 173.151 62.5313 174.301 60.9712L172.691 59.7844C171.599 61.2661 170.376 62.698 169.032 64.0729L170.462 65.4711ZM177.437 55.9385C178.354 54.156 179.107 52.3163 179.68 50.4282L177.766 49.8473C177.23 51.615 176.524 53.343 175.659 55.023L177.437 55.9385ZM180.852 44.5818C180.95 43.5955 181 42.6 181 41.5966L179 41.5966C179 42.5335 178.953 43.4628 178.862 44.3835L180.852 44.5818ZM181 41.5966C181 40.5933 180.95 39.5978 180.852 38.6114L178.862 38.8098C178.953 39.7305 179 40.6598 179 41.5966L181 41.5966ZM179.68 32.7651C179.107 30.877 178.354 29.0372 177.437 27.2548L175.659 28.1703C176.524 29.8503 177.23 31.5783 177.766 33.346L179.68 32.7651ZM174.301 22.222C173.151 20.662 171.867 19.1597 170.462 17.7222L169.032 19.1203C170.376 20.4952 171.599 21.9272 172.691 23.4089L174.301 22.222ZM166.093 13.7712C164.592 12.5666 162.996 11.4218 161.314 10.3423L160.234 12.0255C161.859 13.0685 163.397 14.1722 164.841 15.3309L166.093 13.7712ZM156.224 7.41087C154.517 6.53021 152.741 5.70985 150.904 4.9541L150.143 6.80364C151.929 7.53821 153.652 8.33466 155.308 9.18843L156.224 7.41087ZM145.406 2.94518C143.575 2.35647 141.696 1.82836 139.773 1.36447L139.304 3.30867C141.179 3.7611 143.011 4.27584 144.794 4.84917L145.406 2.94518ZM134.044 0.196137C132.145 -0.122138 130.212 -0.379477 128.249 -0.57276L128.053 1.41761C129.971 1.60648 131.859 1.85787 133.713 2.16862L134.044 0.196137ZM122.418 -0.952878C121.449 -0.984179 120.475 -1 119.496 -1L119.496 0.999997C120.454 0.999998 121.406 1.01547 122.353 1.04608L122.418 -0.952878ZM119.496 -2.64472e-06L119.496 2L119.496 -2.64472e-06ZM180 41.5966L182 41.5966L180 41.5966ZM77.702 11.5186L78.424 13.3837L78.6224 13.3069L78.8001 13.1901L77.702 11.5186ZM-1.81822e-06 41.596L-0.721971 39.7309L-5.54038 41.596L-0.721972 43.4612L-1.81822e-06 41.596ZM77.6974 71.6717L78.7957 70.0002L78.6179 69.8834L78.4194 69.8065L77.6974 71.6717ZM119.496 -2C118.555 -2 117.618 -1.98555 116.687 -1.95695L116.81 2.04117C117.7 2.01382 118.596 2 119.496 2L119.496 -2ZM111.079 -1.60972C109.193 -1.4333 107.332 -1.19837 105.502 -0.907567L106.13 3.04287C107.875 2.7656 109.65 2.54138 111.452 2.37291L111.079 -1.60972ZM99.9781 0.159019C98.124 0.58209 96.3075 1.06397 94.5335 1.60163L95.6936 5.42969C97.3774 4.91941 99.1036 4.46137 100.868 4.05878L99.9781 0.159019ZM89.1985 3.43456C87.4145 4.12315 85.683 4.87121 84.0097 5.67522L85.7421 9.28062C87.3176 8.52361 88.9515 7.81751 90.6389 7.16622L89.1985 3.43456ZM79.0128 8.3444C78.1916 8.8306 77.3884 9.33163 76.6039 9.847L78.8001 13.1901C79.5318 12.7095 80.2822 12.2414 81.0507 11.7863L79.0128 8.3444ZM76.98 9.65342L74.205 10.7276L75.6489 14.4579L78.424 13.3837L76.98 9.65342ZM68.6548 12.876L63.1047 15.0244L64.5486 18.7547L70.0988 16.6063L68.6548 12.876ZM57.5545 17.1728L52.0044 19.3212L53.4483 23.0515L58.9985 20.9031L57.5545 17.1728ZM46.4543 21.4696L40.9041 23.6179L42.3481 27.3482L47.8982 25.1998L46.4543 21.4696ZM35.354 25.7663L29.8038 27.9147L31.2478 31.645L36.7979 29.4966L35.354 25.7663ZM24.2537 30.0631L18.7035 32.2115L20.1475 35.9418L25.6976 33.7934L24.2537 30.0631ZM13.1534 34.3599L7.60324 36.5083L9.04719 40.2386L14.5973 38.0902L13.1534 34.3599ZM2.0531 38.6567L-0.721971 39.7309L0.721968 43.4612L3.49704 42.387L2.0531 38.6567ZM-0.721972 43.4612L2.05293 44.5353L3.49687 40.805L0.721968 39.7309L-0.721972 43.4612ZM7.60275 46.6835L13.1526 48.8318L14.5965 45.1015L9.04669 42.9533L7.60275 46.6835ZM18.7024 50.9801L24.2522 53.1283L25.6961 49.398L20.1463 47.2498L18.7024 50.9801ZM29.802 55.2766L35.3518 57.4249L36.7958 53.6946L31.246 51.5463L29.802 55.2766ZM40.9017 59.5731L46.4515 61.7214L47.8954 57.9911L42.3456 55.8428L40.9017 59.5731ZM52.0013 63.8696L57.5511 66.0179L58.995 62.2876L53.4452 60.1394L52.0013 63.8696ZM63.1009 68.1662L68.6507 70.3144L70.0947 66.5841L64.5449 64.4359L63.1009 68.1662ZM74.2006 72.4627L76.9755 73.5368L78.4194 69.8065L75.6445 68.7324L74.2006 72.4627ZM76.5992 73.3431C77.3837 73.8586 78.187 74.3598 79.0082 74.8461L81.0465 71.4044C80.2779 70.9492 79.5274 70.481 78.7957 70.0002L76.5992 73.3431ZM84.0056 77.516C85.679 78.3203 87.4107 79.0685 89.1949 79.7573L90.6354 76.0257C88.9479 75.3743 87.3138 74.668 85.7382 73.9108L84.0056 77.516ZM94.5304 81.5907C96.3047 82.1285 98.1213 82.6105 99.9757 83.0337L100.866 79.1339C99.1011 78.7313 97.3747 78.2731 95.6907 77.7627L94.5304 81.5907ZM105.5 84.1005C107.331 84.3914 109.191 84.6264 111.078 84.8029L111.451 80.8203C109.649 80.6517 107.873 80.4275 106.128 80.1501L105.5 84.1005ZM116.687 85.1502C117.618 85.1788 118.554 85.1933 119.496 85.1933L119.496 81.1933C118.595 81.1933 117.7 81.1794 116.81 81.1521L116.687 85.1502ZM119.496 85.1933C120.486 85.1933 121.471 85.1773 122.45 85.1456L122.321 81.1477C121.385 81.178 120.443 81.1933 119.496 81.1933L119.496 85.1933ZM128.347 84.7612C130.332 84.5657 132.288 84.3054 134.209 83.9834L133.548 80.0384C131.716 80.3454 129.851 80.5938 127.955 80.7805L128.347 84.7612ZM140.008 82.8009C141.954 82.3313 143.857 81.7965 145.712 81.2001L144.487 77.3921C142.728 77.9577 140.921 78.4658 139.069 78.9125L140.008 82.8009ZM151.285 79.1639C153.147 78.3976 154.949 77.5653 156.683 76.6712L154.849 73.1161C153.22 73.9564 151.522 74.7409 149.763 75.4649L151.285 79.1639ZM161.854 73.6925C163.565 72.5947 165.189 71.4295 166.719 70.2019L164.215 67.0825C162.8 68.2182 161.29 69.3014 159.694 70.3262L161.854 73.6925ZM171.177 66.1702C172.613 64.7013 173.927 63.1639 175.106 61.5647L171.886 59.1909C170.823 60.6334 169.63 62.0303 168.317 63.3739L171.177 66.1702ZM178.326 56.3963C179.27 54.5625 180.046 52.6669 180.637 50.7187L176.809 49.5568C176.291 51.2644 175.608 52.9365 174.769 54.5652L178.326 56.3963ZM181.847 44.681C181.948 43.6618 182 42.6332 182 41.5966L178 41.5966C178 42.5003 177.955 43.3964 177.866 44.2843L181.847 44.681ZM182 41.5966C182 40.56 181.948 39.5315 181.847 38.5123L177.866 38.909C177.955 39.7968 178 40.693 178 41.5966L182 41.5966ZM180.637 32.4746C180.046 30.5263 179.27 28.6307 178.326 26.797L174.769 28.6281C175.608 30.2568 176.291 31.9289 176.809 33.6365L180.637 32.4746ZM175.106 21.6286C173.927 20.0294 172.613 18.492 171.177 17.0231L168.317 19.8194C169.63 21.163 170.823 22.5598 171.886 24.0023L175.106 21.6286ZM166.719 12.9914C165.189 11.7638 163.565 10.5985 161.854 9.50075L159.694 12.8671C161.29 13.8918 162.8 14.9751 164.215 16.1108L166.719 12.9914ZM156.683 6.52209C154.949 5.62798 153.147 4.79567 151.285 4.02933L149.763 7.72841C151.522 8.45239 153.22 9.23689 154.849 10.0772L156.683 6.52209ZM145.712 1.99319C143.857 1.39678 141.954 0.861987 140.008 0.392365L139.069 4.28078C140.921 4.72747 142.728 5.23553 144.487 5.80116L145.712 1.99319ZM134.209 -0.790103C132.288 -1.11214 130.332 -1.37246 128.347 -1.56795L127.955 2.4128C129.851 2.59946 131.716 2.84787 133.548 3.15486L134.209 -0.790103ZM122.45 -1.95236C121.471 -1.984 120.486 -2 119.496 -2L119.496 2C120.443 2 121.385 2.0153 122.321 2.04556L122.45 -1.95236Z" fill="#5382DE" mask="url(#path-1-inside-1_956_5617)"/>
</g>
<g filter="url(#filter0_f_956_5617)">
<path fill-rule="evenodd" clip-rule="evenodd" d="M165.996 43.005C165.996 33.6162 145.124 26.005 119.378 26.005C106.948 26.005 95.6547 27.779 87.2973 30.6706L26.9999 42.5001L82.4381 53.3764C90.9623 57.4079 104.339 60.005 119.378 60.005C145.124 60.005 165.996 52.3939 165.996 43.005Z" fill="#5382DE"/>
</g>
<g filter="url(#filter1_i_956_5617)">
<path d="M165.992 39.9999C165.992 30.611 145.121 22.9999 119.374 22.9999C107.772 22.9999 96.5007 25.4999 89.0007 26.9999L25.0007 39.8305L89.0007 52.4999C97.1593 55.0574 107.772 56.9999 119.374 56.9999C145.121 56.9999 165.992 49.3887 165.992 39.9999Z" fill="#5382DE" fill-opacity="0.7"/>
</g>
<defs>
<filter id="filter0_f_956_5617" x="5.99988" y="5.005" width="180.996" height="76" filterUnits="userSpaceOnUse" color-interpolation-filters="sRGB">
<feFlood flood-opacity="0" result="BackgroundImageFix"/>
<feBlend mode="normal" in="SourceGraphic" in2="BackgroundImageFix" result="shape"/>
<feGaussianBlur stdDeviation="10.5" result="effect1_foregroundBlur_956_5617"/>
</filter>
<filter id="filter1_i_956_5617" x="25.0007" y="22.9999" width="140.992" height="38" filterUnits="userSpaceOnUse" color-interpolation-filters="sRGB">
<feFlood flood-opacity="0" result="BackgroundImageFix"/>
<feBlend mode="normal" in="SourceGraphic" in2="BackgroundImageFix" result="shape"/>
<feColorMatrix in="SourceAlpha" type="matrix" values="0 0 0 0 0 0 0 0 0 0 0 0 0 0 0 0 0 0 127 0" result="hardAlpha"/>
<feOffset dy="4"/>
<feGaussianBlur stdDeviation="10.5"/>
<feComposite in2="hardAlpha" operator="arithmetic" k2="-1" k3="1"/>
<feColorMatrix type="matrix" values="0 0 0 0 0 0 0 0 0 0 0 0 0 0 0 0 0 0 0.25 0"/>
<feBlend mode="normal" in2="shape" result="effect1_innerShadow_956_5617"/>
</filter>
</defs>
</svg>
