<svg width="180" height="86" viewBox="0 0 180 86" fill="none" xmlns="http://www.w3.org/2000/svg">
<g opacity="0.4">
<mask id="path-1-inside-1" fill="white">
<path fill-rule="evenodd" clip-rule="evenodd" d="M180 43.5966C180 20.6235 152.911 2 119.496 2C103.286 2 88.5643 6.38269 77.7021 13.5186L5.92169e-05 43.596L77.6975 73.6717C88.5601 80.8093 103.283 85.1933 119.496 85.1933C152.911 85.1933 180 66.5698 180 43.5966Z"/>
</mask>
<path fill-rule="evenodd" clip-rule="evenodd" d="M180 43.5966C180 20.6235 152.911 2 119.496 2C103.286 2 88.5643 6.38269 77.7021 13.5186L5.92169e-05 43.596L77.6975 73.6717C88.5601 80.8093 103.283 85.1933 119.496 85.1933C152.911 85.1933 180 66.5698 180 43.5966Z" fill="#5382DE" fill-opacity="0.14"/>
<path d="M119.496 2L119.496 3L119.496 2ZM180 43.5966L181 43.5966L180 43.5966ZM77.7021 13.5186L78.0631 14.4511L78.1623 14.4127L78.2511 14.3543L77.7021 13.5186ZM5.92169e-05 43.596L-0.360933 42.6634L-2.77013 43.596L-0.360933 44.5286L5.92169e-05 43.596ZM77.6975 73.6717L78.2466 72.836L78.1577 72.7775L78.0585 72.7391L77.6975 73.6717ZM119.496 0.999997C118.565 0.999997 117.639 1.01429 116.718 1.04258L116.779 3.04164C117.68 3.01398 118.585 3 119.496 3L119.496 0.999997ZM111.173 1.38594C109.307 1.56037 107.468 1.79262 105.659 2.08004L105.973 4.05526C107.739 3.77461 109.536 3.54771 111.359 3.37725L111.173 1.38594ZM100.201 3.13396C98.3689 3.55191 96.5751 4.02783 94.8236 4.55865L95.4036 6.47268C97.11 5.95555 98.8587 5.49155 100.646 5.08384L100.201 3.13396ZM89.5586 6.36747C87.7988 7.04674 86.0917 7.78431 84.4429 8.57657L85.309 10.3793C86.909 9.61051 88.5673 8.89392 90.2788 8.23331L89.5586 6.36747ZM79.5223 11.2049C78.7143 11.6833 77.9243 12.1761 77.153 12.6828L78.2511 14.3543C78.996 13.865 79.7596 13.3887 80.5413 12.9258L79.5223 11.2049ZM77.3411 12.586L74.566 13.6602L75.288 15.5253L78.0631 14.4511L77.3411 12.586ZM69.0159 15.8086L63.4657 17.957L64.1877 19.8221L69.7379 17.6737L69.0159 15.8086ZM57.9156 20.1054L52.3654 22.2537L53.0874 24.1189L58.6376 21.9705L57.9156 20.1054ZM46.8153 24.4021L41.2652 26.5505L41.9871 28.4157L47.5373 26.2673L46.8153 24.4021ZM35.715 28.6989L30.1649 30.8473L30.8868 32.7124L36.437 30.5641L35.715 28.6989ZM24.6147 32.9957L19.0646 35.1441L19.7866 37.0092L25.3367 34.8608L24.6147 32.9957ZM13.5144 37.2925L7.96429 39.4409L8.68626 41.306L14.2364 39.1576L13.5144 37.2925ZM2.41415 41.5892L-0.360933 42.6634L0.361036 44.5286L3.13612 43.4544L2.41415 41.5892ZM-0.360933 44.5286L2.41398 45.6027L3.13595 43.7376L0.361036 42.6634L-0.360933 44.5286ZM7.96379 47.751L13.5136 49.8992L14.2356 48.0341L8.68577 45.8858L7.96379 47.751ZM19.0634 52.0475L24.6132 54.1958L25.3352 52.3306L19.7854 50.1824L19.0634 52.0475ZM30.1631 56.344L35.7129 58.4923L36.4349 56.6271L30.885 54.4789L30.1631 56.344ZM41.2627 60.6405L46.8125 62.7888L47.5345 60.9237L41.9847 58.7754L41.2627 60.6405ZM52.3623 64.9371L57.9122 67.0853L58.6341 65.2202L53.0843 63.0719L52.3623 64.9371ZM63.462 69.2336L69.0118 71.3819L69.7338 69.5167L64.1839 67.3684L63.462 69.2336ZM74.5616 73.5301L77.3365 74.6043L78.0585 72.7391L75.2836 71.665L74.5616 73.5301ZM77.1484 74.5074C77.9197 75.0142 78.7098 75.5072 79.5178 75.9857L80.5369 74.2649C79.7552 73.8019 78.9915 73.3254 78.2466 72.836L77.1484 74.5074ZM84.4388 78.6147C86.0878 79.4072 87.7951 80.145 89.5551 80.8244L90.2754 78.9586C88.5637 78.2978 86.9052 77.581 85.3051 76.8121L84.4388 78.6147ZM94.8206 82.6337C96.5723 83.1647 98.3663 83.6407 100.198 84.0588L100.643 82.1089C98.8562 81.7011 97.1072 81.237 95.4007 80.7197L94.8206 82.6337ZM105.657 85.1129C107.466 85.4004 109.306 85.6327 111.172 85.8072L111.358 83.8159C109.535 83.6454 107.738 83.4185 105.971 83.1377L105.657 85.1129ZM116.718 86.1507C117.639 86.179 118.565 86.1933 119.496 86.1933L119.496 84.1933C118.585 84.1933 117.68 84.1793 116.779 84.1516L116.718 86.1507ZM119.496 86.1933C120.475 86.1933 121.449 86.1774 122.418 86.1461L122.353 84.1472C121.406 84.1778 120.454 84.1933 119.496 84.1933L119.496 86.1933ZM128.249 85.766C130.212 85.5727 132.145 85.3154 134.044 84.9971L133.713 83.0246C131.859 83.3354 129.971 83.5868 128.053 83.7756L128.249 85.766ZM139.773 83.8288C141.696 83.3649 143.575 82.8368 145.406 82.2481L144.794 80.3441C143.011 80.9174 141.179 81.4322 139.304 81.8846L139.773 83.8288ZM150.905 80.2392C152.741 79.4834 154.517 78.6631 156.224 77.7824L155.308 76.0048C153.652 76.8586 151.929 77.6551 150.143 78.3896L150.905 80.2392ZM161.314 74.8509C162.996 73.7714 164.592 72.6267 166.093 71.422L164.841 69.8623C163.397 71.021 161.859 72.1248 160.234 73.1678L161.314 74.8509ZM170.462 67.4711C171.867 66.0335 173.151 64.5313 174.301 62.9712L172.691 61.7844C171.599 63.2661 170.376 64.698 169.032 66.0729L170.462 67.4711ZM177.437 57.9385C178.354 56.156 179.107 54.3163 179.68 52.4282L177.766 51.8473C177.23 53.615 176.524 55.343 175.659 57.023L177.437 57.9385ZM180.852 46.5818C180.95 45.5955 181 44.6 181 43.5966L179 43.5966C179 44.5335 178.953 45.4628 178.862 46.3835L180.852 46.5818ZM181 43.5966C181 42.5933 180.95 41.5978 180.852 40.6114L178.862 40.8098C178.953 41.7305 179 42.6598 179 43.5966L181 43.5966ZM179.68 34.7651C179.107 32.877 178.354 31.0372 177.437 29.2548L175.659 30.1703C176.524 31.8503 177.23 33.5783 177.766 35.346L179.68 34.7651ZM174.301 24.222C173.151 22.662 171.867 21.1597 170.462 19.7222L169.032 21.1203C170.376 22.4952 171.599 23.9272 172.691 25.4089L174.301 24.222ZM166.093 15.7712C164.592 14.5666 162.996 13.4218 161.314 12.3423L160.234 14.0255C161.859 15.0685 163.397 16.1722 164.841 17.3309L166.093 15.7712ZM156.224 9.41087C154.517 8.53021 152.741 7.70985 150.905 6.9541L150.143 8.80364C151.929 9.53821 153.652 10.3347 155.308 11.1884L156.224 9.41087ZM145.406 4.94518C143.575 4.35647 141.696 3.82836 139.773 3.36447L139.304 5.30867C141.179 5.7611 143.011 6.27584 144.794 6.84917L145.406 4.94518ZM134.044 2.19614C132.145 1.87786 130.212 1.62052 128.249 1.42724L128.053 3.41761C129.971 3.60648 131.859 3.85787 133.713 4.16862L134.044 2.19614ZM122.418 1.04712C121.449 1.01582 120.475 0.999997 119.496 0.999997L119.496 3C120.454 3 121.406 3.01547 122.353 3.04608L122.418 1.04712ZM119.496 2L119.496 4L119.496 2ZM180 43.5966L182 43.5966L180 43.5966ZM77.7021 13.5186L78.4241 15.3837L78.6224 15.3069L78.8002 15.1901L77.7021 13.5186ZM5.92169e-05 43.596L-0.72191 41.7309L-5.54032 43.596L-0.72191 45.4612L5.92169e-05 43.596ZM77.6975 73.6717L78.7958 72.0002L78.6179 71.8834L78.4195 71.8065L77.6975 73.6717ZM119.496 -2.64472e-06C118.555 -2.68586e-06 117.618 0.0144488 116.687 0.0430535L116.81 4.04117C117.7 4.01382 118.596 4 119.496 4L119.496 -2.64472e-06ZM111.08 0.390279C109.193 0.566698 107.332 0.801632 105.502 1.09243L106.13 5.04287C107.875 4.7656 109.65 4.54138 111.452 4.37291L111.08 0.390279ZM99.9781 2.15902C98.124 2.58209 96.3076 3.06397 94.5335 3.60163L95.6937 7.42969C97.3774 6.91941 99.1037 6.46137 100.868 6.05878L99.9781 2.15902ZM89.1985 5.43456C87.4146 6.12315 85.6831 6.87121 84.0098 7.67522L85.7421 11.2806C87.3176 10.5236 88.9516 9.81751 90.6389 9.16622L89.1985 5.43456ZM79.0128 10.3444C78.1917 10.8306 77.3884 11.3316 76.604 11.847L78.8002 15.1901C79.5318 14.7095 80.2823 14.2414 81.0508 13.7863L79.0128 10.3444ZM76.9801 11.6534L74.205 12.7276L75.649 16.4579L78.4241 15.3837L76.9801 11.6534ZM68.6549 14.876L63.1048 17.0244L64.5487 20.7547L70.0988 18.6063L68.6549 14.876ZM57.5546 19.1728L52.0045 21.3212L53.4484 25.0515L58.9985 22.9031L57.5546 19.1728ZM46.4543 23.4696L40.9042 25.6179L42.3481 29.3482L47.8983 27.1998L46.4543 23.4696ZM35.354 27.7663L29.8039 29.9147L31.2478 33.645L36.798 31.4966L35.354 27.7663ZM24.2537 32.0631L18.7036 34.2115L20.1475 37.9418L25.6977 35.7934L24.2537 32.0631ZM13.1535 36.3599L7.6033 38.5083L9.04725 42.2386L14.5974 40.0902L13.1535 36.3599ZM2.05316 40.6567L-0.72191 41.7309L0.722029 45.4612L3.4971 44.387L2.05316 40.6567ZM-0.72191 45.4612L2.05299 46.5353L3.49693 42.805L0.722029 41.7309L-0.72191 45.4612ZM7.60281 48.6835L13.1526 50.8318L14.5966 47.1015L9.04675 44.9533L7.60281 48.6835ZM18.7025 52.9801L24.2523 55.1283L25.6962 51.398L20.1464 49.2498L18.7025 52.9801ZM29.8021 57.2766L35.3519 59.4249L36.7958 55.6946L31.246 53.5463L29.8021 57.2766ZM40.9017 61.5731L46.4515 63.7214L47.8955 59.9911L42.3457 57.8428L40.9017 61.5731ZM52.0013 65.8696L57.5512 68.0179L58.9951 64.2876L53.4453 62.1394L52.0013 65.8696ZM63.101 70.1662L68.6508 72.3144L70.0947 68.5841L64.5449 66.4359L63.101 70.1662ZM74.2006 74.4627L76.9755 75.5368L78.4195 71.8065L75.6446 70.7324L74.2006 74.4627ZM76.5992 75.3431C77.3838 75.8586 78.1871 76.3598 79.0083 76.8461L81.0465 73.4044C80.2779 72.9492 79.5274 72.481 78.7958 72.0002L76.5992 75.3431ZM84.0056 79.516C85.6791 80.3203 87.4107 81.0685 89.1949 81.7573L90.6355 78.0257C88.948 77.3743 87.3139 76.668 85.7382 75.9108L84.0056 79.516ZM94.5305 83.5907C96.3048 84.1285 98.1214 84.6105 99.9757 85.0337L100.866 81.1339C99.1012 80.7313 97.3747 80.2731 95.6908 79.7627L94.5305 83.5907ZM105.5 86.1005C107.331 86.3914 109.191 86.6264 111.078 86.8029L111.451 82.8203C109.649 82.6517 107.873 82.4275 106.128 82.1501L105.5 86.1005ZM116.687 87.1502C117.618 87.1788 118.555 87.1933 119.496 87.1933L119.496 83.1933C118.595 83.1933 117.7 83.1794 116.81 83.1521L116.687 87.1502ZM119.496 87.1933C120.486 87.1933 121.471 87.1773 122.45 87.1456L122.321 83.1477C121.385 83.178 120.443 83.1933 119.496 83.1933L119.496 87.1933ZM128.347 86.7612C130.332 86.5657 132.288 86.3054 134.209 85.9834L133.548 82.0384C131.716 82.3454 129.851 82.5938 127.955 82.7805L128.347 86.7612ZM140.008 84.8009C141.954 84.3313 143.857 83.7965 145.712 83.2001L144.487 79.3921C142.728 79.9577 140.921 80.4658 139.069 80.9125L140.008 84.8009ZM151.285 81.1639C153.147 80.3976 154.949 79.5653 156.683 78.6712L154.849 75.1161C153.22 75.9564 151.522 76.7409 149.763 77.4649L151.285 81.1639ZM161.854 75.6925C163.565 74.5947 165.189 73.4295 166.719 72.2019L164.215 69.0825C162.8 70.2182 161.291 71.3014 159.694 72.3262L161.854 75.6925ZM171.177 68.1702C172.613 66.7013 173.927 65.1639 175.106 63.5647L171.887 61.1909C170.823 62.6334 169.63 64.0303 168.317 65.3739L171.177 68.1702ZM178.326 58.3963C179.27 56.5625 180.046 54.6669 180.637 52.7187L176.81 51.5568C176.291 53.2644 175.608 54.9365 174.77 56.5652L178.326 58.3963ZM181.847 46.681C181.948 45.6618 182 44.6332 182 43.5966L178 43.5966C178 44.5003 177.955 45.3964 177.867 46.2843L181.847 46.681ZM182 43.5966C182 42.56 181.948 41.5315 181.847 40.5123L177.867 40.909C177.955 41.7968 178 42.693 178 43.5966L182 43.5966ZM180.637 34.4746C180.046 32.5263 179.27 30.6307 178.326 28.797L174.77 30.6281C175.608 32.2568 176.291 33.9289 176.81 35.6365L180.637 34.4746ZM175.106 23.6286C173.927 22.0294 172.613 20.492 171.177 19.0231L168.317 21.8194C169.63 23.163 170.823 24.5598 171.887 26.0023L175.106 23.6286ZM166.719 14.9914C165.189 13.7638 163.565 12.5985 161.854 11.5008L159.694 14.8671C161.291 15.8918 162.8 16.9751 164.215 18.1108L166.719 14.9914ZM156.683 8.52209C154.949 7.62798 153.147 6.79567 151.285 6.02933L149.763 9.72841C151.522 10.4524 153.22 11.2369 154.849 12.0772L156.683 8.52209ZM145.712 3.99319C143.857 3.39678 141.954 2.86199 140.008 2.39236L139.069 6.28078C140.921 6.72747 142.728 7.23553 144.487 7.80116L145.712 3.99319ZM134.209 1.2099C132.288 0.88786 130.332 0.627545 128.347 0.432054L127.955 4.4128C129.851 4.59946 131.716 4.84787 133.548 5.15486L134.209 1.2099ZM122.45 0.0476436C121.471 0.0159954 120.486 -2.48223e-06 119.496 -2.64472e-06L119.496 4C120.443 4 121.385 4.0153 122.321 4.04556L122.45 0.0476436Z" fill="#5382DE" mask="url(#path-1-inside-1)"/>
</g>
<g filter="url(#filter0_f)">
<mask id="path-3-inside-2" fill="white">
<path fill-rule="evenodd" clip-rule="evenodd" d="M109.584 34.5452C113.215 32.5286 118.085 31.2949 123.439 31.2949C128.568 31.2949 133.254 32.4272 136.831 34.2953C129.75 22.1637 106.16 21 105.834 21C105.568 21 105.213 21.1066 105.036 21.2664C104.858 21.4796 104.858 21.6927 105.036 21.8526C110.176 26.461 110.597 31.0092 109.584 34.5452Z"/>
</mask>
<path fill-rule="evenodd" clip-rule="evenodd" d="M109.584 34.5452C113.215 32.5286 118.085 31.2949 123.439 31.2949C128.568 31.2949 133.254 32.4272 136.831 34.2953C129.75 22.1637 106.16 21 105.834 21C105.568 21 105.213 21.1066 105.036 21.2664C104.858 21.4796 104.858 21.6927 105.036 21.8526C110.176 26.461 110.597 31.0092 109.584 34.5452Z" fill="#5382DE"/>
<path d="M109.584 34.5452L107.661 33.9941L106.329 38.6402L110.555 36.2936L109.584 34.5452ZM136.831 34.2953L135.905 36.0681L142.056 39.2808L138.558 33.2872L136.831 34.2953ZM105.036 21.2664L103.697 19.7801L103.591 19.8761L103.499 19.9864L105.036 21.2664ZM105.036 21.8526L103.697 23.3389L103.7 23.3418L105.036 21.8526ZM110.555 36.2936C113.846 34.4658 118.372 33.2949 123.439 33.2949V29.2949C117.798 29.2949 112.584 30.5913 108.613 32.7967L110.555 36.2936ZM123.439 33.2949C128.291 33.2949 132.651 34.3688 135.905 36.0681L137.757 32.5225C133.857 30.4856 128.846 29.2949 123.439 29.2949V33.2949ZM105.834 23C105.792 23 107.231 23.0608 109.569 23.3557C111.875 23.6466 114.984 24.1567 118.287 25.0316C125.041 26.8206 131.995 29.9775 135.104 35.3035L138.558 33.2872C134.586 26.4815 126.205 22.9908 119.312 21.165C112.311 19.3106 106.159 19 105.834 19V23ZM106.374 22.7527C106.261 22.854 106.166 22.9081 106.121 22.9316C106.071 22.9576 106.035 22.9704 106.017 22.9763C105.997 22.9826 105.979 22.9873 105.957 22.9909C105.938 22.9942 105.897 23 105.834 23V19C105.461 19 105.098 19.0697 104.787 19.1702C104.498 19.2635 104.074 19.4412 103.697 19.7801L106.374 22.7527ZM106.374 20.3662C106.633 20.6 106.902 21.0214 106.902 21.5795C106.902 22.0865 106.68 22.4176 106.572 22.5465L103.499 19.9864C103.214 20.3284 102.902 20.8726 102.902 21.5795C102.902 22.3373 103.26 22.9453 103.697 23.3389L106.374 20.3662ZM111.506 35.0962C112.098 33.0326 112.282 30.6234 111.539 28.0472C110.797 25.4709 109.169 22.8725 106.371 20.3634L103.7 23.3418C106.042 25.4411 107.196 27.421 107.696 29.1549C108.195 30.8889 108.083 32.5218 107.661 33.9941L111.506 35.0962Z" fill="#5382DE" mask="url(#path-3-inside-2)"/>
</g>
<g filter="url(#filter1_f)">
<path fill-rule="evenodd" clip-rule="evenodd" d="M144.316 44.2703C144.316 36.1889 134.787 29.6377 123.033 29.6377C117.328 29.6377 112.148 31.1806 108.326 33.6926L80.9995 44.2704L108.327 54.8485C112.148 57.3602 117.328 58.9029 123.033 58.9029C134.787 58.9029 144.316 52.3517 144.316 44.2703Z" fill="#5382DE"/>
</g>
<g filter="url(#filter2_i)">
<path fill-rule="evenodd" clip-rule="evenodd" d="M144.346 44.272C144.346 36.5322 135.219 30.2578 123.961 30.2578C119.932 30.2578 116.175 31.0616 113.013 32.4487L113.013 32.4139L82.6912 44.2306L112.317 55.776C115.618 57.3583 119.632 58.2863 123.961 58.2863C135.219 58.2863 144.346 52.0119 144.346 44.272Z" fill="#5382DE" fill-opacity="0.7"/>
</g>
<path fill-rule="evenodd" clip-rule="evenodd" d="M109.584 34.5452C113.215 32.5286 118.085 31.2949 123.439 31.2949C128.568 31.2949 133.254 32.4272 136.831 34.2953C129.75 22.1637 106.16 21 105.834 21C105.568 21 105.213 21.1066 105.036 21.2664C104.858 21.4796 104.858 21.6927 105.036 21.8526C110.176 26.461 110.597 31.0092 109.584 34.5452Z" fill="#5382DE" fill-opacity="0.7"/>
<defs>
<filter id="filter0_f" x="83.9023" y="0" width="73.9286" height="55.5452" filterUnits="userSpaceOnUse" color-interpolation-filters="sRGB">
<feFlood flood-opacity="0" result="BackgroundImageFix"/>
<feBlend mode="normal" in="SourceGraphic" in2="BackgroundImageFix" result="shape"/>
<feGaussianBlur stdDeviation="10.5" result="effect1_foregroundBlur"/>
</filter>
<filter id="filter1_f" x="60" y="8.6377" width="105.317" height="71.2652" filterUnits="userSpaceOnUse" color-interpolation-filters="sRGB">
<feFlood flood-opacity="0" result="BackgroundImageFix"/>
<feBlend mode="normal" in="SourceGraphic" in2="BackgroundImageFix" result="shape"/>
<feGaussianBlur stdDeviation="10.5" result="effect1_foregroundBlur"/>
</filter>
<filter id="filter2_i" x="82.6914" y="30.2578" width="61.6545" height="32.0285" filterUnits="userSpaceOnUse" color-interpolation-filters="sRGB">
<feFlood flood-opacity="0" result="BackgroundImageFix"/>
<feBlend mode="normal" in="SourceGraphic" in2="BackgroundImageFix" result="shape"/>
<feColorMatrix in="SourceAlpha" type="matrix" values="0 0 0 0 0 0 0 0 0 0 0 0 0 0 0 0 0 0 127 0" result="hardAlpha"/>
<feOffset dy="4"/>
<feGaussianBlur stdDeviation="10.5"/>
<feComposite in2="hardAlpha" operator="arithmetic" k2="-1" k3="1"/>
<feColorMatrix type="matrix" values="0 0 0 0 0 0 0 0 0 0 0 0 0 0 0 0 0 0 0.25 0"/>
<feBlend mode="normal" in2="shape" result="effect1_innerShadow"/>
</filter>
</defs>
</svg>
