<svg width="186" height="113" viewBox="0 0 186 113" fill="none" xmlns="http://www.w3.org/2000/svg">
<g opacity="0.4">
<mask id="path-1-inside-1" fill="white">
<path fill-rule="evenodd" clip-rule="evenodd" d="M180 64.5966C180 41.6235 152.911 23 119.496 23C103.286 23 88.5643 27.3827 77.7021 34.5186L5.92169e-05 64.596L77.6975 94.6717C88.5601 101.809 103.283 106.193 119.496 106.193C152.911 106.193 180 87.5698 180 64.5966Z"/>
</mask>
<path fill-rule="evenodd" clip-rule="evenodd" d="M180 64.5966C180 41.6235 152.911 23 119.496 23C103.286 23 88.5643 27.3827 77.7021 34.5186L5.92169e-05 64.596L77.6975 94.6717C88.5601 101.809 103.283 106.193 119.496 106.193C152.911 106.193 180 87.5698 180 64.5966Z" fill="#5382DE" fill-opacity="0.14"/>
<path d="M119.496 23L119.496 24L119.496 23ZM180 64.5966L181 64.5966L180 64.5966ZM77.7021 34.5186L78.0631 35.4511L78.1623 35.4127L78.2511 35.3543L77.7021 34.5186ZM5.92169e-05 64.596L-0.360933 63.6634L-2.77013 64.596L-0.360933 65.5286L5.92169e-05 64.596ZM77.6975 94.6717L78.2466 93.836L78.1577 93.7775L78.0585 93.7391L77.6975 94.6717ZM119.496 22C118.565 22 117.639 22.0143 116.718 22.0426L116.779 24.0416C117.68 24.014 118.585 24 119.496 24L119.496 22ZM111.173 22.3859C109.307 22.5604 107.468 22.7926 105.659 23.08L105.973 25.0553C107.739 24.7746 109.536 24.5477 111.359 24.3773L111.173 22.3859ZM100.201 24.134C98.3689 24.5519 96.5751 25.0278 94.8236 25.5586L95.4036 27.4727C97.11 26.9555 98.8587 26.4916 100.646 26.0838L100.201 24.134ZM89.5586 27.3675C87.7988 28.0467 86.0917 28.7843 84.4429 29.5766L85.309 31.3793C86.909 30.6105 88.5673 29.8939 90.2788 29.2333L89.5586 27.3675ZM79.5223 32.2049C78.7143 32.6833 77.9243 33.1761 77.153 33.6828L78.2511 35.3543C78.996 34.865 79.7596 34.3887 80.5413 33.9258L79.5223 32.2049ZM77.3411 33.586L74.566 34.6602L75.288 36.5253L78.0631 35.4511L77.3411 33.586ZM69.0159 36.8086L63.4657 38.957L64.1877 40.8221L69.7379 38.6737L69.0159 36.8086ZM57.9156 41.1054L52.3654 43.2537L53.0874 45.1189L58.6376 42.9705L57.9156 41.1054ZM46.8153 45.4021L41.2652 47.5505L41.9871 49.4157L47.5373 47.2673L46.8153 45.4021ZM35.715 49.6989L30.1649 51.8473L30.8868 53.7124L36.437 51.5641L35.715 49.6989ZM24.6147 53.9957L19.0646 56.1441L19.7866 58.0092L25.3367 55.8608L24.6147 53.9957ZM13.5144 58.2925L7.96429 60.4409L8.68626 62.306L14.2364 60.1576L13.5144 58.2925ZM2.41415 62.5892L-0.360933 63.6634L0.361036 65.5286L3.13612 64.4544L2.41415 62.5892ZM-0.360933 65.5286L2.41398 66.6027L3.13595 64.7376L0.361036 63.6634L-0.360933 65.5286ZM7.96379 68.751L13.5136 70.8992L14.2356 69.0341L8.68577 66.8858L7.96379 68.751ZM19.0634 73.0475L24.6132 75.1958L25.3352 73.3306L19.7854 71.1824L19.0634 73.0475ZM30.1631 77.344L35.7129 79.4923L36.4349 77.6271L30.885 75.4789L30.1631 77.344ZM41.2627 81.6405L46.8125 83.7888L47.5345 81.9237L41.9847 79.7754L41.2627 81.6405ZM52.3623 85.9371L57.9122 88.0853L58.6341 86.2202L53.0843 84.0719L52.3623 85.9371ZM63.462 90.2336L69.0118 92.3819L69.7338 90.5167L64.1839 88.3684L63.462 90.2336ZM74.5616 94.5301L77.3365 95.6043L78.0585 93.7391L75.2836 92.665L74.5616 94.5301ZM77.1484 95.5074C77.9197 96.0142 78.7098 96.5072 79.5178 96.9857L80.5369 95.2649C79.7552 94.8019 78.9915 94.3254 78.2466 93.836L77.1484 95.5074ZM84.4388 99.6147C86.0878 100.407 87.7951 101.145 89.5551 101.824L90.2754 99.9586C88.5637 99.2978 86.9052 98.581 85.3051 97.8121L84.4388 99.6147ZM94.8206 103.634C96.5723 104.165 98.3663 104.641 100.198 105.059L100.643 103.109C98.8562 102.701 97.1072 102.237 95.4007 101.72L94.8206 103.634ZM105.657 106.113C107.466 106.4 109.306 106.633 111.172 106.807L111.358 104.816C109.535 104.645 107.738 104.418 105.971 104.138L105.657 106.113ZM116.718 107.151C117.639 107.179 118.565 107.193 119.496 107.193L119.496 105.193C118.585 105.193 117.68 105.179 116.779 105.152L116.718 107.151ZM119.496 107.193C120.475 107.193 121.449 107.177 122.418 107.146L122.353 105.147C121.406 105.178 120.454 105.193 119.496 105.193L119.496 107.193ZM128.249 106.766C130.212 106.573 132.145 106.315 134.044 105.997L133.713 104.025C131.859 104.335 129.971 104.587 128.053 104.776L128.249 106.766ZM139.773 104.829C141.696 104.365 143.575 103.837 145.406 103.248L144.794 101.344C143.011 101.917 141.179 102.432 139.304 102.885L139.773 104.829ZM150.905 101.239C152.741 100.483 154.517 99.6631 156.224 98.7824L155.308 97.0048C153.652 97.8586 151.929 98.6551 150.143 99.3896L150.905 101.239ZM161.314 95.8509C162.996 94.7714 164.592 93.6267 166.093 92.422L164.841 90.8623C163.397 92.021 161.859 93.1248 160.234 94.1678L161.314 95.8509ZM170.462 88.4711C171.867 87.0335 173.151 85.5313 174.301 83.9712L172.691 82.7844C171.599 84.2661 170.376 85.698 169.032 87.0729L170.462 88.4711ZM177.437 78.9385C178.354 77.156 179.107 75.3163 179.68 73.4282L177.766 72.8473C177.23 74.615 176.524 76.343 175.659 78.023L177.437 78.9385ZM180.852 67.5818C180.95 66.5955 181 65.6 181 64.5966L179 64.5966C179 65.5335 178.953 66.4628 178.862 67.3835L180.852 67.5818ZM181 64.5966C181 63.5933 180.95 62.5978 180.852 61.6114L178.862 61.8098C178.953 62.7305 179 63.6598 179 64.5966L181 64.5966ZM179.68 55.7651C179.107 53.877 178.354 52.0372 177.437 50.2548L175.659 51.1703C176.524 52.8503 177.23 54.5783 177.766 56.346L179.68 55.7651ZM174.301 45.222C173.151 43.662 171.867 42.1597 170.462 40.7222L169.032 42.1203C170.376 43.4952 171.599 44.9272 172.691 46.4089L174.301 45.222ZM166.093 36.7712C164.592 35.5666 162.996 34.4218 161.314 33.3423L160.234 35.0255C161.859 36.0685 163.397 37.1722 164.841 38.3309L166.093 36.7712ZM156.224 30.4109C154.517 29.5302 152.741 28.7098 150.905 27.9541L150.143 29.8036C151.929 30.5382 153.652 31.3347 155.308 32.1884L156.224 30.4109ZM145.406 25.9452C143.575 25.3565 141.696 24.8284 139.773 24.3645L139.304 26.3087C141.179 26.7611 143.011 27.2758 144.794 27.8492L145.406 25.9452ZM134.044 23.1961C132.145 22.8779 130.212 22.6205 128.249 22.4272L128.053 24.4176C129.971 24.6065 131.859 24.8579 133.713 25.1686L134.044 23.1961ZM122.418 22.0471C121.449 22.0158 120.475 22 119.496 22L119.496 24C120.454 24 121.406 24.0155 122.353 24.0461L122.418 22.0471ZM119.496 23L119.496 25L119.496 23ZM180 64.5966L182 64.5966L180 64.5966ZM77.7021 34.5186L78.4241 36.3837L78.6224 36.3069L78.8002 36.1901L77.7021 34.5186ZM5.92169e-05 64.596L-0.72191 62.7309L-5.54032 64.596L-0.72191 66.4612L5.92169e-05 64.596ZM77.6975 94.6717L78.7958 93.0002L78.6179 92.8834L78.4195 92.8065L77.6975 94.6717ZM119.496 21C118.555 21 117.618 21.0144 116.687 21.0431L116.81 25.0412C117.7 25.0138 118.596 25 119.496 25L119.496 21ZM111.08 21.3903C109.193 21.5667 107.332 21.8016 105.502 22.0924L106.13 26.0429C107.875 25.7656 109.65 25.5414 111.452 25.3729L111.08 21.3903ZM99.9781 23.159C98.124 23.5821 96.3076 24.064 94.5335 24.6016L95.6937 28.4297C97.3774 27.9194 99.1037 27.4614 100.868 27.0588L99.9781 23.159ZM89.1985 26.4346C87.4146 27.1232 85.6831 27.8712 84.0098 28.6752L85.7421 32.2806C87.3176 31.5236 88.9516 30.8175 90.6389 30.1662L89.1985 26.4346ZM79.0128 31.3444C78.1917 31.8306 77.3884 32.3316 76.604 32.847L78.8002 36.1901C79.5318 35.7095 80.2823 35.2414 81.0508 34.7863L79.0128 31.3444ZM76.9801 32.6534L74.205 33.7276L75.649 37.4579L78.4241 36.3837L76.9801 32.6534ZM68.6549 35.876L63.1048 38.0244L64.5487 41.7547L70.0988 39.6063L68.6549 35.876ZM57.5546 40.1728L52.0045 42.3212L53.4484 46.0515L58.9985 43.9031L57.5546 40.1728ZM46.4543 44.4696L40.9042 46.6179L42.3481 50.3482L47.8983 48.1998L46.4543 44.4696ZM35.354 48.7663L29.8039 50.9147L31.2478 54.645L36.798 52.4966L35.354 48.7663ZM24.2537 53.0631L18.7036 55.2115L20.1475 58.9418L25.6977 56.7934L24.2537 53.0631ZM13.1535 57.3599L7.6033 59.5083L9.04725 63.2386L14.5974 61.0902L13.1535 57.3599ZM2.05316 61.6567L-0.72191 62.7309L0.722029 66.4612L3.4971 65.387L2.05316 61.6567ZM-0.72191 66.4612L2.05299 67.5353L3.49693 63.805L0.722029 62.7309L-0.72191 66.4612ZM7.60281 69.6835L13.1526 71.8318L14.5966 68.1015L9.04675 65.9533L7.60281 69.6835ZM18.7025 73.9801L24.2523 76.1283L25.6962 72.398L20.1464 70.2498L18.7025 73.9801ZM29.8021 78.2766L35.3519 80.4249L36.7958 76.6946L31.246 74.5463L29.8021 78.2766ZM40.9017 82.5731L46.4515 84.7214L47.8955 80.9911L42.3457 78.8428L40.9017 82.5731ZM52.0013 86.8696L57.5512 89.0179L58.9951 85.2876L53.4453 83.1394L52.0013 86.8696ZM63.101 91.1662L68.6508 93.3144L70.0947 89.5841L64.5449 87.4359L63.101 91.1662ZM74.2006 95.4627L76.9755 96.5368L78.4195 92.8065L75.6446 91.7324L74.2006 95.4627ZM76.5992 96.3431C77.3838 96.8586 78.1871 97.3598 79.0083 97.8461L81.0465 94.4044C80.2779 93.9492 79.5274 93.481 78.7958 93.0002L76.5992 96.3431ZM84.0056 100.516C85.6791 101.32 87.4107 102.069 89.1949 102.757L90.6355 99.0257C88.948 98.3743 87.3139 97.668 85.7382 96.9108L84.0056 100.516ZM94.5305 104.591C96.3048 105.129 98.1214 105.611 99.9757 106.034L100.866 102.134C99.1012 101.731 97.3747 101.273 95.6908 100.763L94.5305 104.591ZM105.5 107.101C107.331 107.391 109.191 107.626 111.078 107.803L111.451 103.82C109.649 103.652 107.873 103.427 106.128 103.15L105.5 107.101ZM116.687 108.15C117.618 108.179 118.555 108.193 119.496 108.193L119.496 104.193C118.595 104.193 117.7 104.179 116.81 104.152L116.687 108.15ZM119.496 108.193C120.486 108.193 121.471 108.177 122.45 108.146L122.321 104.148C121.385 104.178 120.443 104.193 119.496 104.193L119.496 108.193ZM128.347 107.761C130.332 107.566 132.288 107.305 134.209 106.983L133.548 103.038C131.716 103.345 129.851 103.594 127.955 103.78L128.347 107.761ZM140.008 105.801C141.954 105.331 143.857 104.796 145.712 104.2L144.487 100.392C142.728 100.958 140.921 101.466 139.069 101.912L140.008 105.801ZM151.285 102.164C153.147 101.398 154.949 100.565 156.683 99.6712L154.849 96.1161C153.22 96.9564 151.522 97.7409 149.763 98.4649L151.285 102.164ZM161.854 96.6925C163.565 95.5947 165.189 94.4295 166.719 93.2019L164.215 90.0825C162.8 91.2182 161.291 92.3014 159.694 93.3262L161.854 96.6925ZM171.177 89.1702C172.613 87.7013 173.927 86.1639 175.106 84.5647L171.887 82.1909C170.823 83.6334 169.63 85.0303 168.317 86.3739L171.177 89.1702ZM178.326 79.3963C179.27 77.5625 180.046 75.6669 180.637 73.7187L176.81 72.5568C176.291 74.2644 175.608 75.9365 174.77 77.5652L178.326 79.3963ZM181.847 67.681C181.948 66.6618 182 65.6332 182 64.5966L178 64.5966C178 65.5003 177.955 66.3964 177.867 67.2843L181.847 67.681ZM182 64.5966C182 63.56 181.948 62.5315 181.847 61.5123L177.867 61.909C177.955 62.7968 178 63.693 178 64.5966L182 64.5966ZM180.637 55.4746C180.046 53.5263 179.27 51.6307 178.326 49.797L174.77 51.6281C175.608 53.2568 176.291 54.9289 176.81 56.6365L180.637 55.4746ZM175.106 44.6286C173.927 43.0294 172.613 41.492 171.177 40.0231L168.317 42.8194C169.63 44.163 170.823 45.5598 171.887 47.0023L175.106 44.6286ZM166.719 35.9914C165.189 34.7638 163.565 33.5985 161.854 32.5008L159.694 35.8671C161.291 36.8918 162.8 37.9751 164.215 39.1108L166.719 35.9914ZM156.683 29.5221C154.949 28.628 153.147 27.7957 151.285 27.0293L149.763 30.7284C151.522 31.4524 153.22 32.2369 154.849 33.0772L156.683 29.5221ZM145.712 24.9932C143.857 24.3968 141.954 23.862 140.008 23.3924L139.069 27.2808C140.921 27.7275 142.728 28.2355 144.487 28.8012L145.712 24.9932ZM134.209 22.2099C132.288 21.8879 130.332 21.6275 128.347 21.4321L127.955 25.4128C129.851 25.5995 131.716 25.8479 133.548 26.1549L134.209 22.2099ZM122.45 21.0476C121.471 21.016 120.486 21 119.496 21L119.496 25C120.443 25 121.385 25.0153 122.321 25.0456L122.45 21.0476Z" fill="#5382DE" mask="url(#path-1-inside-1)"/>
</g>
<g filter="url(#filter0_f)">
<mask id="path-3-inside-2" fill="white">
<path fill-rule="evenodd" clip-rule="evenodd" d="M100.791 46.018C107.498 42.2939 116.493 40.0155 126.381 40.0155C135.856 40.0155 144.512 42.1075 151.119 45.5589C138.042 23.1496 94.4673 21 93.8662 21C93.3743 21 92.7184 21.1968 92.3905 21.4921C92.0625 21.8858 92.0625 22.2794 92.3905 22.5747C101.885 31.0865 102.663 39.487 100.791 46.018Z"/>
</mask>
<path fill-rule="evenodd" clip-rule="evenodd" d="M100.791 46.018C107.498 42.2939 116.493 40.0155 126.381 40.0155C135.856 40.0155 144.512 42.1075 151.119 45.5589C138.042 23.1496 94.4673 21 93.8662 21C93.3743 21 92.7184 21.1968 92.3905 21.4921C92.0625 21.8858 92.0625 22.2794 92.3905 22.5747C101.885 31.0865 102.663 39.487 100.791 46.018Z" fill="#5382DE"/>
<path d="M100.791 46.018L98.8687 45.467L97.5372 50.1127L101.762 47.7665L100.791 46.018ZM151.119 45.5589L150.193 47.3316L156.344 50.5448L152.846 44.5509L151.119 45.5589ZM92.3905 21.4921L91.0522 20.0058L90.9456 20.1018L90.8538 20.212L92.3905 21.4921ZM92.3905 22.5747L91.0522 24.061L91.0555 24.0639L92.3905 22.5747ZM101.762 47.7665C108.129 44.2311 116.78 42.0155 126.381 42.0155V38.0155C116.206 38.0155 106.867 40.3566 99.8203 44.2695L101.762 47.7665ZM126.381 42.0155C135.579 42.0155 143.909 44.0491 150.193 47.3316L152.045 43.7862C145.114 40.1659 136.134 38.0155 126.381 38.0155V42.0155ZM93.8662 23C93.8484 23 94.5165 23.0263 95.8021 23.1297C97.0497 23.2301 98.8222 23.3986 100.976 23.6703C105.289 24.2142 111.109 25.1688 117.302 26.8093C129.836 30.1294 143.285 36.1022 149.392 46.5669L152.846 44.5509C145.876 32.6063 130.999 26.2996 118.326 22.9426C105.545 19.5571 94.3286 19 93.8662 19V23ZM93.7287 22.9784C93.6887 23.0144 93.6573 23.0369 93.64 23.0484C93.6309 23.0545 93.624 23.0587 93.6198 23.0612C93.6155 23.0637 93.6133 23.0649 93.6132 23.0649C93.6131 23.065 93.6148 23.0641 93.6182 23.0625C93.6216 23.061 93.6264 23.0588 93.6326 23.0563C93.6453 23.0511 93.6619 23.0449 93.6819 23.0384C93.7235 23.025 93.7682 23.0141 93.8091 23.0071C93.8517 22.9999 93.8719 23 93.8662 23V19C93.3803 19 92.885 19.0922 92.4517 19.2323C92.0408 19.3651 91.5038 19.5992 91.0522 20.0058L93.7287 22.9784ZM93.7287 21.0884C93.9131 21.2545 94.1445 21.5969 94.1445 22.0703C94.1445 22.4927 93.9594 22.7335 93.9272 22.7722L90.8538 20.212C90.4936 20.6444 90.1445 21.2788 90.1445 22.0703C90.1445 22.9128 90.5399 23.5997 91.0522 24.061L93.7287 21.0884ZM102.714 46.569C103.735 43.0079 104.044 38.8869 102.775 34.4853C101.506 30.0836 98.7015 25.5463 93.7255 21.0855L91.0555 24.0639C95.5743 28.1149 97.9057 32.0338 98.9316 35.5931C99.9575 39.1524 99.7198 42.4972 98.8687 45.467L102.714 46.569Z" fill="#5382DE" mask="url(#path-3-inside-2)"/>
</g>
<g filter="url(#filter1_f)">
<path fill-rule="evenodd" clip-rule="evenodd" d="M164.947 63.9811C164.947 49.0545 147.347 36.9541 125.635 36.9541C115.098 36.9541 105.53 39.8041 98.4713 44.4441L47.9995 63.9811L98.4714 83.5181C105.53 88.158 115.098 91.008 125.635 91.008C147.347 91.008 164.947 78.9076 164.947 63.9811Z" fill="#5382DE"/>
</g>
<g filter="url(#filter2_i)">
<path fill-rule="evenodd" clip-rule="evenodd" d="M164.998 63.9844C164.998 49.6886 148.141 38.0996 127.347 38.0996C119.905 38.0996 112.967 39.5841 107.126 42.1458L107.126 42.0826L51.1209 63.9085L105.841 85.2336C111.938 88.1557 119.352 89.8692 127.347 89.8692C148.141 89.8692 164.998 78.2802 164.998 63.9844Z" fill="#5382DE" fill-opacity="0.7"/>
</g>
<path fill-rule="evenodd" clip-rule="evenodd" d="M100.791 46.018C107.498 42.2939 116.493 40.0155 126.381 40.0155C135.856 40.0155 144.512 42.1075 151.119 45.5589C138.042 23.1496 94.4673 21 93.8662 21C93.3743 21 92.7184 21.1968 92.3905 21.4921C92.0625 21.8858 92.0625 22.2794 92.3905 22.5747C101.885 31.0865 102.663 39.487 100.791 46.018Z" fill="#5382DE" fill-opacity="0.7"/>
<defs>
<filter id="filter0_f" x="71.1445" y="0" width="100.975" height="67.018" filterUnits="userSpaceOnUse" color-interpolation-filters="sRGB">
<feFlood flood-opacity="0" result="BackgroundImageFix"/>
<feBlend mode="normal" in="SourceGraphic" in2="BackgroundImageFix" result="shape"/>
<feGaussianBlur stdDeviation="10.5" result="effect1_foregroundBlur"/>
</filter>
<filter id="filter1_f" x="27" y="15.9541" width="158.948" height="96.0539" filterUnits="userSpaceOnUse" color-interpolation-filters="sRGB">
<feFlood flood-opacity="0" result="BackgroundImageFix"/>
<feBlend mode="normal" in="SourceGraphic" in2="BackgroundImageFix" result="shape"/>
<feGaussianBlur stdDeviation="10.5" result="effect1_foregroundBlur"/>
</filter>
<filter id="filter2_i" x="51.1211" y="38.0996" width="113.877" height="55.7696" filterUnits="userSpaceOnUse" color-interpolation-filters="sRGB">
<feFlood flood-opacity="0" result="BackgroundImageFix"/>
<feBlend mode="normal" in="SourceGraphic" in2="BackgroundImageFix" result="shape"/>
<feColorMatrix in="SourceAlpha" type="matrix" values="0 0 0 0 0 0 0 0 0 0 0 0 0 0 0 0 0 0 127 0" result="hardAlpha"/>
<feOffset dy="4"/>
<feGaussianBlur stdDeviation="10.5"/>
<feComposite in2="hardAlpha" operator="arithmetic" k2="-1" k3="1"/>
<feColorMatrix type="matrix" values="0 0 0 0 0 0 0 0 0 0 0 0 0 0 0 0 0 0 0.25 0"/>
<feBlend mode="normal" in2="shape" result="effect1_innerShadow"/>
</filter>
</defs>
</svg>
