<svg width="224" height="150" viewBox="0 0 224 150" fill="none" xmlns="http://www.w3.org/2000/svg">
<g opacity="0.4">
<mask id="path-1-inside-1" fill="white">
<path fill-rule="evenodd" clip-rule="evenodd" d="M200 87.5966C200 64.6235 172.911 46 139.496 46C123.286 46 108.564 50.3827 97.7021 57.5186L20.0001 87.596L97.6975 117.672C108.56 124.809 123.283 129.193 139.496 129.193C172.911 129.193 200 110.57 200 87.5966Z"/>
</mask>
<path fill-rule="evenodd" clip-rule="evenodd" d="M200 87.5966C200 64.6235 172.911 46 139.496 46C123.286 46 108.564 50.3827 97.7021 57.5186L20.0001 87.596L97.6975 117.672C108.56 124.809 123.283 129.193 139.496 129.193C172.911 129.193 200 110.57 200 87.5966Z" fill="#5382DE" fill-opacity="0.14"/>
<path d="M139.496 46L139.496 47L139.496 46ZM200 87.5966L201 87.5966L200 87.5966ZM97.7021 57.5186L98.0631 58.4511L98.1623 58.4127L98.2511 58.3543L97.7021 57.5186ZM20.0001 87.596L19.6391 86.6634L17.2299 87.596L19.6391 88.5286L20.0001 87.596ZM97.6975 117.672L98.2466 116.836L98.1577 116.778L98.0585 116.739L97.6975 117.672ZM139.496 45C138.565 45 137.639 45.0143 136.718 45.0426L136.779 47.0416C137.68 47.014 138.585 47 139.496 47L139.496 45ZM131.173 45.3859C129.307 45.5604 127.468 45.7926 125.659 46.08L125.973 48.0553C127.739 47.7746 129.536 47.5477 131.359 47.3773L131.173 45.3859ZM120.201 47.134C118.369 47.5519 116.575 48.0278 114.824 48.5586L115.404 50.4727C117.11 49.9555 118.859 49.4916 120.646 49.0838L120.201 47.134ZM109.559 50.3675C107.799 51.0467 106.092 51.7843 104.443 52.5766L105.309 54.3793C106.909 53.6105 108.567 52.8939 110.279 52.2333L109.559 50.3675ZM99.5223 55.2049C98.7143 55.6833 97.9243 56.1761 97.153 56.6828L98.2511 58.3543C98.996 57.865 99.7596 57.3887 100.541 56.9258L99.5223 55.2049ZM97.3411 56.586L94.566 57.6602L95.288 59.5253L98.0631 58.4511L97.3411 56.586ZM89.0159 59.8086L83.4657 61.957L84.1877 63.8221L89.7379 61.6737L89.0159 59.8086ZM77.9156 64.1054L72.3654 66.2537L73.0874 68.1189L78.6376 65.9705L77.9156 64.1054ZM66.8153 68.4021L61.2652 70.5505L61.9871 72.4157L67.5373 70.2673L66.8153 68.4021ZM55.715 72.6989L50.1649 74.8473L50.8868 76.7124L56.437 74.5641L55.715 72.6989ZM44.6147 76.9957L39.0646 79.1441L39.7866 81.0092L45.3367 78.8608L44.6147 76.9957ZM33.5144 81.2925L27.9643 83.4409L28.6863 85.306L34.2364 83.1576L33.5144 81.2925ZM22.4142 85.5892L19.6391 86.6634L20.361 88.5286L23.1361 87.4544L22.4142 85.5892ZM19.6391 88.5286L22.414 89.6027L23.136 87.7376L20.361 86.6634L19.6391 88.5286ZM27.9638 91.751L33.5136 93.8992L34.2356 92.0341L28.6858 89.8858L27.9638 91.751ZM39.0634 96.0475L44.6132 98.1958L45.3352 96.3306L39.7854 94.1824L39.0634 96.0475ZM50.1631 100.344L55.7129 102.492L56.4349 100.627L50.885 98.4789L50.1631 100.344ZM61.2627 104.641L66.8125 106.789L67.5345 104.924L61.9847 102.775L61.2627 104.641ZM72.3623 108.937L77.9122 111.085L78.6341 109.22L73.0843 107.072L72.3623 108.937ZM83.462 113.234L89.0118 115.382L89.7338 113.517L84.1839 111.368L83.462 113.234ZM94.5616 117.53L97.3365 118.604L98.0585 116.739L95.2836 115.665L94.5616 117.53ZM97.1484 118.507C97.9197 119.014 98.7098 119.507 99.5178 119.986L100.537 118.265C99.7552 117.802 98.9915 117.325 98.2466 116.836L97.1484 118.507ZM104.439 122.615C106.088 123.407 107.795 124.145 109.555 124.824L110.275 122.959C108.564 122.298 106.905 121.581 105.305 120.812L104.439 122.615ZM114.821 126.634C116.572 127.165 118.366 127.641 120.198 128.059L120.643 126.109C118.856 125.701 117.107 125.237 115.401 124.72L114.821 126.634ZM125.657 129.113C127.466 129.4 129.306 129.633 131.172 129.807L131.358 127.816C129.535 127.645 127.738 127.418 125.971 127.138L125.657 129.113ZM136.718 130.151C137.639 130.179 138.565 130.193 139.496 130.193L139.496 128.193C138.585 128.193 137.68 128.179 136.779 128.152L136.718 130.151ZM139.496 130.193C140.475 130.193 141.449 130.177 142.418 130.146L142.353 128.147C141.406 128.178 140.454 128.193 139.496 128.193L139.496 130.193ZM148.249 129.766C150.212 129.573 152.145 129.315 154.044 128.997L153.713 127.025C151.859 127.335 149.971 127.587 148.053 127.776L148.249 129.766ZM159.773 127.829C161.696 127.365 163.575 126.837 165.406 126.248L164.794 124.344C163.011 124.917 161.179 125.432 159.304 125.885L159.773 127.829ZM170.905 124.239C172.741 123.483 174.517 122.663 176.224 121.782L175.308 120.005C173.652 120.859 171.929 121.655 170.143 122.39L170.905 124.239ZM181.314 118.851C182.996 117.771 184.592 116.627 186.093 115.422L184.841 113.862C183.397 115.021 181.859 116.125 180.234 117.168L181.314 118.851ZM190.462 111.471C191.867 110.034 193.151 108.531 194.301 106.971L192.691 105.784C191.599 107.266 190.376 108.698 189.032 110.073L190.462 111.471ZM197.437 101.939C198.354 100.156 199.107 98.3163 199.68 96.4282L197.766 95.8473C197.23 97.615 196.524 99.343 195.659 101.023L197.437 101.939ZM200.852 90.5818C200.95 89.5955 201 88.6 201 87.5966L199 87.5966C199 88.5335 198.953 89.4628 198.862 90.3835L200.852 90.5818ZM201 87.5966C201 86.5933 200.95 85.5978 200.852 84.6114L198.862 84.8098C198.953 85.7305 199 86.6598 199 87.5966L201 87.5966ZM199.68 78.7651C199.107 76.877 198.354 75.0372 197.437 73.2548L195.659 74.1703C196.524 75.8503 197.23 77.5783 197.766 79.346L199.68 78.7651ZM194.301 68.222C193.151 66.662 191.867 65.1597 190.462 63.7222L189.032 65.1203C190.376 66.4952 191.599 67.9272 192.691 69.4089L194.301 68.222ZM186.093 59.7712C184.592 58.5666 182.996 57.4218 181.314 56.3423L180.234 58.0255C181.859 59.0685 183.397 60.1722 184.841 61.3309L186.093 59.7712ZM176.224 53.4109C174.517 52.5302 172.741 51.7098 170.905 50.9541L170.143 52.8036C171.929 53.5382 173.652 54.3347 175.308 55.1884L176.224 53.4109ZM165.406 48.9452C163.575 48.3565 161.696 47.8284 159.773 47.3645L159.304 49.3087C161.179 49.7611 163.011 50.2758 164.794 50.8492L165.406 48.9452ZM154.044 46.1961C152.145 45.8779 150.212 45.6205 148.249 45.4272L148.053 47.4176C149.971 47.6065 151.859 47.8579 153.713 48.1686L154.044 46.1961ZM142.418 45.0471C141.449 45.0158 140.475 45 139.496 45L139.496 47C140.454 47 141.406 47.0155 142.353 47.0461L142.418 45.0471ZM139.496 46L139.496 48L139.496 46ZM200 87.5966L202 87.5966L200 87.5966ZM97.7021 57.5186L98.4241 59.3837L98.6224 59.3069L98.8002 59.1901L97.7021 57.5186ZM20.0001 87.596L19.2781 85.7309L14.4597 87.596L19.2781 89.4612L20.0001 87.596ZM97.6975 117.672L98.7958 116L98.6179 115.883L98.4195 115.807L97.6975 117.672ZM139.496 44C138.555 44 137.618 44.0144 136.687 44.0431L136.81 48.0412C137.7 48.0138 138.596 48 139.496 48L139.496 44ZM131.08 44.3903C129.193 44.5667 127.332 44.8016 125.502 45.0924L126.13 49.0429C127.875 48.7656 129.65 48.5414 131.452 48.3729L131.08 44.3903ZM119.978 46.159C118.124 46.5821 116.308 47.064 114.534 47.6016L115.694 51.4297C117.377 50.9194 119.104 50.4614 120.868 50.0588L119.978 46.159ZM109.199 49.4346C107.415 50.1232 105.683 50.8712 104.01 51.6752L105.742 55.2806C107.318 54.5236 108.952 53.8175 110.639 53.1662L109.199 49.4346ZM99.0128 54.3444C98.1917 54.8306 97.3884 55.3316 96.604 55.847L98.8002 59.1901C99.5318 58.7095 100.282 58.2414 101.051 57.7863L99.0128 54.3444ZM96.9801 55.6534L94.205 56.7276L95.649 60.4579L98.4241 59.3837L96.9801 55.6534ZM88.6549 58.876L83.1048 61.0244L84.5487 64.7547L90.0988 62.6063L88.6549 58.876ZM77.5546 63.1728L72.0045 65.3212L73.4484 69.0515L78.9985 66.9031L77.5546 63.1728ZM66.4543 67.4696L60.9042 69.6179L62.3481 73.3482L67.8983 71.1998L66.4543 67.4696ZM55.354 71.7663L49.8039 73.9147L51.2478 77.645L56.798 75.4966L55.354 71.7663ZM44.2537 76.0631L38.7036 78.2115L40.1475 81.9418L45.6977 79.7934L44.2537 76.0631ZM33.1535 80.3599L27.6033 82.5083L29.0473 86.2386L34.5974 84.0902L33.1535 80.3599ZM22.0532 84.6567L19.2781 85.7309L20.722 89.4612L23.4971 88.387L22.0532 84.6567ZM19.2781 89.4612L22.053 90.5353L23.4969 86.805L20.722 85.7309L19.2781 89.4612ZM27.6028 92.6835L33.1526 94.8318L34.5966 91.1015L29.0468 88.9533L27.6028 92.6835ZM38.7025 96.9801L44.2523 99.1283L45.6962 95.398L40.1464 93.2498L38.7025 96.9801ZM49.8021 101.277L55.3519 103.425L56.7958 99.6946L51.246 97.5463L49.8021 101.277ZM60.9017 105.573L66.4515 107.721L67.8955 103.991L62.3457 101.843L60.9017 105.573ZM72.0013 109.87L77.5512 112.018L78.9951 108.288L73.4453 106.139L72.0013 109.87ZM83.101 114.166L88.6508 116.314L90.0947 112.584L84.5449 110.436L83.101 114.166ZM94.2006 118.463L96.9755 119.537L98.4195 115.807L95.6446 114.732L94.2006 118.463ZM96.5992 119.343C97.3838 119.859 98.1871 120.36 99.0083 120.846L101.047 117.404C100.278 116.949 99.5274 116.481 98.7958 116L96.5992 119.343ZM104.006 123.516C105.679 124.32 107.411 125.069 109.195 125.757L110.635 122.026C108.948 121.374 107.314 120.668 105.738 119.911L104.006 123.516ZM114.53 127.591C116.305 128.129 118.121 128.611 119.976 129.034L120.866 125.134C119.101 124.731 117.375 124.273 115.691 123.763L114.53 127.591ZM125.5 130.101C127.331 130.391 129.191 130.626 131.078 130.803L131.451 126.82C129.649 126.652 127.873 126.427 126.128 126.15L125.5 130.101ZM136.687 131.15C137.618 131.179 138.555 131.193 139.496 131.193L139.496 127.193C138.595 127.193 137.7 127.179 136.81 127.152L136.687 131.15ZM139.496 131.193C140.486 131.193 141.471 131.177 142.45 131.146L142.321 127.148C141.385 127.178 140.443 127.193 139.496 127.193L139.496 131.193ZM148.347 130.761C150.332 130.566 152.288 130.305 154.209 129.983L153.548 126.038C151.716 126.345 149.851 126.594 147.955 126.78L148.347 130.761ZM160.008 128.801C161.954 128.331 163.857 127.796 165.712 127.2L164.487 123.392C162.728 123.958 160.921 124.466 159.069 124.912L160.008 128.801ZM171.285 125.164C173.147 124.398 174.949 123.565 176.683 122.671L174.849 119.116C173.22 119.956 171.522 120.741 169.763 121.465L171.285 125.164ZM181.854 119.693C183.565 118.595 185.189 117.43 186.719 116.202L184.215 113.082C182.8 114.218 181.291 115.301 179.694 116.326L181.854 119.693ZM191.177 112.17C192.613 110.701 193.927 109.164 195.106 107.565L191.887 105.191C190.823 106.633 189.63 108.03 188.317 109.374L191.177 112.17ZM198.326 102.396C199.27 100.563 200.046 98.6669 200.637 96.7187L196.81 95.5568C196.291 97.2644 195.608 98.9365 194.77 100.565L198.326 102.396ZM201.847 90.681C201.948 89.6618 202 88.6332 202 87.5966L198 87.5966C198 88.5003 197.955 89.3964 197.867 90.2843L201.847 90.681ZM202 87.5966C202 86.56 201.948 85.5315 201.847 84.5123L197.867 84.909C197.955 85.7968 198 86.693 198 87.5966L202 87.5966ZM200.637 78.4746C200.046 76.5263 199.27 74.6307 198.326 72.797L194.77 74.6281C195.608 76.2568 196.291 77.9289 196.81 79.6365L200.637 78.4746ZM195.106 67.6286C193.927 66.0294 192.613 64.492 191.177 63.0231L188.317 65.8194C189.63 67.163 190.823 68.5598 191.887 70.0023L195.106 67.6286ZM186.719 58.9914C185.189 57.7638 183.565 56.5985 181.854 55.5008L179.694 58.8671C181.291 59.8918 182.8 60.9751 184.215 62.1108L186.719 58.9914ZM176.683 52.5221C174.949 51.628 173.147 50.7957 171.285 50.0293L169.763 53.7284C171.522 54.4524 173.22 55.2369 174.849 56.0772L176.683 52.5221ZM165.712 47.9932C163.857 47.3968 161.954 46.862 160.008 46.3924L159.069 50.2808C160.921 50.7275 162.728 51.2355 164.487 51.8012L165.712 47.9932ZM154.209 45.2099C152.288 44.8879 150.332 44.6275 148.347 44.4321L147.955 48.4128C149.851 48.5995 151.716 48.8479 153.548 49.1549L154.209 45.2099ZM142.45 44.0476C141.471 44.016 140.486 44 139.496 44L139.496 48C140.443 48 141.385 48.0153 142.321 48.0456L142.45 44.0476Z" fill="#5382DE" mask="url(#path-1-inside-1)"/>
</g>
<g filter="url(#filter0_f)">
<mask id="path-3-inside-2" fill="white">
<path fill-rule="evenodd" clip-rule="evenodd" d="M106.684 56.0448C116.079 50.8285 128.68 47.6374 142.53 47.6374C155.805 47.6374 167.931 50.5684 177.187 55.4039C158.867 24.0113 97.8242 21 96.9821 21C96.293 21 95.3743 21.2757 94.9149 21.6894C94.4555 22.2409 94.4555 22.7924 94.9149 23.206C108.215 35.1289 109.305 46.896 106.684 56.0448Z"/>
</mask>
<path fill-rule="evenodd" clip-rule="evenodd" d="M106.684 56.0448C116.079 50.8285 128.68 47.6374 142.53 47.6374C155.805 47.6374 167.931 50.5684 177.187 55.4039C158.867 24.0113 97.8242 21 96.9821 21C96.293 21 95.3743 21.2757 94.9149 21.6894C94.4555 22.2409 94.4555 22.7924 94.9149 23.206C108.215 35.1289 109.305 46.896 106.684 56.0448Z" fill="#5382DE"/>
<path d="M106.684 56.0448L104.762 55.4939L103.431 60.1388L107.655 57.7933L106.684 56.0448ZM177.187 55.4039L176.261 57.1766L182.412 60.3902L178.914 54.3959L177.187 55.4039ZM94.9149 21.6894L93.5766 20.2031L93.47 20.2991L93.3782 20.4093L94.9149 21.6894ZM94.9149 23.206L93.5766 24.6923L93.5798 24.6952L94.9149 23.206ZM107.655 57.7933C116.71 52.7658 128.967 49.6374 142.53 49.6374V45.6374C128.392 45.6374 115.448 48.8913 105.713 54.2962L107.655 57.7933ZM142.53 49.6374C155.527 49.6374 167.328 52.5099 176.261 57.1766L178.113 53.6313C168.533 48.6268 156.082 45.6374 142.53 45.6374V49.6374ZM96.9821 23C96.9621 23 97.183 23.007 97.7012 23.0379C98.185 23.0668 98.8791 23.1135 99.7584 23.1843C101.517 23.3258 104.012 23.563 107.043 23.9453C113.109 24.7104 121.299 26.0534 130.018 28.363C147.605 33.0215 166.731 41.4556 175.459 56.412L178.914 54.3959C169.323 37.9597 148.768 29.1917 131.043 24.4964C113.209 19.7725 97.5651 19 96.9821 19V23ZM96.2531 23.1757C96.2111 23.2135 96.2039 23.2095 96.2578 23.1814C96.3069 23.1559 96.3813 23.1237 96.4774 23.0926C96.6839 23.0259 96.8775 23 96.9821 23V19C96.3977 19 95.7873 19.112 95.2473 19.2865C94.7295 19.4539 94.0939 19.7373 93.5766 20.2031L96.2531 23.1757ZM96.2531 21.7197C96.3718 21.8265 96.5703 22.0999 96.5703 22.4994C96.5703 22.8478 96.418 23.0097 96.4516 22.9694L93.3782 20.4093C92.9523 20.9206 92.5703 21.6339 92.5703 22.4994C92.5703 23.4159 92.9985 24.1718 93.5766 24.6923L96.2531 21.7197ZM108.607 56.5956C110.002 51.7256 110.421 46.1085 108.692 40.1117C106.963 34.1148 103.128 27.8831 96.2499 21.7168L93.5798 24.6952C100.001 30.4518 103.362 36.0651 104.848 41.2197C106.334 46.3743 105.987 51.2152 104.762 55.4939L108.607 56.5956Z" fill="#5382DE" mask="url(#path-3-inside-2)"/>
</g>
<g filter="url(#filter1_f)">
<path fill-rule="evenodd" clip-rule="evenodd" d="M202.375 87.0897C202.375 63.944 175.083 45.1807 141.416 45.1807C125.084 45.1807 110.252 49.5964 99.3084 56.786L21.0233 87.0891L99.3039 117.391C110.248 124.582 125.082 128.999 141.416 128.999C175.083 128.999 202.375 110.235 202.375 87.0897Z" fill="#5382DE"/>
</g>
<g filter="url(#filter2_i)">
<path fill-rule="evenodd" clip-rule="evenodd" d="M202.375 87.0897C202.375 63.944 175.083 45.1807 141.416 45.1807C129.366 45.1807 118.133 47.5844 108.675 51.7326L108.675 51.6294L17.9992 86.9668L106.604 121.497C116.474 126.226 128.474 128.999 141.416 128.999C175.083 128.999 202.375 110.235 202.375 87.0897Z" fill="#5382DE" fill-opacity="0.7"/>
</g>
<path fill-rule="evenodd" clip-rule="evenodd" d="M106.684 56.0448C116.079 50.8285 128.68 47.6374 142.53 47.6374C155.805 47.6374 167.931 50.5684 177.187 55.4039C158.867 24.0113 97.8242 21 96.9821 21C96.293 21 95.3743 21.2757 94.9149 21.6894C94.4555 22.2409 94.4555 22.7924 94.9149 23.206C108.215 35.1289 109.305 46.896 106.684 56.0448Z" fill="#5382DE" fill-opacity="0.7"/>
<defs>
<filter id="filter0_f" x="73.5703" y="0" width="124.616" height="77.0448" filterUnits="userSpaceOnUse" color-interpolation-filters="sRGB">
<feFlood flood-opacity="0" result="BackgroundImageFix"/>
<feBlend mode="normal" in="SourceGraphic" in2="BackgroundImageFix" result="shape"/>
<feGaussianBlur stdDeviation="10.5" result="effect1_foregroundBlur"/>
</filter>
<filter id="filter1_f" x="0.0234375" y="24.1807" width="223.352" height="125.818" filterUnits="userSpaceOnUse" color-interpolation-filters="sRGB">
<feFlood flood-opacity="0" result="BackgroundImageFix"/>
<feBlend mode="normal" in="SourceGraphic" in2="BackgroundImageFix" result="shape"/>
<feGaussianBlur stdDeviation="10.5" result="effect1_foregroundBlur"/>
</filter>
<filter id="filter2_i" x="18" y="45.1807" width="184.376" height="87.8181" filterUnits="userSpaceOnUse" color-interpolation-filters="sRGB">
<feFlood flood-opacity="0" result="BackgroundImageFix"/>
<feBlend mode="normal" in="SourceGraphic" in2="BackgroundImageFix" result="shape"/>
<feColorMatrix in="SourceAlpha" type="matrix" values="0 0 0 0 0 0 0 0 0 0 0 0 0 0 0 0 0 0 127 0" result="hardAlpha"/>
<feOffset dy="4"/>
<feGaussianBlur stdDeviation="10.5"/>
<feComposite in2="hardAlpha" operator="arithmetic" k2="-1" k3="1"/>
<feColorMatrix type="matrix" values="0 0 0 0 0 0 0 0 0 0 0 0 0 0 0 0 0 0 0.25 0"/>
<feBlend mode="normal" in2="shape" result="effect1_innerShadow"/>
</filter>
</defs>
</svg>
