<svg width="191" height="107" viewBox="0 0 191 107" fill="none" xmlns="http://www.w3.org/2000/svg">
<g opacity="0.4">
<mask id="path-1-inside-1" fill="white">
<path fill-rule="evenodd" clip-rule="evenodd" d="M180 54.5966C180 31.6235 152.911 13 119.496 13C103.286 13 88.5643 17.3827 77.7021 24.5186L5.92169e-05 54.596L77.6975 84.6717C88.5601 91.8093 103.283 96.1933 119.496 96.1933C152.911 96.1933 180 77.5698 180 54.5966Z"/>
</mask>
<path fill-rule="evenodd" clip-rule="evenodd" d="M180 54.5966C180 31.6235 152.911 13 119.496 13C103.286 13 88.5643 17.3827 77.7021 24.5186L5.92169e-05 54.596L77.6975 84.6717C88.5601 91.8093 103.283 96.1933 119.496 96.1933C152.911 96.1933 180 77.5698 180 54.5966Z" fill="#5382DE" fill-opacity="0.14"/>
<path d="M119.496 13L119.496 14L119.496 13ZM180 54.5966L181 54.5966L180 54.5966ZM77.7021 24.5186L78.0631 25.4511L78.1623 25.4127L78.2511 25.3543L77.7021 24.5186ZM5.92169e-05 54.596L-0.360933 53.6634L-2.77013 54.596L-0.360933 55.5286L5.92169e-05 54.596ZM77.6975 84.6717L78.2466 83.836L78.1577 83.7775L78.0585 83.7391L77.6975 84.6717ZM119.496 12C118.565 12 117.639 12.0143 116.718 12.0426L116.779 14.0416C117.68 14.014 118.585 14 119.496 14L119.496 12ZM111.173 12.3859C109.307 12.5604 107.468 12.7926 105.659 13.08L105.973 15.0553C107.739 14.7746 109.536 14.5477 111.359 14.3773L111.173 12.3859ZM100.201 14.134C98.3689 14.5519 96.5751 15.0278 94.8236 15.5586L95.4036 17.4727C97.11 16.9555 98.8587 16.4916 100.646 16.0838L100.201 14.134ZM89.5586 17.3675C87.7988 18.0467 86.0917 18.7843 84.4429 19.5766L85.309 21.3793C86.909 20.6105 88.5673 19.8939 90.2788 19.2333L89.5586 17.3675ZM79.5223 22.2049C78.7143 22.6833 77.9243 23.1761 77.153 23.6828L78.2511 25.3543C78.996 24.865 79.7596 24.3887 80.5413 23.9258L79.5223 22.2049ZM77.3411 23.586L74.566 24.6602L75.288 26.5253L78.0631 25.4511L77.3411 23.586ZM69.0159 26.8086L63.4657 28.957L64.1877 30.8221L69.7379 28.6737L69.0159 26.8086ZM57.9156 31.1054L52.3654 33.2537L53.0874 35.1189L58.6376 32.9705L57.9156 31.1054ZM46.8153 35.4021L41.2652 37.5505L41.9871 39.4157L47.5373 37.2673L46.8153 35.4021ZM35.715 39.6989L30.1649 41.8473L30.8868 43.7124L36.437 41.5641L35.715 39.6989ZM24.6147 43.9957L19.0646 46.1441L19.7866 48.0092L25.3367 45.8608L24.6147 43.9957ZM13.5144 48.2925L7.96429 50.4409L8.68626 52.306L14.2364 50.1576L13.5144 48.2925ZM2.41415 52.5892L-0.360933 53.6634L0.361036 55.5286L3.13612 54.4544L2.41415 52.5892ZM-0.360933 55.5286L2.41398 56.6027L3.13595 54.7376L0.361036 53.6634L-0.360933 55.5286ZM7.96379 58.751L13.5136 60.8992L14.2356 59.0341L8.68577 56.8858L7.96379 58.751ZM19.0634 63.0475L24.6132 65.1958L25.3352 63.3306L19.7854 61.1824L19.0634 63.0475ZM30.1631 67.344L35.7129 69.4923L36.4349 67.6271L30.885 65.4789L30.1631 67.344ZM41.2627 71.6405L46.8125 73.7888L47.5345 71.9237L41.9847 69.7754L41.2627 71.6405ZM52.3623 75.9371L57.9122 78.0853L58.6341 76.2202L53.0843 74.0719L52.3623 75.9371ZM63.462 80.2336L69.0118 82.3819L69.7338 80.5167L64.1839 78.3684L63.462 80.2336ZM74.5616 84.5301L77.3365 85.6043L78.0585 83.7391L75.2836 82.665L74.5616 84.5301ZM77.1484 85.5074C77.9197 86.0142 78.7098 86.5072 79.5178 86.9857L80.5369 85.2649C79.7552 84.8019 78.9915 84.3254 78.2466 83.836L77.1484 85.5074ZM84.4388 89.6147C86.0878 90.4072 87.7951 91.145 89.5551 91.8244L90.2754 89.9586C88.5637 89.2978 86.9052 88.581 85.3051 87.8121L84.4388 89.6147ZM94.8206 93.6337C96.5723 94.1647 98.3663 94.6407 100.198 95.0588L100.643 93.1089C98.8562 92.7011 97.1072 92.237 95.4007 91.7197L94.8206 93.6337ZM105.657 96.1129C107.466 96.4004 109.306 96.6327 111.172 96.8072L111.358 94.8159C109.535 94.6454 107.738 94.4185 105.971 94.1377L105.657 96.1129ZM116.718 97.1507C117.639 97.179 118.565 97.1933 119.496 97.1933L119.496 95.1933C118.585 95.1933 117.68 95.1793 116.779 95.1516L116.718 97.1507ZM119.496 97.1933C120.475 97.1933 121.449 97.1774 122.418 97.1461L122.353 95.1472C121.406 95.1778 120.454 95.1933 119.496 95.1933L119.496 97.1933ZM128.249 96.766C130.212 96.5727 132.145 96.3154 134.044 95.9971L133.713 94.0246C131.859 94.3354 129.971 94.5868 128.053 94.7756L128.249 96.766ZM139.773 94.8288C141.696 94.3649 143.575 93.8368 145.406 93.2481L144.794 91.3441C143.011 91.9174 141.179 92.4322 139.304 92.8846L139.773 94.8288ZM150.905 91.2392C152.741 90.4834 154.517 89.6631 156.224 88.7824L155.308 87.0048C153.652 87.8586 151.929 88.6551 150.143 89.3896L150.905 91.2392ZM161.314 85.8509C162.996 84.7714 164.592 83.6267 166.093 82.422L164.841 80.8623C163.397 82.021 161.859 83.1248 160.234 84.1678L161.314 85.8509ZM170.462 78.4711C171.867 77.0335 173.151 75.5313 174.301 73.9712L172.691 72.7844C171.599 74.2661 170.376 75.698 169.032 77.0729L170.462 78.4711ZM177.437 68.9385C178.354 67.156 179.107 65.3163 179.68 63.4282L177.766 62.8473C177.23 64.615 176.524 66.343 175.659 68.023L177.437 68.9385ZM180.852 57.5818C180.95 56.5955 181 55.6 181 54.5966L179 54.5966C179 55.5335 178.953 56.4628 178.862 57.3835L180.852 57.5818ZM181 54.5966C181 53.5933 180.95 52.5978 180.852 51.6114L178.862 51.8098C178.953 52.7305 179 53.6598 179 54.5966L181 54.5966ZM179.68 45.7651C179.107 43.877 178.354 42.0372 177.437 40.2548L175.659 41.1703C176.524 42.8503 177.23 44.5783 177.766 46.346L179.68 45.7651ZM174.301 35.222C173.151 33.662 171.867 32.1597 170.462 30.7222L169.032 32.1203C170.376 33.4952 171.599 34.9272 172.691 36.4089L174.301 35.222ZM166.093 26.7712C164.592 25.5666 162.996 24.4218 161.314 23.3423L160.234 25.0255C161.859 26.0685 163.397 27.1722 164.841 28.3309L166.093 26.7712ZM156.224 20.4109C154.517 19.5302 152.741 18.7098 150.905 17.9541L150.143 19.8036C151.929 20.5382 153.652 21.3347 155.308 22.1884L156.224 20.4109ZM145.406 15.9452C143.575 15.3565 141.696 14.8284 139.773 14.3645L139.304 16.3087C141.179 16.7611 143.011 17.2758 144.794 17.8492L145.406 15.9452ZM134.044 13.1961C132.145 12.8779 130.212 12.6205 128.249 12.4272L128.053 14.4176C129.971 14.6065 131.859 14.8579 133.713 15.1686L134.044 13.1961ZM122.418 12.0471C121.449 12.0158 120.475 12 119.496 12L119.496 14C120.454 14 121.406 14.0155 122.353 14.0461L122.418 12.0471ZM119.496 13L119.496 15L119.496 13ZM180 54.5966L182 54.5966L180 54.5966ZM77.7021 24.5186L78.4241 26.3837L78.6224 26.3069L78.8002 26.1901L77.7021 24.5186ZM5.92169e-05 54.596L-0.72191 52.7309L-5.54032 54.596L-0.72191 56.4612L5.92169e-05 54.596ZM77.6975 84.6717L78.7958 83.0002L78.6179 82.8834L78.4195 82.8065L77.6975 84.6717ZM119.496 11C118.555 11 117.618 11.0144 116.687 11.0431L116.81 15.0412C117.7 15.0138 118.596 15 119.496 15L119.496 11ZM111.08 11.3903C109.193 11.5667 107.332 11.8016 105.502 12.0924L106.13 16.0429C107.875 15.7656 109.65 15.5414 111.452 15.3729L111.08 11.3903ZM99.9781 13.159C98.124 13.5821 96.3076 14.064 94.5335 14.6016L95.6937 18.4297C97.3774 17.9194 99.1037 17.4614 100.868 17.0588L99.9781 13.159ZM89.1985 16.4346C87.4146 17.1232 85.6831 17.8712 84.0098 18.6752L85.7421 22.2806C87.3176 21.5236 88.9516 20.8175 90.6389 20.1662L89.1985 16.4346ZM79.0128 21.3444C78.1917 21.8306 77.3884 22.3316 76.604 22.847L78.8002 26.1901C79.5318 25.7095 80.2823 25.2414 81.0508 24.7863L79.0128 21.3444ZM76.9801 22.6534L74.205 23.7276L75.649 27.4579L78.4241 26.3837L76.9801 22.6534ZM68.6549 25.876L63.1048 28.0244L64.5487 31.7547L70.0988 29.6063L68.6549 25.876ZM57.5546 30.1728L52.0045 32.3212L53.4484 36.0515L58.9985 33.9031L57.5546 30.1728ZM46.4543 34.4696L40.9042 36.6179L42.3481 40.3482L47.8983 38.1998L46.4543 34.4696ZM35.354 38.7663L29.8039 40.9147L31.2478 44.645L36.798 42.4966L35.354 38.7663ZM24.2537 43.0631L18.7036 45.2115L20.1475 48.9418L25.6977 46.7934L24.2537 43.0631ZM13.1535 47.3599L7.6033 49.5083L9.04725 53.2386L14.5974 51.0902L13.1535 47.3599ZM2.05316 51.6567L-0.72191 52.7309L0.722029 56.4612L3.4971 55.387L2.05316 51.6567ZM-0.72191 56.4612L2.05299 57.5353L3.49693 53.805L0.722029 52.7309L-0.72191 56.4612ZM7.60281 59.6835L13.1526 61.8318L14.5966 58.1015L9.04675 55.9533L7.60281 59.6835ZM18.7025 63.9801L24.2523 66.1283L25.6962 62.398L20.1464 60.2498L18.7025 63.9801ZM29.8021 68.2766L35.3519 70.4249L36.7958 66.6946L31.246 64.5463L29.8021 68.2766ZM40.9017 72.5731L46.4515 74.7214L47.8955 70.9911L42.3457 68.8428L40.9017 72.5731ZM52.0013 76.8696L57.5512 79.0179L58.9951 75.2876L53.4453 73.1394L52.0013 76.8696ZM63.101 81.1662L68.6508 83.3144L70.0947 79.5841L64.5449 77.4359L63.101 81.1662ZM74.2006 85.4627L76.9755 86.5368L78.4195 82.8065L75.6446 81.7324L74.2006 85.4627ZM76.5992 86.3431C77.3838 86.8586 78.1871 87.3598 79.0083 87.8461L81.0465 84.4044C80.2779 83.9492 79.5274 83.481 78.7958 83.0002L76.5992 86.3431ZM84.0056 90.516C85.6791 91.3203 87.4107 92.0685 89.1949 92.7573L90.6355 89.0257C88.948 88.3743 87.3139 87.668 85.7382 86.9108L84.0056 90.516ZM94.5305 94.5907C96.3048 95.1285 98.1214 95.6105 99.9757 96.0337L100.866 92.1339C99.1012 91.7313 97.3747 91.2731 95.6908 90.7627L94.5305 94.5907ZM105.5 97.1005C107.331 97.3914 109.191 97.6264 111.078 97.8029L111.451 93.8203C109.649 93.6517 107.873 93.4275 106.128 93.1501L105.5 97.1005ZM116.687 98.1502C117.618 98.1788 118.555 98.1933 119.496 98.1933L119.496 94.1933C118.595 94.1933 117.7 94.1794 116.81 94.1521L116.687 98.1502ZM119.496 98.1933C120.486 98.1933 121.471 98.1773 122.45 98.1456L122.321 94.1477C121.385 94.178 120.443 94.1933 119.496 94.1933L119.496 98.1933ZM128.347 97.7612C130.332 97.5657 132.288 97.3054 134.209 96.9834L133.548 93.0384C131.716 93.3454 129.851 93.5938 127.955 93.7805L128.347 97.7612ZM140.008 95.8009C141.954 95.3313 143.857 94.7965 145.712 94.2001L144.487 90.3921C142.728 90.9577 140.921 91.4658 139.069 91.9125L140.008 95.8009ZM151.285 92.1639C153.147 91.3976 154.949 90.5653 156.683 89.6712L154.849 86.1161C153.22 86.9564 151.522 87.7409 149.763 88.4649L151.285 92.1639ZM161.854 86.6925C163.565 85.5947 165.189 84.4295 166.719 83.2019L164.215 80.0825C162.8 81.2182 161.291 82.3014 159.694 83.3262L161.854 86.6925ZM171.177 79.1702C172.613 77.7013 173.927 76.1639 175.106 74.5647L171.887 72.1909C170.823 73.6334 169.63 75.0303 168.317 76.3739L171.177 79.1702ZM178.326 69.3963C179.27 67.5625 180.046 65.6669 180.637 63.7187L176.81 62.5568C176.291 64.2644 175.608 65.9365 174.77 67.5652L178.326 69.3963ZM181.847 57.681C181.948 56.6618 182 55.6332 182 54.5966L178 54.5966C178 55.5003 177.955 56.3964 177.867 57.2843L181.847 57.681ZM182 54.5966C182 53.56 181.948 52.5315 181.847 51.5123L177.867 51.909C177.955 52.7968 178 53.693 178 54.5966L182 54.5966ZM180.637 45.4746C180.046 43.5263 179.27 41.6307 178.326 39.797L174.77 41.6281C175.608 43.2568 176.291 44.9289 176.81 46.6365L180.637 45.4746ZM175.106 34.6286C173.927 33.0294 172.613 31.492 171.177 30.0231L168.317 32.8194C169.63 34.163 170.823 35.5598 171.887 37.0023L175.106 34.6286ZM166.719 25.9914C165.189 24.7638 163.565 23.5985 161.854 22.5008L159.694 25.8671C161.291 26.8918 162.8 27.9751 164.215 29.1108L166.719 25.9914ZM156.683 19.5221C154.949 18.628 153.147 17.7957 151.285 17.0293L149.763 20.7284C151.522 21.4524 153.22 22.2369 154.849 23.0772L156.683 19.5221ZM145.712 14.9932C143.857 14.3968 141.954 13.862 140.008 13.3924L139.069 17.2808C140.921 17.7275 142.728 18.2355 144.487 18.8012L145.712 14.9932ZM134.209 12.2099C132.288 11.8879 130.332 11.6275 128.347 11.4321L127.955 15.4128C129.851 15.5995 131.716 15.8479 133.548 16.1549L134.209 12.2099ZM122.45 11.0476C121.471 11.016 120.486 11 119.496 11L119.496 15C120.443 15 121.385 15.0153 122.321 15.0456L122.45 11.0476Z" fill="#5382DE" mask="url(#path-1-inside-1)"/>
</g>
<g filter="url(#filter0_f)">
<path fill-rule="evenodd" clip-rule="evenodd" d="M170 53.0498C170 35.3492 149.128 21 123.382 21C110.892 21 99.5492 24.377 91.18 29.8753L31.3121 53.0494L91.1771 76.2223C99.5467 81.7218 110.891 85.0995 123.382 85.0995C149.128 85.0995 170 70.7504 170 53.0498Z" fill="#5382DE"/>
</g>
<g filter="url(#filter1_i)">
<path fill-rule="evenodd" clip-rule="evenodd" d="M170 53.0498C170 35.3492 149.128 21 123.382 21C114.168 21 105.577 22.838 98.3449 26.0099L98.3449 25.9311L29.0009 52.9553L96.7482 79.3572C104.298 82.9768 113.48 85.0995 123.382 85.0995C149.128 85.0995 170 70.7504 170 53.0498Z" fill="#5382DE" fill-opacity="0.7"/>
</g>
<defs>
<filter id="filter0_f" x="10.3125" y="0" width="180.688" height="106.1" filterUnits="userSpaceOnUse" color-interpolation-filters="sRGB">
<feFlood flood-opacity="0" result="BackgroundImageFix"/>
<feBlend mode="normal" in="SourceGraphic" in2="BackgroundImageFix" result="shape"/>
<feGaussianBlur stdDeviation="10.5" result="effect1_foregroundBlur"/>
</filter>
<filter id="filter1_i" x="29" y="21" width="140.999" height="68.0995" filterUnits="userSpaceOnUse" color-interpolation-filters="sRGB">
<feFlood flood-opacity="0" result="BackgroundImageFix"/>
<feBlend mode="normal" in="SourceGraphic" in2="BackgroundImageFix" result="shape"/>
<feColorMatrix in="SourceAlpha" type="matrix" values="0 0 0 0 0 0 0 0 0 0 0 0 0 0 0 0 0 0 127 0" result="hardAlpha"/>
<feOffset dy="4"/>
<feGaussianBlur stdDeviation="10.5"/>
<feComposite in2="hardAlpha" operator="arithmetic" k2="-1" k3="1"/>
<feColorMatrix type="matrix" values="0 0 0 0 0 0 0 0 0 0 0 0 0 0 0 0 0 0 0.25 0"/>
<feBlend mode="normal" in2="shape" result="effect1_innerShadow"/>
</filter>
</defs>
</svg>
