<svg width="191" height="125" viewBox="0 0 191 125" fill="none" xmlns="http://www.w3.org/2000/svg">
<g opacity="0.4">
<mask id="path-1-inside-1" fill="white">
<path fill-rule="evenodd" clip-rule="evenodd" d="M180 72.5966C180 49.6235 152.911 31 119.496 31C103.286 31 88.5643 35.3827 77.7021 42.5186L5.92169e-05 72.596L77.6975 102.672C88.5601 109.809 103.283 114.193 119.496 114.193C152.911 114.193 180 95.5698 180 72.5966Z"/>
</mask>
<path fill-rule="evenodd" clip-rule="evenodd" d="M180 72.5966C180 49.6235 152.911 31 119.496 31C103.286 31 88.5643 35.3827 77.7021 42.5186L5.92169e-05 72.596L77.6975 102.672C88.5601 109.809 103.283 114.193 119.496 114.193C152.911 114.193 180 95.5698 180 72.5966Z" fill="#5382DE" fill-opacity="0.14"/>
<path d="M119.496 31L119.496 32L119.496 31ZM180 72.5966L181 72.5966L180 72.5966ZM77.7021 42.5186L78.0631 43.4511L78.1623 43.4127L78.2511 43.3543L77.7021 42.5186ZM5.92169e-05 72.596L-0.360933 71.6634L-2.77013 72.596L-0.360933 73.5286L5.92169e-05 72.596ZM77.6975 102.672L78.2466 101.836L78.1577 101.778L78.0585 101.739L77.6975 102.672ZM119.496 30C118.565 30 117.639 30.0143 116.718 30.0426L116.779 32.0416C117.68 32.014 118.585 32 119.496 32L119.496 30ZM111.173 30.3859C109.307 30.5604 107.468 30.7926 105.659 31.08L105.973 33.0553C107.739 32.7746 109.536 32.5477 111.359 32.3773L111.173 30.3859ZM100.201 32.134C98.3689 32.5519 96.5751 33.0278 94.8236 33.5586L95.4036 35.4727C97.11 34.9555 98.8587 34.4916 100.646 34.0838L100.201 32.134ZM89.5586 35.3675C87.7988 36.0467 86.0917 36.7843 84.4429 37.5766L85.309 39.3793C86.909 38.6105 88.5673 37.8939 90.2788 37.2333L89.5586 35.3675ZM79.5223 40.2049C78.7143 40.6833 77.9243 41.1761 77.153 41.6828L78.2511 43.3543C78.996 42.865 79.7596 42.3887 80.5413 41.9258L79.5223 40.2049ZM77.3411 41.586L74.566 42.6602L75.288 44.5253L78.0631 43.4511L77.3411 41.586ZM69.0159 44.8086L63.4657 46.957L64.1877 48.8221L69.7379 46.6737L69.0159 44.8086ZM57.9156 49.1054L52.3654 51.2537L53.0874 53.1189L58.6376 50.9705L57.9156 49.1054ZM46.8153 53.4021L41.2652 55.5505L41.9871 57.4157L47.5373 55.2673L46.8153 53.4021ZM35.715 57.6989L30.1649 59.8473L30.8868 61.7124L36.437 59.5641L35.715 57.6989ZM24.6147 61.9957L19.0646 64.1441L19.7866 66.0092L25.3367 63.8608L24.6147 61.9957ZM13.5144 66.2925L7.96429 68.4409L8.68626 70.306L14.2364 68.1576L13.5144 66.2925ZM2.41415 70.5892L-0.360933 71.6634L0.361036 73.5286L3.13612 72.4544L2.41415 70.5892ZM-0.360933 73.5286L2.41398 74.6027L3.13595 72.7376L0.361036 71.6634L-0.360933 73.5286ZM7.96379 76.751L13.5136 78.8992L14.2356 77.0341L8.68577 74.8858L7.96379 76.751ZM19.0634 81.0475L24.6132 83.1958L25.3352 81.3306L19.7854 79.1824L19.0634 81.0475ZM30.1631 85.344L35.7129 87.4923L36.4349 85.6271L30.885 83.4789L30.1631 85.344ZM41.2627 89.6405L46.8125 91.7888L47.5345 89.9237L41.9847 87.7754L41.2627 89.6405ZM52.3623 93.9371L57.9122 96.0853L58.6341 94.2202L53.0843 92.0719L52.3623 93.9371ZM63.462 98.2336L69.0118 100.382L69.7338 98.5167L64.1839 96.3684L63.462 98.2336ZM74.5616 102.53L77.3365 103.604L78.0585 101.739L75.2836 100.665L74.5616 102.53ZM77.1484 103.507C77.9197 104.014 78.7098 104.507 79.5178 104.986L80.5369 103.265C79.7552 102.802 78.9915 102.325 78.2466 101.836L77.1484 103.507ZM84.4388 107.615C86.0878 108.407 87.7951 109.145 89.5551 109.824L90.2754 107.959C88.5637 107.298 86.9052 106.581 85.3051 105.812L84.4388 107.615ZM94.8206 111.634C96.5723 112.165 98.3663 112.641 100.198 113.059L100.643 111.109C98.8562 110.701 97.1072 110.237 95.4007 109.72L94.8206 111.634ZM105.657 114.113C107.466 114.4 109.306 114.633 111.172 114.807L111.358 112.816C109.535 112.645 107.738 112.418 105.971 112.138L105.657 114.113ZM116.718 115.151C117.639 115.179 118.565 115.193 119.496 115.193L119.496 113.193C118.585 113.193 117.68 113.179 116.779 113.152L116.718 115.151ZM119.496 115.193C120.475 115.193 121.449 115.177 122.418 115.146L122.353 113.147C121.406 113.178 120.454 113.193 119.496 113.193L119.496 115.193ZM128.249 114.766C130.212 114.573 132.145 114.315 134.044 113.997L133.713 112.025C131.859 112.335 129.971 112.587 128.053 112.776L128.249 114.766ZM139.773 112.829C141.696 112.365 143.575 111.837 145.406 111.248L144.794 109.344C143.011 109.917 141.179 110.432 139.304 110.885L139.773 112.829ZM150.905 109.239C152.741 108.483 154.517 107.663 156.224 106.782L155.308 105.005C153.652 105.859 151.929 106.655 150.143 107.39L150.905 109.239ZM161.314 103.851C162.996 102.771 164.592 101.627 166.093 100.422L164.841 98.8623C163.397 100.021 161.859 101.125 160.234 102.168L161.314 103.851ZM170.462 96.4711C171.867 95.0335 173.151 93.5313 174.301 91.9712L172.691 90.7844C171.599 92.2661 170.376 93.698 169.032 95.0729L170.462 96.4711ZM177.437 86.9385C178.354 85.156 179.107 83.3163 179.68 81.4282L177.766 80.8473C177.23 82.615 176.524 84.343 175.659 86.023L177.437 86.9385ZM180.852 75.5818C180.95 74.5955 181 73.6 181 72.5966L179 72.5966C179 73.5335 178.953 74.4628 178.862 75.3835L180.852 75.5818ZM181 72.5966C181 71.5933 180.95 70.5978 180.852 69.6114L178.862 69.8098C178.953 70.7305 179 71.6598 179 72.5966L181 72.5966ZM179.68 63.7651C179.107 61.877 178.354 60.0372 177.437 58.2548L175.659 59.1703C176.524 60.8503 177.23 62.5783 177.766 64.346L179.68 63.7651ZM174.301 53.222C173.151 51.662 171.867 50.1597 170.462 48.7222L169.032 50.1203C170.376 51.4952 171.599 52.9272 172.691 54.4089L174.301 53.222ZM166.093 44.7712C164.592 43.5666 162.996 42.4218 161.314 41.3423L160.234 43.0255C161.859 44.0685 163.397 45.1722 164.841 46.3309L166.093 44.7712ZM156.224 38.4109C154.517 37.5302 152.741 36.7098 150.905 35.9541L150.143 37.8036C151.929 38.5382 153.652 39.3347 155.308 40.1884L156.224 38.4109ZM145.406 33.9452C143.575 33.3565 141.696 32.8284 139.773 32.3645L139.304 34.3087C141.179 34.7611 143.011 35.2758 144.794 35.8492L145.406 33.9452ZM134.044 31.1961C132.145 30.8779 130.212 30.6205 128.249 30.4272L128.053 32.4176C129.971 32.6065 131.859 32.8579 133.713 33.1686L134.044 31.1961ZM122.418 30.0471C121.449 30.0158 120.475 30 119.496 30L119.496 32C120.454 32 121.406 32.0155 122.353 32.0461L122.418 30.0471ZM119.496 31L119.496 33L119.496 31ZM180 72.5966L182 72.5966L180 72.5966ZM77.7021 42.5186L78.4241 44.3837L78.6224 44.3069L78.8002 44.1901L77.7021 42.5186ZM5.92169e-05 72.596L-0.72191 70.7309L-5.54032 72.596L-0.72191 74.4612L5.92169e-05 72.596ZM77.6975 102.672L78.7958 101L78.6179 100.883L78.4195 100.807L77.6975 102.672ZM119.496 29C118.555 29 117.618 29.0144 116.687 29.0431L116.81 33.0412C117.7 33.0138 118.596 33 119.496 33L119.496 29ZM111.08 29.3903C109.193 29.5667 107.332 29.8016 105.502 30.0924L106.13 34.0429C107.875 33.7656 109.65 33.5414 111.452 33.3729L111.08 29.3903ZM99.9781 31.159C98.124 31.5821 96.3076 32.064 94.5335 32.6016L95.6937 36.4297C97.3774 35.9194 99.1037 35.4614 100.868 35.0588L99.9781 31.159ZM89.1985 34.4346C87.4146 35.1232 85.6831 35.8712 84.0098 36.6752L85.7421 40.2806C87.3176 39.5236 88.9516 38.8175 90.6389 38.1662L89.1985 34.4346ZM79.0128 39.3444C78.1917 39.8306 77.3884 40.3316 76.604 40.847L78.8002 44.1901C79.5318 43.7095 80.2823 43.2414 81.0508 42.7863L79.0128 39.3444ZM76.9801 40.6534L74.205 41.7276L75.649 45.4579L78.4241 44.3837L76.9801 40.6534ZM68.6549 43.876L63.1048 46.0244L64.5487 49.7547L70.0988 47.6063L68.6549 43.876ZM57.5546 48.1728L52.0045 50.3212L53.4484 54.0515L58.9985 51.9031L57.5546 48.1728ZM46.4543 52.4696L40.9042 54.6179L42.3481 58.3482L47.8983 56.1998L46.4543 52.4696ZM35.354 56.7663L29.8039 58.9147L31.2478 62.645L36.798 60.4966L35.354 56.7663ZM24.2537 61.0631L18.7036 63.2115L20.1475 66.9418L25.6977 64.7934L24.2537 61.0631ZM13.1535 65.3599L7.6033 67.5083L9.04725 71.2386L14.5974 69.0902L13.1535 65.3599ZM2.05316 69.6567L-0.72191 70.7309L0.722029 74.4612L3.4971 73.387L2.05316 69.6567ZM-0.72191 74.4612L2.05299 75.5353L3.49693 71.805L0.722029 70.7309L-0.72191 74.4612ZM7.60281 77.6835L13.1526 79.8318L14.5966 76.1015L9.04675 73.9533L7.60281 77.6835ZM18.7025 81.9801L24.2523 84.1283L25.6962 80.398L20.1464 78.2498L18.7025 81.9801ZM29.8021 86.2766L35.3519 88.4249L36.7958 84.6946L31.246 82.5463L29.8021 86.2766ZM40.9017 90.5731L46.4515 92.7214L47.8955 88.9911L42.3457 86.8428L40.9017 90.5731ZM52.0013 94.8696L57.5512 97.0179L58.9951 93.2876L53.4453 91.1394L52.0013 94.8696ZM63.101 99.1662L68.6508 101.314L70.0947 97.5841L64.5449 95.4359L63.101 99.1662ZM74.2006 103.463L76.9755 104.537L78.4195 100.807L75.6446 99.7324L74.2006 103.463ZM76.5992 104.343C77.3838 104.859 78.1871 105.36 79.0083 105.846L81.0465 102.404C80.2779 101.949 79.5274 101.481 78.7958 101L76.5992 104.343ZM84.0056 108.516C85.6791 109.32 87.4107 110.069 89.1949 110.757L90.6355 107.026C88.948 106.374 87.3139 105.668 85.7382 104.911L84.0056 108.516ZM94.5305 112.591C96.3048 113.129 98.1214 113.611 99.9757 114.034L100.866 110.134C99.1012 109.731 97.3747 109.273 95.6908 108.763L94.5305 112.591ZM105.5 115.101C107.331 115.391 109.191 115.626 111.078 115.803L111.451 111.82C109.649 111.652 107.873 111.427 106.128 111.15L105.5 115.101ZM116.687 116.15C117.618 116.179 118.555 116.193 119.496 116.193L119.496 112.193C118.595 112.193 117.7 112.179 116.81 112.152L116.687 116.15ZM119.496 116.193C120.486 116.193 121.471 116.177 122.45 116.146L122.321 112.148C121.385 112.178 120.443 112.193 119.496 112.193L119.496 116.193ZM128.347 115.761C130.332 115.566 132.288 115.305 134.209 114.983L133.548 111.038C131.716 111.345 129.851 111.594 127.955 111.78L128.347 115.761ZM140.008 113.801C141.954 113.331 143.857 112.796 145.712 112.2L144.487 108.392C142.728 108.958 140.921 109.466 139.069 109.912L140.008 113.801ZM151.285 110.164C153.147 109.398 154.949 108.565 156.683 107.671L154.849 104.116C153.22 104.956 151.522 105.741 149.763 106.465L151.285 110.164ZM161.854 104.693C163.565 103.595 165.189 102.43 166.719 101.202L164.215 98.0825C162.8 99.2182 161.291 100.301 159.694 101.326L161.854 104.693ZM171.177 97.1702C172.613 95.7013 173.927 94.1639 175.106 92.5647L171.887 90.1909C170.823 91.6334 169.63 93.0303 168.317 94.3739L171.177 97.1702ZM178.326 87.3963C179.27 85.5625 180.046 83.6669 180.637 81.7187L176.81 80.5568C176.291 82.2644 175.608 83.9365 174.77 85.5652L178.326 87.3963ZM181.847 75.681C181.948 74.6618 182 73.6332 182 72.5966L178 72.5966C178 73.5003 177.955 74.3964 177.867 75.2843L181.847 75.681ZM182 72.5966C182 71.56 181.948 70.5315 181.847 69.5123L177.867 69.909C177.955 70.7968 178 71.693 178 72.5966L182 72.5966ZM180.637 63.4746C180.046 61.5263 179.27 59.6307 178.326 57.797L174.77 59.6281C175.608 61.2568 176.291 62.9289 176.81 64.6365L180.637 63.4746ZM175.106 52.6286C173.927 51.0294 172.613 49.492 171.177 48.0231L168.317 50.8194C169.63 52.163 170.823 53.5598 171.887 55.0023L175.106 52.6286ZM166.719 43.9914C165.189 42.7638 163.565 41.5985 161.854 40.5008L159.694 43.8671C161.291 44.8918 162.8 45.9751 164.215 47.1108L166.719 43.9914ZM156.683 37.5221C154.949 36.628 153.147 35.7957 151.285 35.0293L149.763 38.7284C151.522 39.4524 153.22 40.2369 154.849 41.0772L156.683 37.5221ZM145.712 32.9932C143.857 32.3968 141.954 31.862 140.008 31.3924L139.069 35.2808C140.921 35.7275 142.728 36.2355 144.487 36.8012L145.712 32.9932ZM134.209 30.2099C132.288 29.8879 130.332 29.6275 128.347 29.4321L127.955 33.4128C129.851 33.5995 131.716 33.8479 133.548 34.1549L134.209 30.2099ZM122.45 29.0476C121.471 29.016 120.486 29 119.496 29L119.496 33C120.443 33 121.385 33.0153 122.321 33.0456L122.45 29.0476Z" fill="#5382DE" mask="url(#path-1-inside-1)"/>
</g>
<g filter="url(#filter0_f)">
<mask id="path-3-inside-2" fill="white">
<path fill-rule="evenodd" clip-rule="evenodd" d="M96.8204 47.8011C104.005 43.8119 113.641 41.3714 124.234 41.3714C134.386 41.3714 143.659 43.6129 150.738 47.311C136.729 23.3029 90.0451 21 89.4011 21C88.8741 21 88.1714 21.2109 87.8201 21.5272C87.4688 21.9489 87.4688 22.3707 87.8201 22.687C97.9915 31.8054 98.8253 40.8045 96.8204 47.8011Z"/>
</mask>
<path fill-rule="evenodd" clip-rule="evenodd" d="M96.8204 47.8011C104.005 43.8119 113.641 41.3714 124.234 41.3714C134.386 41.3714 143.659 43.6129 150.738 47.311C136.729 23.3029 90.0451 21 89.4011 21C88.8741 21 88.1714 21.2109 87.8201 21.5272C87.4688 21.9489 87.4688 22.3707 87.8201 22.687C97.9915 31.8054 98.8253 40.8045 96.8204 47.8011Z" fill="#5382DE"/>
<path d="M96.8204 47.8011L94.8978 47.2501L93.5668 51.8952L97.7913 49.5496L96.8204 47.8011ZM150.738 47.311L149.812 49.0837L155.963 52.2973L152.465 46.3031L150.738 47.311ZM87.8201 21.5272L86.4819 20.0409L86.3753 20.1369L86.2834 20.2471L87.8201 21.5272ZM87.8201 22.687L86.4819 24.1733L86.4851 24.1762L87.8201 22.687ZM97.7913 49.5496C104.636 45.7491 113.929 43.3714 124.234 43.3714V39.3714C113.354 39.3714 103.374 41.8746 95.8496 46.0525L97.7913 49.5496ZM124.234 43.3714C134.108 43.3714 143.056 45.5545 149.812 49.0837L151.664 45.5384C144.262 41.6713 134.663 39.3714 124.234 39.3714V43.3714ZM89.4011 23C89.3886 23 90.11 23.0287 91.4865 23.1394C92.8251 23.2471 94.7261 23.4279 97.0363 23.7192C101.661 24.3025 107.903 25.3262 114.545 27.0858C127.978 30.6441 142.437 37.0549 149.01 48.319L152.465 46.3031C145.029 33.559 129.142 26.8143 115.57 23.2191C101.89 19.5954 89.885 19 89.4011 19V23ZM89.1584 23.0135C89.1213 23.0469 89.0931 23.0669 89.0795 23.076C89.0654 23.0854 89.0596 23.0881 89.0643 23.0857C89.0754 23.0799 89.1076 23.0649 89.1598 23.048C89.2109 23.0315 89.2655 23.0182 89.3161 23.0096C89.3406 23.0055 89.3612 23.0029 89.377 23.0015C89.3931 23 89.4012 23 89.4011 23V19C88.8977 19 88.3819 19.0957 87.9296 19.2419C87.4997 19.3809 86.9452 19.6238 86.4819 20.0409L89.1584 23.0135ZM89.1584 21.2007C89.3311 21.3562 89.5566 21.6864 89.5566 22.1466C89.5566 22.5559 89.3773 22.7826 89.3568 22.8073L86.2834 20.2471C85.9116 20.6935 85.5566 21.342 85.5566 22.1466C85.5566 23.0023 85.9578 23.7015 86.4819 24.1733L89.1584 21.2007ZM98.7431 48.352C99.8302 44.558 100.159 40.171 98.8081 35.4857C97.4575 30.8004 94.4694 25.9619 89.1552 21.1978L86.4851 24.1762C91.3423 28.5305 93.8568 32.7507 94.9646 36.5937C96.0725 40.4367 95.8155 44.0475 94.8978 47.2501L98.7431 48.352Z" fill="#5382DE" mask="url(#path-3-inside-2)"/>
</g>
<g filter="url(#filter1_f)">
<path fill-rule="evenodd" clip-rule="evenodd" d="M170 71.5419C170 53.8414 149.128 39.4922 123.382 39.4922C110.892 39.4922 99.5492 42.8692 91.18 48.3675L31.3121 71.5416L91.1771 94.7145C99.5467 100.214 110.891 103.592 123.382 103.592C149.128 103.592 170 89.2425 170 71.5419Z" fill="#5382DE"/>
</g>
<g filter="url(#filter2_i)">
<path fill-rule="evenodd" clip-rule="evenodd" d="M170 71.5419C170 53.8414 149.128 39.4922 123.382 39.4922C114.168 39.4922 105.577 41.3302 98.345 44.5021L98.345 44.4233L29.0009 71.4475L96.7481 97.8493C104.298 101.469 113.48 103.592 123.382 103.592C149.128 103.592 170 89.2425 170 71.5419Z" fill="#5382DE" fill-opacity="0.7"/>
</g>
<path fill-rule="evenodd" clip-rule="evenodd" d="M96.8204 47.8011C104.005 43.8119 113.641 41.3714 124.234 41.3714C134.386 41.3714 143.659 43.6129 150.738 47.311C136.729 23.3029 90.0451 21 89.4011 21C88.8741 21 88.1714 21.2109 87.8201 21.5272C87.4688 21.9489 87.4688 22.3707 87.8201 22.687C97.9915 31.8054 98.8253 40.8045 96.8204 47.8011Z" fill="#5382DE" fill-opacity="0.7"/>
<defs>
<filter id="filter0_f" x="66.5566" y="0" width="105.181" height="68.8011" filterUnits="userSpaceOnUse" color-interpolation-filters="sRGB">
<feFlood flood-opacity="0" result="BackgroundImageFix"/>
<feBlend mode="normal" in="SourceGraphic" in2="BackgroundImageFix" result="shape"/>
<feGaussianBlur stdDeviation="10.5" result="effect1_foregroundBlur"/>
</filter>
<filter id="filter1_f" x="10.3125" y="18.4922" width="180.688" height="106.1" filterUnits="userSpaceOnUse" color-interpolation-filters="sRGB">
<feFlood flood-opacity="0" result="BackgroundImageFix"/>
<feBlend mode="normal" in="SourceGraphic" in2="BackgroundImageFix" result="shape"/>
<feGaussianBlur stdDeviation="10.5" result="effect1_foregroundBlur"/>
</filter>
<filter id="filter2_i" x="29" y="39.4922" width="140.999" height="68.0995" filterUnits="userSpaceOnUse" color-interpolation-filters="sRGB">
<feFlood flood-opacity="0" result="BackgroundImageFix"/>
<feBlend mode="normal" in="SourceGraphic" in2="BackgroundImageFix" result="shape"/>
<feColorMatrix in="SourceAlpha" type="matrix" values="0 0 0 0 0 0 0 0 0 0 0 0 0 0 0 0 0 0 127 0" result="hardAlpha"/>
<feOffset dy="4"/>
<feGaussianBlur stdDeviation="10.5"/>
<feComposite in2="hardAlpha" operator="arithmetic" k2="-1" k3="1"/>
<feColorMatrix type="matrix" values="0 0 0 0 0 0 0 0 0 0 0 0 0 0 0 0 0 0 0.25 0"/>
<feBlend mode="normal" in2="shape" result="effect1_innerShadow"/>
</filter>
</defs>
</svg>
