<svg width="224" height="126" viewBox="0 0 224 126" fill="none" xmlns="http://www.w3.org/2000/svg">
<g filter="url(#filter0_f)">
<path fill-rule="evenodd" clip-rule="evenodd" d="M202.375 62.9091C202.375 39.7633 175.083 21 141.416 21C125.084 21 110.252 25.4157 99.3084 32.6053L21.0233 62.9085L99.3039 93.2099C110.248 100.401 125.082 104.818 141.416 104.818C175.083 104.818 202.375 86.0548 202.375 62.9091Z" fill="#5382DE"/>
</g>
<g filter="url(#filter1_i)">
<path fill-rule="evenodd" clip-rule="evenodd" d="M202.375 62.9091C202.375 39.7633 175.083 21 141.416 21C129.366 21 118.133 23.4038 108.675 27.5519L108.675 27.4487L17.9992 62.7862L106.604 97.3166C116.474 102.045 128.474 104.818 141.416 104.818C175.083 104.818 202.375 86.0548 202.375 62.9091Z" fill="#5382DE" fill-opacity="0.7"/>
</g>
<defs>
<filter id="filter0_f" x="0.0234375" y="0" width="223.352" height="125.818" filterUnits="userSpaceOnUse" color-interpolation-filters="sRGB">
<feFlood flood-opacity="0" result="BackgroundImageFix"/>
<feBlend mode="normal" in="SourceGraphic" in2="BackgroundImageFix" result="shape"/>
<feGaussianBlur stdDeviation="10.5" result="effect1_foregroundBlur"/>
</filter>
<filter id="filter1_i" x="18" y="21" width="184.376" height="87.8181" filterUnits="userSpaceOnUse" color-interpolation-filters="sRGB">
<feFlood flood-opacity="0" result="BackgroundImageFix"/>
<feBlend mode="normal" in="SourceGraphic" in2="BackgroundImageFix" result="shape"/>
<feColorMatrix in="SourceAlpha" type="matrix" values="0 0 0 0 0 0 0 0 0 0 0 0 0 0 0 0 0 0 127 0" result="hardAlpha"/>
<feOffset dy="4"/>
<feGaussianBlur stdDeviation="10.5"/>
<feComposite in2="hardAlpha" operator="arithmetic" k2="-1" k3="1"/>
<feColorMatrix type="matrix" values="0 0 0 0 0 0 0 0 0 0 0 0 0 0 0 0 0 0 0.25 0"/>
<feBlend mode="normal" in2="shape" result="effect1_innerShadow"/>
</filter>
</defs>
</svg>
