<svg width="100" height="100" viewBox="0 0 100 100" fill="none" xmlns="http://www.w3.org/2000/svg">
<path fill-rule="evenodd" clip-rule="evenodd" d="M81.0405 48.059C85.8419 43.9828 88.8888 37.9027 88.8888 31.1109C88.8888 18.8379 78.9396 8.88867 66.6666 8.88867C59.221 8.88867 52.6307 12.5504 48.5982 18.1713C45.0963 15.156 40.5384 13.3331 35.5547 13.3331C24.509 13.3331 15.5547 22.2874 15.5547 33.3331C15.5547 40.363 19.1816 46.5457 24.6663 50.1122C23.092 53.8342 22.2215 57.9263 22.2215 62.2218C22.2215 79.404 36.1504 93.3329 53.3326 93.3329C70.5148 93.3329 84.4437 79.404 84.4437 62.2218C84.4437 57.1211 83.2162 52.3071 81.0405 48.059Z" fill="#5382DE"/>
<mask id="path-2-outside-1" maskUnits="userSpaceOnUse" x="9.11035" y="3.77417" width="80" height="93" fill="black">
<rect fill="white" x="9.11035" y="3.77417" width="80" height="93"/>
<path fill-rule="evenodd" clip-rule="evenodd" d="M85.5673 5.92949C86.2415 5.54022 87.0824 6.03673 87.0671 6.81512L86.6659 27.2657V27.2657C86.6659 27.7523 85.9568 27.7976 85.8081 27.3343C83.3191 19.5782 75.6902 13.9322 66.665 13.9322C60.3994 13.9322 54.8068 16.6533 51.1397 20.9124C50.6931 21.4311 49.8635 21.4182 49.4307 20.888C45.9777 16.6586 40.549 13.9325 34.4438 13.9325C24.0117 13.9325 15.5549 21.8919 15.5549 31.7103C15.5549 37.7497 18.7546 43.0857 23.6456 46.2986C24.0654 46.5744 24.2404 47.1082 24.0573 47.5759C22.8668 50.6157 22.2209 53.8751 22.2209 57.2658C22.2209 73.8344 37.6422 87.2659 56.6654 87.2659C60.5819 87.2659 64.3457 86.6965 67.8537 85.6477C68.9156 85.3303 69.7368 86.6325 68.8497 87.2969C63.2852 91.4641 56.3748 93.9324 48.8879 93.9324C30.4784 93.9324 15.5546 79.0086 15.5546 60.5991C15.5546 54.8554 17.0073 49.451 19.5653 44.7333C19.8168 44.2694 19.6807 43.6887 19.2559 43.3756C14.3154 39.734 11.1104 33.8742 11.1104 27.2658C11.1104 23.7301 12.0278 20.4087 13.6377 17.5267C13.7232 17.3737 13.7697 17.2018 13.7697 17.0265L13.7697 6.77566C13.7697 6.00586 14.603 5.52474 15.2697 5.90964L21.2109 9.33976C21.5102 9.5126 21.8768 9.51688 22.186 9.36243C24.8725 8.0207 27.9033 7.26584 31.1103 7.26584C38.159 7.26584 44.3559 10.9122 47.9179 16.4214C48.3586 17.103 49.4176 17.103 49.8583 16.4214C53.4203 10.9121 59.6173 7.26573 66.6659 7.26573C70.4855 7.26573 74.0549 8.33642 77.0905 10.194C77.4125 10.3911 77.8167 10.4043 78.1436 10.2156L85.5673 5.92949Z"/>
</mask>
<path fill-rule="evenodd" clip-rule="evenodd" d="M85.5673 5.92949C86.2415 5.54022 87.0824 6.03673 87.0671 6.81512L86.6659 27.2657V27.2657C86.6659 27.7523 85.9568 27.7976 85.8081 27.3343C83.3191 19.5782 75.6902 13.9322 66.665 13.9322C60.3994 13.9322 54.8068 16.6533 51.1397 20.9124C50.6931 21.4311 49.8635 21.4182 49.4307 20.888C45.9777 16.6586 40.549 13.9325 34.4438 13.9325C24.0117 13.9325 15.5549 21.8919 15.5549 31.7103C15.5549 37.7497 18.7546 43.0857 23.6456 46.2986C24.0654 46.5744 24.2404 47.1082 24.0573 47.5759C22.8668 50.6157 22.2209 53.8751 22.2209 57.2658C22.2209 73.8344 37.6422 87.2659 56.6654 87.2659C60.5819 87.2659 64.3457 86.6965 67.8537 85.6477C68.9156 85.3303 69.7368 86.6325 68.8497 87.2969C63.2852 91.4641 56.3748 93.9324 48.8879 93.9324C30.4784 93.9324 15.5546 79.0086 15.5546 60.5991C15.5546 54.8554 17.0073 49.451 19.5653 44.7333C19.8168 44.2694 19.6807 43.6887 19.2559 43.3756C14.3154 39.734 11.1104 33.8742 11.1104 27.2658C11.1104 23.7301 12.0278 20.4087 13.6377 17.5267C13.7232 17.3737 13.7697 17.2018 13.7697 17.0265L13.7697 6.77566C13.7697 6.00586 14.603 5.52474 15.2697 5.90964L21.2109 9.33976C21.5102 9.5126 21.8768 9.51688 22.186 9.36243C24.8725 8.0207 27.9033 7.26584 31.1103 7.26584C38.159 7.26584 44.3559 10.9122 47.9179 16.4214C48.3586 17.103 49.4176 17.103 49.8583 16.4214C53.4203 10.9121 59.6173 7.26573 66.6659 7.26573C70.4855 7.26573 74.0549 8.33642 77.0905 10.194C77.4125 10.3911 77.8167 10.4043 78.1436 10.2156L85.5673 5.92949Z" fill="white"/>
<path d="M47.9179 16.4214L49.4715 15.417L47.9179 16.4214ZM49.8583 16.4214L51.4119 17.4258L49.8583 16.4214ZM21.2109 9.33976L20.2859 10.9419L21.2109 9.33976ZM22.186 9.36243L21.3594 7.70737L22.186 9.36243ZM13.7697 6.77566L11.9197 6.77566L13.7697 6.77566ZM77.0905 10.194L78.0562 8.61605L77.0905 10.194ZM78.1436 10.2156L79.0686 11.8177L78.1436 10.2156ZM67.8537 85.6477L67.3238 83.8752L67.8537 85.6477ZM68.8497 87.2969L67.7407 85.8161L68.8497 87.2969ZM13.6377 17.5267L12.0226 16.6245L13.6377 17.5267ZM13.7697 17.0265L11.9197 17.0265L13.7697 17.0265ZM51.1397 20.9124L49.7377 19.7054L51.1397 20.9124ZM49.4307 20.888L50.8637 19.718L49.4307 20.888ZM23.6456 46.2986L24.6614 44.7524L23.6456 46.2986ZM24.0573 47.5759L25.7799 48.2505L24.0573 47.5759ZM19.5653 44.7333L17.939 43.8515L19.5653 44.7333ZM19.2559 43.3756L18.1582 44.8648L19.2559 43.3756ZM85.8081 27.3343L84.0466 27.8996L85.8081 27.3343ZM87.0671 6.81512L88.9167 6.8514L87.0671 6.81512ZM85.5673 5.92949L86.4923 7.53163L85.5673 5.92949ZM88.5156 27.302L88.9167 6.8514L85.2174 6.77884L84.8163 27.2295L88.5156 27.302ZM66.665 15.7822C74.9224 15.7822 81.8141 20.9428 84.0466 27.8996L87.5697 26.7691C84.8242 18.2135 76.458 12.0822 66.665 12.0822V15.7822ZM52.5416 22.1195C55.8585 18.2672 60.9398 15.7822 66.665 15.7822V12.0822C59.859 12.0822 53.7551 15.0394 49.7377 19.7054L52.5416 22.1195ZM34.4438 15.7825C39.9941 15.7825 44.8964 18.2594 47.9976 22.058L50.8637 19.718C47.059 15.0577 41.1039 12.0825 34.4438 12.0825V15.7825ZM17.4049 31.7103C17.4049 23.0177 24.9262 15.7825 34.4438 15.7825V12.0825C23.0973 12.0825 13.7049 20.7661 13.7049 31.7103H17.4049ZM24.6614 44.7524C20.2415 41.849 17.4049 37.0696 17.4049 31.7103H13.7049C13.7049 38.4298 17.2678 44.3225 22.6299 47.8448L24.6614 44.7524ZM24.0709 57.2658C24.0709 54.1128 24.6711 51.0818 25.7799 48.2505L22.3347 46.9013C21.0626 50.1495 20.3709 53.6374 20.3709 57.2658H24.0709ZM56.6654 85.4159C38.4157 85.4159 24.0709 72.5809 24.0709 57.2658H20.3709C20.3709 75.0879 36.8688 89.1159 56.6654 89.1159V85.4159ZM67.3238 83.8752C63.9877 84.8726 60.4024 85.4159 56.6654 85.4159V89.1159C60.7614 89.1159 64.7037 88.5204 68.3837 87.4202L67.3238 83.8752ZM48.8879 95.7824C56.7882 95.7824 64.0851 93.1763 69.9586 88.7777L67.7407 85.8161C62.4852 89.7519 55.9614 92.0824 48.8879 92.0824V95.7824ZM13.7046 60.5991C13.7046 80.0303 29.4567 95.7824 48.8879 95.7824V92.0824C31.5002 92.0824 17.4046 77.9869 17.4046 60.5991H13.7046ZM17.939 43.8515C15.2378 48.8332 13.7046 54.5399 13.7046 60.5991H17.4046C17.4046 55.171 18.7767 50.0689 21.1916 45.6152L17.939 43.8515ZM9.26035 27.2658C9.26035 34.4868 12.765 40.8895 18.1582 44.8648L20.3535 41.8864C15.8658 38.5786 12.9604 33.2617 12.9604 27.2658H9.26035ZM12.0226 16.6245C10.2627 19.7752 9.26035 23.4062 9.26035 27.2658H12.9604C12.9604 24.054 13.793 21.0423 15.2528 18.4289L12.0226 16.6245ZM11.9197 6.77566L11.9197 17.0265L15.6197 17.0265L15.6197 6.77566L11.9197 6.77566ZM22.1359 7.73761L16.1947 4.30749L14.3447 7.51178L20.2859 10.9419L22.1359 7.73761ZM31.1103 5.41584C27.61 5.41584 24.2968 6.24033 21.3594 7.70737L23.0126 11.0175C25.4482 9.80107 28.1966 9.11584 31.1103 9.11584V5.41584ZM49.4715 15.417C45.5831 9.40285 38.8129 5.41584 31.1103 5.41584V9.11584C37.5051 9.11584 43.1288 12.4215 46.3643 17.4259L49.4715 15.417ZM66.6659 5.41573C58.9634 5.41573 52.1931 9.40278 48.3047 15.417L51.4119 17.4258C54.6474 12.4214 60.2712 9.11573 66.6659 9.11573V5.41573ZM78.0562 8.61605C74.7382 6.58563 70.8359 5.41573 66.6659 5.41573V9.11573C70.1351 9.11573 73.3717 10.0872 76.1249 11.772L78.0562 8.61605ZM84.6423 4.32734L77.2186 8.61343L79.0686 11.8177L86.4923 7.53163L84.6423 4.32734ZM46.3643 17.4259C47.534 19.2349 50.2423 19.2349 51.4119 17.4258L48.3047 15.417C48.4689 15.1631 48.72 15.0826 48.8881 15.0826C49.0562 15.0826 49.3074 15.1631 49.4715 15.417L46.3643 17.4259ZM20.2859 10.9419C21.1475 11.4394 22.1732 11.4367 23.0126 11.0175L21.3594 7.70737C21.5803 7.59704 21.873 7.58583 22.1359 7.73761L20.2859 10.9419ZM15.6197 6.77566C15.6197 7.42999 14.9114 7.83895 14.3447 7.51178L16.1947 4.30749C14.2947 3.21052 11.9197 4.58173 11.9197 6.77566L15.6197 6.77566ZM76.1249 11.772C76.9977 12.3061 78.1273 12.3611 79.0686 11.8177L77.2186 8.61343C77.506 8.44747 77.8273 8.47601 78.0562 8.61605L76.1249 11.772ZM68.3837 87.4202C68.0308 87.5257 67.6731 87.3435 67.5072 87.074C67.4226 86.9365 67.3471 86.717 67.3876 86.4433C67.4325 86.14 67.5981 85.9229 67.7407 85.8161L69.9586 88.7777C70.5448 88.3387 70.9404 87.7097 71.0477 86.9852C71.1506 86.2905 70.9697 85.6406 70.6579 85.1342C70.0378 84.1269 68.7385 83.4523 67.3238 83.8752L68.3837 87.4202ZM15.2528 18.4289C15.4861 18.0113 15.6197 17.5302 15.6197 17.0265L11.9197 17.0265C11.9197 16.8734 11.9603 16.7361 12.0226 16.6245L15.2528 18.4289ZM49.7377 19.7054C50.0461 19.3472 50.5728 19.3617 50.8637 19.718L47.9976 22.058C49.1542 23.4747 51.3401 23.5151 52.5416 22.1195L49.7377 19.7054ZM22.6299 47.8448C22.3323 47.6493 22.1931 47.2628 22.3347 46.9013L25.7799 48.2505C26.2878 46.9537 25.7986 45.4994 24.6614 44.7524L22.6299 47.8448ZM21.1916 45.6152C21.8934 44.3209 21.5041 42.7345 20.3535 41.8864L18.1582 44.8648C17.8573 44.6429 17.7403 44.2179 17.939 43.8515L21.1916 45.6152ZM84.8159 27.2657C84.8159 26.902 84.9643 26.5045 85.278 26.2062C85.5639 25.9343 85.8948 25.8303 86.1586 25.8111C86.6654 25.7742 87.3401 26.0538 87.5697 26.7691L84.0466 27.8996C84.4248 29.0782 85.5284 29.5667 86.427 29.5013C86.8867 29.4679 87.4041 29.2902 87.8277 28.8875C88.279 28.4583 88.5159 27.8727 88.5159 27.2657H84.8159ZM88.9167 6.8514C88.9602 4.63299 86.5639 3.21792 84.6423 4.32734L86.4923 7.53163C85.9192 7.86251 85.2045 7.44047 85.2174 6.77884L88.9167 6.8514Z" fill="#5382DE" mask="url(#path-2-outside-1)"/>
<path fill-rule="evenodd" clip-rule="evenodd" d="M41.6517 38.9757C37.6386 39.7875 33.2311 37.3074 31.2508 32.8569C29.2703 28.406 30.379 23.471 33.6694 21.0336C33.0574 21.1756 32.4501 21.3777 31.8547 21.6426C26.8088 23.8878 24.5385 29.7985 26.7837 34.8443C29.029 39.8902 34.9396 42.1605 39.9854 39.9153C40.5804 39.6506 41.1367 39.3349 41.6517 38.9757Z" fill="white"/>
<path fill-rule="evenodd" clip-rule="evenodd" d="M43.7188 47.1996C45.9616 46.0074 47.9197 44.3961 49.473 42.4788C50.6555 44.3522 52.1716 46.016 53.9439 47.3971L48.8884 56.1536L43.7188 47.1996Z" fill="#74CDE9"/>
<path fill-rule="evenodd" clip-rule="evenodd" d="M76.4699 37.1552C73.0147 39.3538 68.0096 38.6195 64.5644 35.1743C61.12 31.7299 60.3852 26.7264 62.5818 23.2713C62.0623 23.623 61.5685 24.0289 61.1084 24.489C57.2032 28.3942 57.2032 34.7259 61.1084 38.6311C65.0137 42.5364 71.3453 42.5364 75.2506 38.6311C75.7114 38.1703 76.1179 37.6757 76.4699 37.1552Z" fill="white"/>
</svg>
