<svg viewBox="0 0 24 24" fill="none" xmlns="http://www.w3.org/2000/svg">
  <path
    d="M20.496 5.627C20.9357 5.78152 21.3166 6.06877 21.586 6.44907C21.8554 6.82937 22.0001 7.28394 22 7.75V17.75C22 18.8772 21.5522 19.9582 20.7552 20.7552C19.9582 21.5522 18.8772 22 17.75 22H7.75C7.28394 22.0001 6.82937 21.8554 6.44907 21.586C6.06877 21.3166 5.78152 20.9357 5.627 20.496L7.724 20.5H17.75C18.4793 20.5 19.1788 20.2103 19.6945 19.6945C20.2103 19.1788 20.5 18.4793 20.5 17.75V7.75L20.496 7.699V5.627ZM17.246 2C17.8427 2 18.415 2.23705 18.837 2.65901C19.2589 3.08097 19.496 3.65326 19.496 4.25V17.247C19.496 17.8437 19.2589 18.416 18.837 18.838C18.415 19.2599 17.8427 19.497 17.246 19.497H4.25C3.65326 19.497 3.08097 19.2599 2.65901 18.838C2.23705 18.416 2 17.8437 2 17.247V4.25C2 3.65326 2.23705 3.08097 2.65901 2.65901C3.08097 2.23705 3.65326 2 4.25 2H17.247H17.246ZM17.246 3.5H4.25C4.05109 3.5 3.86032 3.57902 3.71967 3.71967C3.57902 3.86032 3.5 4.05109 3.5 4.25V17.247C3.5 17.661 3.836 17.997 4.25 17.997H17.247C17.4459 17.997 17.6367 17.918 17.7773 17.7773C17.918 17.6367 17.997 17.4459 17.997 17.247V4.25C17.997 4.05109 17.918 3.86032 17.7773 3.71967C17.6367 3.57902 17.4459 3.5 17.247 3.5H17.246Z"
    fill="currentColor" />
</svg>