<svg width="24" height="28" viewBox="0 0 24 28" fill="none" xmlns="http://www.w3.org/2000/svg">
<path d="M22 0H4C3.46957 0 2.96086 0.210714 2.58579 0.585786C2.21071 0.960859 2 1.46957 2 2V6H0V8H2V13H0V15H2V20H0V22H2V26C2 26.5304 2.21071 27.0391 2.58579 27.4142C2.96086 27.7893 3.46957 28 4 28H22C22.5304 28 23.0391 27.7893 23.4142 27.4142C23.7893 27.0391 24 26.5304 24 26V2C24 1.46957 23.7893 0.960859 23.4142 0.585786C23.0391 0.210714 22.5304 0 22 0ZM22 26H4V22H6V20H4V15H6V13H4V8H6V6H4V2H22V26Z" fill="currentColor"/>
<path d="M10 6H18V8H10V6Z" fill="currentColor"/>
<path d="M10 13H18V15H10V13Z" fill="currentColor"/>
<path d="M10 20H18V22H10V20Z" fill="currentColor"/>
</svg>
