<svg width="28" height="28" viewBox="0 0 28 28" fill="none" xmlns="http://www.w3.org/2000/svg">
<path d="M14.9673 1.17728C15.162 0.750717 15.5252 0.630404 15.827 0.617279C16.2864 0.595404 16.7677 0.912592 17.2205 1.28665C17.542 1.64978 17.927 1.92978 18.3733 2.12665C18.6817 2.23602 18.988 2.25789 19.2986 2.24258C19.7361 2.22071 20.1801 2.12447 20.6198 2.10259L20.6439 2.1004L20.843 2.0829C21.3461 2.05884 21.8208 2.17697 22.2714 2.43727C22.6848 2.81352 22.8664 3.28164 22.8095 3.84602C22.7133 4.31196 22.7964 4.73852 23.0567 5.12571C23.5052 5.44071 23.9755 5.71633 24.4698 5.95039C24.9817 6.23039 25.3033 6.65258 25.4433 7.21477C25.4936 7.80977 25.218 8.19039 24.623 8.35446C23.8486 8.54914 22.8073 8.54914 21.9302 9.22727C20.6483 10.297 20.2458 11.3754 19.688 11.5395C19.4145 11.2288 17.7083 9.90977 14.847 9.27758C14.3351 7.51227 14.0245 3.25102 14.9673 1.17728Z" fill="#FCC21B"/>
<path d="M17.8555 8.90172C18.3586 7.89547 19.7914 6.12578 20.1348 6.47578C20.4739 6.85641 19.693 8.83391 19.1439 9.80297C18.9492 9.59735 18.3214 9.16641 18.048 9.09422" fill="#D19B15"/>
<path d="M20.3868 12.1232C20.0915 12.1232 19.8028 11.9722 19.6387 11.701C18.1337 9.22474 14.7256 9.48505 14.6928 9.48943C14.2115 9.5288 13.7871 9.17443 13.7456 8.69537C13.7252 8.46494 13.7969 8.23582 13.9448 8.05795C14.0927 7.88011 14.305 7.76798 14.5353 7.74599C14.719 7.72849 19.0568 7.37193 21.135 10.7954C21.3865 11.2088 21.2531 11.7469 20.8418 11.9963C20.6975 12.0816 20.5421 12.1232 20.3868 12.1232Z" fill="#C70707"/>
<path d="M21.0121 26.7028C17.2649 27.626 12.0565 27.5603 8.33553 26.8253C4.85303 26.1363 2.18647 24.0822 2.49272 20.0397C2.80334 15.9491 5.51365 12.0969 9.24115 10.3994C12.8483 8.75658 17.6893 7.95596 20.2399 11.6835C20.8743 12.611 22.0862 14.6694 22.143 15.68C22.1474 15.761 22.1518 15.8331 22.1693 15.9031C22.1737 16.1569 22.2765 16.4128 22.5258 16.601C24.1293 17.815 25.2974 19.425 25.5118 21.6322C25.7655 24.2638 23.2762 26.145 21.0121 26.7028Z" fill="#FCC21B"/>
<path d="M16.7585 17.1582L13.9387 16.749L12.6781 14.1974C12.6437 14.1275 12.5871 14.071 12.5171 14.0366C12.3416 13.9501 12.1284 14.0222 12.0407 14.1974L10.7801 16.749L7.96032 17.1582C7.88258 17.1693 7.81151 17.2058 7.75708 17.2613C7.69128 17.3288 7.65503 17.4196 7.65628 17.5138C7.65753 17.608 7.69618 17.6979 7.76375 17.7636L9.80393 19.7497L9.32191 22.554C9.3106 22.6194 9.31784 22.6863 9.34278 22.7478C9.36774 22.8091 9.40939 22.8622 9.46305 22.9012C9.51668 22.9401 9.58019 22.9631 9.64632 22.9679C9.71247 22.9725 9.77859 22.9587 9.83724 22.9278L12.3594 21.6037L14.8816 22.9278C14.9504 22.9644 15.0304 22.9766 15.107 22.9633C15.3003 22.93 15.4302 22.7469 15.3969 22.554L14.9149 19.7497L16.9551 17.7636C17.0106 17.7093 17.0472 17.6383 17.0584 17.5607C17.0883 17.3666 16.9528 17.187 16.7585 17.1582Z" fill="black"/>
</svg>
