<svg width="38" height="40" viewBox="0 0 38 40" fill="none" xmlns="http://www.w3.org/2000/svg">
<path d="M9.69869 9.46343H27.3937C27.5809 9.46343 27.734 9.3057 27.734 9.11293C27.734 7.36044 27.3597 5.75254 26.6323 4.37684C25.9007 2.99675 24.8245 1.8883 23.4846 1.13474C22.149 0.385547 20.5879 0 18.8865 0H18.2059C16.5045 0 14.9434 0.385547 13.6078 1.13474C12.2679 1.8883 11.1917 2.99675 10.4601 4.37684C9.73272 5.75254 9.3584 7.36044 9.3584 9.11293C9.3584 9.3057 9.51153 9.46343 9.69869 9.46343Z" fill="currentColor"/>
<path d="M36.7512 19.6278H30.4558V15.2465C33.7226 15.2465 36.3684 12.5214 36.3684 9.15665C36.3684 8.96388 36.2152 8.80615 36.0281 8.80615H33.4759C33.2887 8.80615 33.1356 8.96388 33.1356 9.15665C33.1356 10.6813 31.9361 11.9168 30.4558 11.9168H6.63563C5.15537 11.9168 3.95586 10.6813 3.95586 9.15665C3.95586 8.96388 3.80273 8.80615 3.61557 8.80615H1.0634C0.876243 8.80615 0.723113 8.96388 0.723113 9.15665C0.723113 12.5214 3.36886 15.2465 6.63563 15.2465V19.6278H0.340289C0.15313 19.6278 0 19.7855 0 19.9783V22.4317C0 22.6245 0.15313 22.7822 0.340289 22.7822H6.63563V26.9882C6.63563 27.273 6.64414 27.5578 6.6654 27.8338C3.74743 29.1175 1.70144 32.1011 1.70144 35.5754C1.70144 35.7682 1.85457 35.9259 2.04173 35.9259H4.42375C4.61091 35.9259 4.76404 35.7682 4.76404 35.5754C4.76404 33.6389 5.78065 31.9434 7.29919 31.0321C7.55441 31.7856 7.87768 32.5042 8.26476 33.1789C9.29839 34.9971 10.7744 36.5173 12.5396 37.582C13.7689 38.3224 15.1343 38.8438 16.5933 39.0935C16.7805 39.0935 16.9336 38.9358 16.9336 38.743V18.401C16.9336 18.2082 17.0867 18.0505 17.2739 18.0505H19.8261C20.0132 18.0505 20.1664 18.2082 20.1664 18.401V38.7386C20.1664 38.9314 20.3195 39.0891 20.5066 39.0891C21.9656 38.8394 23.331 38.318 24.5603 37.5776C26.3256 36.513 27.8016 34.9927 28.8352 33.1745C29.2223 32.4954 29.5456 31.7769 29.8008 31.0277C31.3108 31.9434 32.3274 33.6389 32.3274 35.5754C32.3274 35.7682 32.4806 35.9259 32.6677 35.9259H35.0497C35.2369 35.9259 35.39 35.7682 35.39 35.5754C35.39 32.1011 33.344 29.1175 30.4261 27.8338C30.4431 27.5534 30.4558 27.273 30.4558 26.9882V22.7822H36.7512C36.9383 22.7822 37.0915 22.6245 37.0915 22.4317V19.9783C37.0915 19.7855 36.9383 19.6278 36.7512 19.6278Z" fill="currentColor"/>
</svg>
