<svg width="19" height="20" viewBox="0 0 19 20" fill="none" xmlns="http://www.w3.org/2000/svg">
<path d="M18.4385 1.56076C18.2602 1.38236 18.0485 1.24085 17.8155 1.14429C17.5825 1.04774 17.3327 0.998047 17.0805 0.998047C16.8283 0.998047 16.5785 1.04774 16.3455 1.14429C16.1125 1.24085 15.9008 1.38236 15.7225 1.56076L9.5005 7.78176L3.2785 1.56176C3.10017 1.38342 2.88845 1.24196 2.65545 1.14544C2.42244 1.04893 2.17271 0.999255 1.9205 0.999255C1.6683 0.999255 1.41856 1.04893 1.18556 1.14544C0.952552 1.24196 0.740837 1.38342 0.562502 1.56176C0.384167 1.74009 0.242704 1.95181 0.14619 2.18481C0.0496752 2.41782 -1.87907e-09 2.66755 0 2.91976C1.87907e-09 3.17196 0.0496753 3.4217 0.14619 3.6547C0.242704 3.88771 0.384167 4.09942 0.562502 4.27776L6.7845 10.4978L0.561502 16.7198C0.221476 17.084 0.0361774 17.566 0.0446829 18.0642C0.0531884 18.5624 0.254833 19.0378 0.607093 19.3902C0.959354 19.7426 1.4347 19.9444 1.93289 19.9531C2.43107 19.9618 2.91317 19.7767 3.2775 19.4368L9.4995 13.2128L15.7215 19.4378C16.0822 19.7968 16.5705 19.9984 17.0795 19.9984C17.5885 19.9984 18.0768 19.7968 18.4375 19.4378C19.1875 18.6868 19.1875 17.4708 18.4375 16.7198L12.2165 10.4998L18.4385 4.27876C18.7974 3.91754 18.9989 3.42899 18.9989 2.91976C18.9989 2.41052 18.7974 1.92197 18.4385 1.56076Z" fill="#ED4B92"/>
</svg>
