<?xml version="1.0" standalone="no"?>
<!DOCTYPE svg PUBLIC "-//W3C//DTD SVG 20010904//EN"
 "http://www.w3.org/TR/2001/REC-SVG-20010904/DTD/svg10.dtd">
<svg version="1.0" xmlns="http://www.w3.org/2000/svg"
 width="116.000000pt" height="126.000000pt" viewBox="0 0 116.000000 126.000000"
 preserveAspectRatio="xMidYMid meet">

<g transform="translate(0.000000,126.000000) scale(0.100000,-0.100000)"
fill="#000000" stroke="none">
<path d="M790 314 l-255 -219 60 -3 c33 -2 135 -2 227 0 235 4 231 -1 226 277
l-3 164 -255 -219z m116 -59 c10 -8 39 -15 62 -15 30 0 42 -4 39 -12 -5 -17
-83 -15 -124 3 -29 12 -36 11 -62 -4 -56 -33 -73 -13 -18 22 38 24 76 27 103
6z m-14 -61 c22 -11 45 -14 75 -10 33 4 43 2 43 -8 0 -29 -73 -35 -121 -11
-25 13 -36 14 -63 4 -32 -12 -76 -6 -62 8 8 9 66 30 84 32 7 0 27 -6 44 -15z"/>
</g>
</svg>
