<svg width="20" height="20" viewBox="0 0 20 20" fill="none" xmlns="http://www.w3.org/2000/svg">
  <path
    d="M16.9615 10.7768L16.9614 10.7782C16.5726 14.2777 13.6008 17 10 17C8.14349 17 6.36301 16.2625 5.05025 14.9498C3.7375 13.637 3 11.8566 3 10C3 6.39411 5.72574 3.42473 9.22035 3.03974C9.5174 3.02081 9.68926 3.33315 9.53493 3.56294L9.53482 3.56286L9.52859 3.57262C9.03684 4.34271 8.75 5.26908 8.75 6.25005V6.25045C8.75072 7.14711 8.99242 8.0271 9.44983 8.79833C9.90724 9.56955 10.5635 10.2037 11.35 10.6343C12.1365 11.0649 13.0243 11.2762 13.9204 11.2461C14.8152 11.2161 15.6854 10.9465 16.4403 10.4655C16.6985 10.3082 16.9918 10.5111 16.9615 10.7768Z"
    fill="var(--icon-fill-color)" stroke="var(--icon-stroke-color)" />
</svg>