<svg width="28" height="28" viewBox="0 0 28 28" fill="none" xmlns="http://www.w3.org/2000/svg">
<path d="M25.0262 1.97589H24.1082V1.05789C24.1082 0.552993 23.6951 0.139893 23.1902 0.139893C22.6853 0.139893 22.2722 0.552993 22.2722 1.05789V1.97589H18.1412V1.05789C18.1412 0.552993 17.7281 0.139893 17.2232 0.139893C16.7183 0.139893 16.3052 0.552993 16.3052 1.05789V1.97589H11.7152V1.05789C11.7152 0.552993 11.3021 0.139893 10.7972 0.139893C10.2923 0.139893 9.87923 0.552993 9.87923 1.05789V1.97589H5.74823V1.05789C5.74823 0.552993 5.33513 0.139893 4.83023 0.139893C4.32533 0.139893 3.91223 0.552993 3.91223 1.05789V1.97589H2.99423C1.47494 1.97589 0.240234 3.2106 0.240234 4.72989V24.9259C0.240234 26.4452 1.47494 27.6799 2.99423 27.6799H25.0262C26.5455 27.6799 27.7802 26.4452 27.7802 24.9259V4.72989C27.7802 3.2106 26.5455 1.97589 25.0262 1.97589ZM2.07623 4.72989C2.07623 4.22499 2.48933 3.81189 2.99423 3.81189H25.0262C25.5311 3.81189 25.9442 4.22499 25.9442 4.72989V7.48389H2.07623V4.72989ZM25.9442 24.9259C25.9442 25.4308 25.5311 25.8439 25.0262 25.8439H2.99423C2.48933 25.8439 2.07623 25.4308 2.07623 24.9259V9.31989H25.9442V24.9259Z" fill="currentColor"/>
<path d="M5.69682 16.8679H8.45082C9.21276 16.8679 9.82782 16.2528 9.82782 15.4909V12.7369C9.82782 11.9749 9.21276 11.3599 8.45082 11.3599H5.69682C4.93488 11.3599 4.31982 11.9749 4.31982 12.7369V15.4909C4.31982 16.2528 4.93488 16.8679 5.69682 16.8679ZM6.15582 13.1959H7.99182V15.0319H6.15582V13.1959Z" fill="currentColor"/>
</svg>
