<svg width="47" height="35" viewBox="0 0 47 35" fill="none" xmlns="http://www.w3.org/2000/svg">
<path d="M45.5136 18.3772C45.5136 15.8147 48.5589 13.8077 45.5136 10.2085C45.5136 10.2085 42.1651 13.3819 40.5198 14.728C40.4089 15.7741 40.023 20.7304 40.8026 23.3905C42.2753 24.1679 45.5128 26.546 45.5128 26.546C48.5776 22.9257 45.5136 21.1187 45.5136 18.3772Z" fill="currentColor"/>
<path d="M0.213439 18.2639C0.213439 18.2639 0.808751 18.7725 1.03609 19.2928C1.25094 19.7866 -0.386562 19.9678 0.0860948 20.7499C1.40484 22.9249 5.29781 26.1749 9.39469 27.9967C11.1767 24.6303 12.1134 20.7827 12.1134 16.7577C12.1134 13.253 11.3869 9.83892 10.0056 6.77563C2.39156 10.2788 0.213439 18.2639 0.213439 18.2639ZM11.5009 17.6709C11.5009 20.3858 9.42672 22.5874 6.86656 22.5874C4.30641 22.5874 2.23375 20.3858 2.23375 17.6709C2.23375 14.9553 4.30641 12.7538 6.86656 12.7538C9.42672 12.7538 11.5009 14.9561 11.5009 17.6709Z" fill="currentColor"/>
<path d="M37.3832 24.5055C37.4488 24.4687 37.5113 24.4352 37.5762 24.3977C37.045 21.8607 36.7777 19.2756 36.7785 16.6836C36.7785 15.6352 36.8309 14.5516 36.9254 13.4531C37.5004 13.8695 38.0434 14.2422 38.5504 14.5484C39.4707 12.0438 38.8809 8.75547 36.8902 6.40391C35.5137 4.775 33.7535 3.93828 32.098 3.93828C30.7605 3.93828 29.491 4.48516 28.5449 5.60391C28.1879 6.03204 27.8972 6.51133 27.6824 7.02578C27.7027 6.82891 27.7168 6.63047 27.7168 6.42891C27.7168 2.87734 24.4191 0 20.3535 0C16.5559 0 13.4309 2.50937 13.0332 5.73359C13.8402 5.57578 14.6191 5.46016 15.3738 5.37891C16.6074 8.53906 17.3137 11.9625 17.4559 15.4531C17.3488 15.6641 17.2496 15.8766 17.1621 16.0945C16.852 16.8742 16.6512 17.7086 16.6277 18.5695C16.6074 19.3461 16.7621 20.1711 17.2059 20.8758C16.8176 23.8719 16.0262 26.768 14.823 29.4516C14.1043 29.3875 13.4957 29.3 13.0637 29.1836C13.7402 30.95 15.4379 32.6711 17.6949 33.6414C18.8488 34.1391 20.0004 34.3758 21.0473 34.3758C23.0926 34.3758 24.7402 33.4727 25.2418 31.8445C25.448 31.1758 25.4324 30.4539 25.2418 29.7273C26.6809 31.3695 29.2121 32.4625 32.1035 32.4625C36.5871 32.4625 40.223 29.8398 40.223 26.6055C40.223 25.5078 39.7965 24.4836 39.0676 23.6055C38.7809 23.7469 38.1824 24.0773 37.3832 24.5055ZM27.5559 7.325C28.429 7.71186 29.2782 8.15067 30.0988 8.63906C29.323 10.5187 28.7934 12.5148 28.4934 14.5734C28.3104 14.3768 28.1204 14.1869 27.9238 14.0039C26.577 12.7742 24.8191 12.0719 23.0684 12.075L23.0395 12.0758C23.7482 10.1632 24.6522 8.32876 25.7371 6.60156C26.3513 6.82237 26.9578 7.06365 27.5559 7.325ZM25.1668 29.1977C24.134 29.3344 22.8723 29.4375 21.5496 29.5031C21.1848 27.5239 21.0007 25.5157 20.9996 23.5031C20.9996 23.1977 21.0168 22.8953 21.0309 22.5922C22.0988 22.8805 23.1293 23.3352 24.1559 23.8562C24.8934 24.2109 25.634 24.625 26.5793 24.8023C27.0488 24.8867 27.591 24.8664 28.0809 24.675C28.377 24.5641 28.6387 24.4016 28.8738 24.2187C29.1596 25.4757 29.5433 26.7084 30.0215 27.9055C28.3816 28.5062 26.709 28.993 25.1668 29.1977Z" fill="currentColor"/>
<path d="M6.8666 21.0506C8.62615 21.0506 10.0525 19.5375 10.0525 17.6709C10.0525 15.8044 8.62615 14.2913 6.8666 14.2913C5.10706 14.2913 3.68066 15.8044 3.68066 17.6709C3.68066 19.5375 5.10706 21.0506 6.8666 21.0506Z" fill="currentColor"/>
</svg>
