<svg width="22" height="22" viewBox="0 0 17 16" fill="none" xmlns="http://www.w3.org/2000/svg">
<line x1="0.290619" y1="0.735986" x2="16.2906" y2="12.1646" stroke="currentColor"/>
<path fill-rule="evenodd" clip-rule="evenodd" d="M13.28 0.96H15.12C15.3534 0.96 15.5772 1.05271 15.7423 1.21775C15.9073 1.38278 16 1.60661 16 1.84V4.8C16 6.434 14.8 7.792 13.236 8.04C13.1442 8.72815 12.916 9.37298 12.5794 9.94647L11.4029 9.10386C11.6887 8.57402 11.84 7.9781 11.84 7.36V1.44H4.16V3.91649L2.72 2.88516V2.4H2.04258L0.31669 1.16392C0.474175 1.03269 0.67334 0.96 0.88 0.96H2.72V0.16C2.72 0.072 2.792 0 2.88 0H13.12C13.208 0 13.28 0.072 13.28 0.16V0.96ZM0 2.16712V4.8C0 6.434 1.2 7.792 2.764 8.04C3.074 10.364 4.94 12.194 7.28 12.45V14.554H3.36C3.006 14.554 2.72 14.84 2.72 15.194V15.84C2.72 15.928 2.792 16 2.88 16H13.12C13.208 16 13.28 15.928 13.28 15.84V15.194C13.28 14.84 12.994 14.554 12.64 14.554H8.72V12.45C10.0179 12.308 11.17 11.6817 11.9917 10.7555L10.8123 9.91087C10.7957 9.92805 10.779 9.94509 10.762 9.962C10.066 10.658 9.142 11.04 8.16 11.04H7.84C6.858 11.04 5.932 10.658 5.238 9.962C4.542 9.266 4.16 8.342 4.16 7.36V5.14651L2.72 4.11518V6.552C2.34849 6.43333 2.02431 6.19968 1.79424 5.88478C1.56417 5.56987 1.44012 5.19 1.44 4.8V3.19845L0 2.16712ZM13.28 6.552C14.022 6.316 14.56 5.62 14.56 4.8V2.4H13.28V6.552Z" fill="currentColor"/>
</svg>
