<svg width="33" height="33" viewBox="0 0 33 33" fill="none" xmlns="http://www.w3.org/2000/svg">
<path d="M29.2638 11.3793L21.0814 10.1901L17.4237 2.77482C17.3238 2.57179 17.1595 2.40743 16.9564 2.30753C16.4473 2.05616 15.8285 2.26564 15.5739 2.77482L11.9162 10.1901L3.73388 11.3793C3.50829 11.4115 3.30204 11.5179 3.14413 11.679C2.95322 11.8752 2.84803 12.1392 2.85165 12.4129C2.85528 12.6867 2.96743 12.9478 3.16347 13.1389L9.08348 18.9107L7.68485 27.0608C7.65205 27.2503 7.67303 27.4453 7.74541 27.6236C7.81779 27.8019 7.93867 27.9563 8.09435 28.0694C8.25003 28.1824 8.43427 28.2496 8.62619 28.2633C8.81811 28.277 9.01002 28.2366 9.18016 28.1468L16.4988 24.2989L23.8175 28.1468C24.0173 28.2531 24.2493 28.2886 24.4717 28.2499C25.0324 28.1532 25.4095 27.6215 25.3128 27.0608L23.9141 18.9107L29.8342 13.1389C29.9953 12.981 30.1016 12.7747 30.1339 12.5491C30.2209 11.9852 29.8277 11.4631 29.2638 11.3793V11.3793Z" fill="#AA66CE"/>
</svg>
