<svg width="135" height="139" viewBox="0 0 135 139" fill="none" xmlns="http://www.w3.org/2000/svg">
<circle cx="62.8871" cy="61.9608" r="13" transform="rotate(-9.841 62.8871 61.9608)" fill="#5382DE"/>
<circle cx="63.5702" cy="62.4421" r="7.68182" transform="rotate(-9.841 63.5702 62.4421)" fill="white"/>
<circle cx="63.5706" cy="62.442" r="4.13636" transform="rotate(-9.841 63.5706 62.442)" fill="#5382DE"/>
<circle cx="93.431" cy="56.6625" r="13" transform="rotate(-9.841 93.431 56.6625)" fill="#5382DE"/>
<circle cx="94.1141" cy="57.1438" r="7.68182" transform="rotate(-9.841 94.1141 57.1438)" fill="white"/>
<circle cx="94.1145" cy="57.1437" r="4.13636" transform="rotate(-9.841 94.1145 57.1437)" fill="#5382DE"/>
<path fill-rule="evenodd" clip-rule="evenodd" d="M33.2711 48.332L30.7912 34.0358L40.9623 37.7698C43.9336 35.4501 47.503 33.808 51.4767 33.1187C60.5085 31.552 69.232 35.3236 74.4139 42.1561C76.9918 33.9775 83.9354 27.4882 92.9672 25.9215C97.6814 25.1038 102.312 25.7404 106.398 27.5075L116.364 19.1917L120.354 45.2114C120.55 46.3434 120.663 47.4705 120.696 48.5864C117.225 38.1853 106.074 31.6613 94.3166 33.7009C86.3997 35.0742 80.0493 40.0109 76.8171 46.4363C71.8994 41.4492 64.4475 38.8824 56.7158 40.2236C44.5425 42.3352 36.2852 53.335 38.2726 64.7923C39.5562 72.1918 44.799 77.9725 51.631 80.5701C50.6559 84.668 50.4774 88.9524 51.2253 93.2637C54.5791 112.598 75.2933 125.15 97.4918 121.299C104.332 120.112 110.514 117.507 115.697 113.905C109.895 122.464 100.758 128.746 89.765 130.653C68.2826 134.379 47.8468 119.985 44.1203 98.503C42.8899 91.4096 43.6351 84.4303 45.9588 78.129C38.9619 75.0328 33.5926 68.6098 32.1867 60.5055C31.4518 56.2685 31.8916 52.0994 33.2711 48.332Z" fill="#5382DE"/>
<path fill-rule="evenodd" clip-rule="evenodd" d="M74.2732 77.1673C76.6496 75.3217 78.6088 73.0447 80.0334 70.4922C81.7923 72.4389 83.898 74.0736 86.2454 75.3265L82.118 86.5693L74.2732 77.1673Z" fill="#74CDE9"/>
<path d="M36.9378 4.34501C37.0281 5.21164 37.1789 6.07174 37.3901 6.92531C37.3901 6.92531 38.4699 9.74209 39.8278 12.4247C41.1857 15.1072 42.7801 17.6832 42.7801 17.6832C43.3329 18.3461 43.9274 18.9814 44.5541 19.5784C45.5064 20.4346 46.4656 21.171 46.8711 20.9139C47.2765 20.6568 46.8341 19.4694 46.3994 18.3225C45.9646 17.1756 45.5276 16.0686 45.4506 16.0141C45.3736 15.9596 43.928 13.5825 42.6636 11.0155C41.3992 8.44847 40.3407 5.78317 40.3407 5.78317C40.3407 5.78317 39.5988 4.57849 38.8917 3.46596L37.8957 1.97619L37.8871 2.12595C37.6004 2.05934 37.3052 2.14249 37.1028 2.3512C36.7972 2.61405 36.615 2.9942 36.5914 3.40352C36.5742 3.70302 36.6468 4.00771 36.8127 4.25766L36.9378 4.34501Z" fill="#FCC21B"/>
<path d="M17.4492 55.5685C17.4492 55.5685 14.5723 55.9536 11.6811 56.2378C8.78999 56.5219 5.90153 56.5858 5.90153 56.5858C5.90153 56.5858 1.06789 57.379 1.04894 58.2294C1.02998 59.0797 5.86833 59.7692 5.97104 59.725C6.07375 59.6809 8.98103 59.638 11.901 59.3756C14.8209 59.1132 17.8188 58.715 17.8188 58.715C17.8188 58.715 22.4767 57.3206 22.3071 56.4394C22.1963 55.5816 17.5584 55.5848 17.4492 55.5685Z" fill="#FCC21B"/>
<path d="M9.55893 42.1324L16.8488 43.7345C16.9287 43.7391 19.9464 43.6926 20.1356 42.8421C20.3249 41.9916 17.6051 40.6929 17.5152 40.6878L10.2376 39.0464C10.1577 39.0418 7.04081 39.0725 6.85156 39.923C6.66232 40.7735 9.48022 42.1079 9.55893 42.1324Z" fill="#FCC21B"/>
<path d="M22.135 27.2611L11.5386 17.8559C11.4146 17.7485 6.76938 14.576 6.19115 15.2238C5.61293 15.8716 9.32568 20.1023 9.43973 20.209L20.0561 29.6154C20.1702 29.7221 24.9582 33.023 25.5364 32.3752C26.1147 31.7274 22.2491 27.3678 22.135 27.2611Z" fill="#FCC21B"/>
<path d="M28.3896 22.6635C29.1415 23.3479 29.9684 23.9465 29.9684 23.9465C30.2944 24.0254 30.6327 24.0649 30.9639 24.0539C31.4425 24.0915 31.915 23.8884 32.217 23.5151C32.3826 23.0739 32.3504 22.5913 32.1437 22.1787C32.0594 21.9034 31.9446 21.6364 31.8087 21.3881C31.3573 21.0516 30.927 20.6963 30.5085 20.3115C30.0993 19.9374 29.7019 19.5338 29.3355 19.1121C29.0811 19.0073 28.815 18.9318 28.5378 18.8758C28.1054 18.7307 27.6228 18.7629 27.2196 18.9801C26.4803 19.4684 26.9039 21.1556 26.9621 21.189C27.4131 21.7058 27.8858 22.1938 28.3896 22.6635Z" fill="#FCC21B"/>
</svg>
