<svg width="30" height="22" viewBox="0 0 30 22" fill="none" xmlns="http://www.w3.org/2000/svg">
<path d="M4.35306 0.248656C4.52063 0.0860348 4.74593 -0.00337196 4.97942 9.73217e-05C5.2129 0.0035666 5.43544 0.0996274 5.59811 0.267155C5.77596 0.452639 5.87356 0.700737 5.86975 0.957684C5.86594 1.21463 5.76103 1.45973 5.57776 1.63986C3.18546 4.06033 1.84573 7.32755 1.85001 10.7308C1.85001 14.4123 3.38551 17.7349 5.85341 20.0918C5.9487 20.1798 6.0255 20.286 6.07932 20.404C6.13313 20.5221 6.16289 20.6497 6.16685 20.7794C6.17081 20.909 6.1489 21.0382 6.10239 21.1593C6.05588 21.2805 5.9857 21.3911 5.89596 21.4848C5.73682 21.6492 5.51983 21.745 5.29112 21.752C5.06242 21.7589 4.84004 21.6763 4.67126 21.5218C3.19473 20.1392 2.01816 18.4679 1.21459 16.6116C0.411021 14.7552 -0.00239424 12.7535 1.04302e-05 10.7308C1.04302e-05 6.63486 1.66501 2.92746 4.35306 0.248656Z" fill="currentColor"/>
<path d="M24.0222 1.63893C23.8392 1.45856 23.7346 1.21333 23.7311 0.956381C23.7277 0.699436 23.8256 0.451476 24.0037 0.266233C24.1663 0.0992674 24.3884 0.00356531 24.6215 9.76099e-05C24.8545 -0.00337009 25.0794 0.0856798 25.2469 0.247734C26.6286 1.62102 27.7246 3.25434 28.4717 5.05344C29.2189 6.85253 29.6023 8.78177 29.6 10.7298C29.6 14.9848 27.8055 18.8217 24.9287 21.5209C24.7599 21.6754 24.5375 21.7579 24.3088 21.751C24.0801 21.7441 23.8631 21.6483 23.704 21.4839C23.6145 21.3902 23.5446 21.2797 23.4983 21.1587C23.4519 21.0378 23.4301 20.9088 23.4341 20.7794C23.438 20.6499 23.4677 20.5225 23.5213 20.4046C23.575 20.2868 23.6515 20.1807 23.7466 20.0927C25.0136 18.8849 26.0219 17.4321 26.7101 15.8225C27.3983 14.213 27.7521 12.4803 27.75 10.7298C27.75 7.18523 26.3273 3.97733 24.0222 1.63708V1.63893Z" fill="currentColor"/>
<path d="M7.64421 3.49657C7.80906 3.33956 8.02954 3.25447 8.25714 3.26002C8.48473 3.26557 8.7008 3.36131 8.85781 3.52617C9.24261 3.91097 9.20376 4.54367 8.82451 4.93217C7.31486 6.48422 6.4717 8.56491 6.47501 10.7301C6.47501 13.1166 7.47956 15.27 9.09091 16.7888C9.49791 17.1718 9.5534 17.8267 9.15565 18.2244C9.00319 18.3829 8.79559 18.4767 8.57587 18.4864C8.35614 18.496 8.14112 18.4208 7.97536 18.2762C6.9193 17.3234 6.07532 16.1592 5.49814 14.8592C4.92097 13.5592 4.62349 12.1524 4.62501 10.7301C4.62501 7.89957 5.77941 5.34102 7.64421 3.49657Z" fill="currentColor"/>
<path d="M20.7744 4.93217C20.3951 4.54367 20.3563 3.91097 20.7411 3.52617C20.8981 3.36131 21.1142 3.26557 21.3418 3.26002C21.5694 3.25447 21.7898 3.33956 21.9547 3.49657C22.9126 4.44172 23.6729 5.56804 24.1912 6.8099C24.7096 8.05177 24.9756 9.38436 24.9739 10.7301C24.9759 12.1526 24.6788 13.5597 24.102 14.86C23.5251 16.1603 22.6813 17.3249 21.6254 18.2781C21.459 18.4232 21.2429 18.4985 21.0222 18.4882C20.8016 18.4778 20.5935 18.3827 20.4414 18.2226C20.0455 17.8267 20.101 17.1718 20.508 16.7888C21.3351 16.0114 21.994 15.0727 22.4439 14.0306C22.8939 12.9885 23.1253 11.8652 23.1239 10.7301C23.1272 8.56491 22.284 6.48422 20.7744 4.93217Z" fill="currentColor"/>
<path d="M14.8008 8.41797C14.1875 8.41797 13.5993 8.66161 13.1656 9.09528C12.7319 9.52896 12.4883 10.1172 12.4883 10.7305C12.4883 11.3438 12.7319 11.932 13.1656 12.3657C13.5993 12.7993 14.1875 13.043 14.8008 13.043C15.4141 13.043 16.0023 12.7993 16.436 12.3657C16.8696 11.932 17.1133 11.3438 17.1133 10.7305C17.1133 10.1172 16.8696 9.52896 16.436 9.09528C16.0023 8.66161 15.4141 8.41797 14.8008 8.41797Z" fill="currentColor"/>
</svg>
