<svg width="17" height="26" viewBox="0 0 17 26" fill="none" xmlns="http://www.w3.org/2000/svg">
<path d="M8.5 0C3.83481 0 0 3.56731 0 8.65385C0 10.468 0.434808 11.7308 1.24558 13.1314L7.92788 24.6699C8.10115 24.9808 8.5 25.093 8.81711 24.9199C8.925 24.8622 9.01327 24.7757 9.07211 24.6699L15.7544 13.1314C16.5652 11.734 17 10.4712 17 8.65385C17 3.56731 13.1652 0 8.5 0ZM8.5 4.48718C10.6675 4.48718 12.4231 6.20834 12.4231 8.33334C12.4231 10.4584 10.6675 12.1795 8.5 12.1795C6.3325 12.1795 4.57692 10.4584 4.57692 8.33334C4.57692 6.20834 6.3325 4.48718 8.5 4.48718Z" fill="#5382DE"/>
</svg>
