<svg width="126" height="40" viewBox="0 0 126 40" fill="none" xmlns="http://www.w3.org/2000/svg">
<path d="M32.394 29.144C32.01 29.144 31.74 29.066 31.584 28.91C31.428 28.754 31.35 28.502 31.35 28.154V17.822C31.35 17.582 31.44 17.378 31.62 17.21C31.8 17.03 32.004 16.94 32.232 16.94H35.292C36.156 16.94 36.894 17.09 37.506 17.39C38.13 17.678 38.598 18.068 38.91 18.56C39.222 19.04 39.378 19.562 39.378 20.126C39.378 21.026 39.102 21.776 38.55 22.376C39.162 22.664 39.618 23.048 39.918 23.528C40.218 23.996 40.368 24.578 40.368 25.274C40.368 26.522 39.702 27.482 38.37 28.154C37.038 28.814 35.046 29.144 32.394 29.144ZM35.904 21.818C36.396 21.818 36.798 21.65 37.11 21.314C37.434 20.966 37.596 20.576 37.596 20.144C37.596 19.724 37.392 19.376 36.984 19.1C36.588 18.812 36.024 18.668 35.292 18.668H33.15V21.818H35.904ZM33.15 27.434C34.746 27.41 36.048 27.218 37.056 26.858C38.076 26.498 38.586 25.97 38.586 25.274C38.586 24.758 38.352 24.344 37.884 24.032C37.416 23.708 36.756 23.546 35.904 23.546H33.15V27.434ZM43.2359 29.09C43.0079 29.102 42.8039 29.018 42.6239 28.838C42.4439 28.658 42.3539 28.454 42.3539 28.226V17.732C42.3539 17.492 42.4379 17.288 42.6059 17.12C42.7859 16.94 43.0019 16.85 43.2539 16.85C43.4939 16.85 43.6979 16.94 43.8659 17.12C44.0459 17.288 44.1359 17.492 44.1359 17.732V27.272L49.0319 26.948C49.2839 26.936 49.4939 27.014 49.6619 27.182C49.8299 27.338 49.9139 27.548 49.9139 27.812C49.9139 28.028 49.8299 28.232 49.6619 28.424C49.5059 28.604 49.3199 28.7 49.1039 28.712L43.2359 29.09ZM59.1244 29.126C58.6924 29.126 58.4104 28.922 58.2784 28.514L56.9824 24.77L53.3104 25.58L52.1404 28.532C52.0684 28.7 51.9604 28.838 51.8164 28.946C51.6844 29.054 51.5164 29.108 51.3124 29.108C51.0724 29.108 50.8624 29.024 50.6824 28.856C50.5024 28.688 50.4124 28.49 50.4124 28.262C50.4124 28.106 50.4544 27.926 50.5384 27.722L51.2584 25.922C51.1864 25.898 51.1324 25.874 51.0964 25.85C50.7844 25.694 50.6284 25.43 50.6284 25.058C50.6284 24.842 50.6884 24.656 50.8084 24.5C50.9404 24.344 51.1084 24.242 51.3124 24.194L51.9784 24.05L54.6424 17.282C54.7144 17.102 54.8284 16.964 54.9844 16.868C55.1404 16.772 55.3084 16.724 55.4884 16.724C55.6804 16.724 55.8484 16.772 55.9924 16.868C56.1364 16.964 56.2444 17.114 56.3164 17.318L59.8984 27.704C59.9104 27.728 59.9344 27.8 59.9704 27.92C60.0064 28.028 60.0244 28.142 60.0244 28.262C60.0244 28.49 59.9404 28.694 59.7724 28.874C59.6044 29.042 59.3884 29.126 59.1244 29.126ZM56.3884 23.096L55.4164 20.198L54.0664 23.6L56.3884 23.096ZM63.3332 29.108C63.0932 29.108 62.8832 29.024 62.7032 28.856C62.5232 28.676 62.4332 28.466 62.4332 28.226V18.74H59.6072C59.3672 18.74 59.1572 18.65 58.9772 18.47C58.8092 18.29 58.7252 18.08 58.7252 17.84C58.7252 17.588 58.8092 17.378 58.9772 17.21C59.1572 17.042 59.3672 16.958 59.6072 16.958H67.0592C67.3112 16.958 67.5212 17.042 67.6892 17.21C67.8572 17.378 67.9412 17.588 67.9412 17.84C67.9412 18.092 67.8572 18.308 67.6892 18.488C67.5212 18.656 67.3112 18.74 67.0592 18.74H64.2152V28.226C64.2152 28.466 64.1252 28.676 63.9452 28.856C63.7772 29.024 63.5732 29.108 63.3332 29.108ZM70.2886 29.108C70.0366 29.108 69.8266 29.024 69.6586 28.856C69.4906 28.676 69.4066 28.466 69.4066 28.226V17.732C69.4066 17.48 69.4906 17.27 69.6586 17.102C69.8266 16.934 70.0366 16.85 70.2886 16.85C70.5406 16.85 70.7566 16.934 70.9366 17.102C71.1166 17.27 71.2066 17.48 71.2066 17.732V22.412L77.7586 21.494V17.732C77.7586 17.48 77.8426 17.27 78.0106 17.102C78.1906 16.934 78.4066 16.85 78.6586 16.85C78.8986 16.85 79.1086 16.934 79.2886 17.102C79.4686 17.27 79.5586 17.48 79.5586 17.732V28.226C79.5586 28.454 79.4686 28.658 79.2886 28.838C79.1086 29.018 78.8986 29.108 78.6586 29.108C78.4066 29.108 78.1906 29.024 78.0106 28.856C77.8426 28.676 77.7586 28.466 77.7586 28.226V23.258L71.2066 24.176V28.226C71.2066 28.466 71.1166 28.676 70.9366 28.856C70.7566 29.024 70.5406 29.108 70.2886 29.108ZM89.7983 29.126C89.3663 29.126 89.0843 28.922 88.9523 28.514L87.6563 24.77L83.9843 25.58L82.8143 28.532C82.7423 28.7 82.6343 28.838 82.4903 28.946C82.3583 29.054 82.1903 29.108 81.9863 29.108C81.7463 29.108 81.5363 29.024 81.3563 28.856C81.1763 28.688 81.0863 28.49 81.0863 28.262C81.0863 28.106 81.1283 27.926 81.2123 27.722L81.9323 25.922C81.8603 25.898 81.8063 25.874 81.7703 25.85C81.4583 25.694 81.3023 25.43 81.3023 25.058C81.3023 24.842 81.3623 24.656 81.4823 24.5C81.6143 24.344 81.7823 24.242 81.9863 24.194L82.6523 24.05L85.3163 17.282C85.3883 17.102 85.5023 16.964 85.6582 16.868C85.8143 16.772 85.9823 16.724 86.1623 16.724C86.3543 16.724 86.5223 16.772 86.6663 16.868C86.8103 16.964 86.9183 17.114 86.9903 17.318L90.5723 27.704C90.5843 27.728 90.6083 27.8 90.6443 27.92C90.6803 28.028 90.6983 28.142 90.6983 28.262C90.6983 28.49 90.6143 28.694 90.4463 28.874C90.2783 29.042 90.0623 29.126 89.7983 29.126ZM87.0623 23.096L86.0903 20.198L84.7403 23.6L87.0623 23.096ZM95.0319 29.216C94.6119 29.216 94.1859 29.174 93.7539 29.09C93.3219 29.018 93.0279 28.958 92.8719 28.91C92.6799 28.85 92.5179 28.736 92.3859 28.568C92.2539 28.4 92.1879 28.22 92.1879 28.028V17.822C92.1879 17.57 92.2719 17.36 92.4399 17.192C92.6199 17.024 92.8359 16.94 93.0879 16.94C94.2999 16.94 95.5239 17.12 96.7599 17.48C97.9959 17.84 99.0639 18.512 99.9639 19.496C100.876 20.48 101.332 21.842 101.332 23.582C101.332 24.842 101.056 25.898 100.504 26.75C99.9519 27.59 99.2019 28.214 98.2539 28.622C97.3059 29.018 96.2319 29.216 95.0319 29.216ZM95.0319 27.416C96.4359 27.416 97.5339 27.092 98.3259 26.444C99.1299 25.796 99.5319 24.842 99.5319 23.582C99.5319 22.022 99.0219 20.864 98.0019 20.108C96.9939 19.352 95.6559 18.908 93.9879 18.776V27.308C94.3959 27.38 94.7439 27.416 95.0319 27.416ZM104.303 29C104.051 29 103.835 28.916 103.655 28.748C103.487 28.568 103.403 28.352 103.403 28.1V17.84C103.403 17.588 103.487 17.378 103.655 17.21C103.835 17.03 104.051 16.94 104.303 16.94H111.485C111.737 16.94 111.947 17.03 112.115 17.21C112.283 17.378 112.367 17.588 112.367 17.84C112.367 18.092 112.283 18.308 112.115 18.488C111.947 18.656 111.737 18.74 111.485 18.74H105.185V21.836H110.657C110.909 21.836 111.119 21.92 111.287 22.088C111.455 22.256 111.539 22.466 111.539 22.718C111.539 22.97 111.455 23.186 111.287 23.366C111.119 23.534 110.909 23.618 110.657 23.618H105.185V27.2H111.449C111.701 27.2 111.911 27.29 112.079 27.47C112.247 27.638 112.331 27.848 112.331 28.1C112.331 28.352 112.247 28.568 112.079 28.748C111.911 28.916 111.701 29 111.449 29H104.303ZM114.487 29.108C114.223 29.108 114.007 29.024 113.839 28.856C113.671 28.676 113.587 28.466 113.587 28.226C113.587 28.13 113.605 28.028 113.641 27.92C113.677 27.8 113.725 27.71 113.785 27.65L117.799 22.88L114.145 18.29C114.001 18.098 113.929 17.912 113.929 17.732C113.929 17.492 114.019 17.288 114.199 17.12C114.391 16.94 114.607 16.85 114.847 16.85C115.123 16.85 115.351 16.958 115.531 17.174L118.969 21.476L122.587 17.174C122.671 17.066 122.773 16.988 122.893 16.94C123.025 16.88 123.151 16.85 123.271 16.85C123.511 16.85 123.721 16.94 123.901 17.12C124.081 17.3 124.171 17.504 124.171 17.732C124.171 17.936 124.099 18.128 123.955 18.308L120.103 22.898L123.901 27.686C124.009 27.818 124.063 27.998 124.063 28.226C124.063 28.466 123.979 28.676 123.811 28.856C123.643 29.024 123.439 29.108 123.199 29.108C122.911 29.108 122.677 29 122.497 28.784L118.915 24.32L115.153 28.784C114.973 29 114.751 29.108 114.487 29.108Z" fill="white"/>
<path fill-rule="evenodd" clip-rule="evenodd" d="M1.19618 5.51361L1.19618 0L4.76158 2.05848C6.0246 1.38299 7.46757 1 9 1C12.4829 1 15.5038 2.97844 17 5.8728C18.4962 2.97844 21.5171 1 25 1C26.8179 1 28.51 1.539 29.9251 2.46592L34.1962 0L34 10C34 10.4365 33.9689 10.8658 33.9089 11.2857C33.285 7.1665 29.534 4 25 4C21.947 4 19.2491 5.43569 17.6218 7.6312C16.1046 5.44485 13.4816 4 10.5 4C5.80558 4 2 7.58172 2 12C2 14.8535 3.58732 17.358 5.97626 18.7742C5.34508 20.245 5 21.8374 5 23.5C5 30.9558 11.9396 37 20.5 37C23.1377 37 25.6215 36.4262 27.7958 35.414C25.0677 38.2414 21.2392 40 17 40C8.71573 40 2 33.2843 2 25C2 22.2646 2.73222 19.7001 4.01135 17.492C1.59301 15.8785 0 13.1253 0 10C0 8.36632 0.435277 6.83431 1.19618 5.51361Z" fill="white"/>
<path fill-rule="evenodd" clip-rule="evenodd" d="M13.7438 15.2693C11.9379 15.6349 9.9543 14.5188 9.0631 12.5159C8.1719 10.5131 8.67074 8.29245 10.1513 7.19559C9.87604 7.2595 9.60284 7.3504 9.33505 7.46955C7.06441 8.47991 6.04275 11.1397 7.05311 13.4103C8.06347 15.681 10.7232 16.7026 12.9939 15.6923C13.2617 15.5731 13.5121 15.431 13.7438 15.2693Z" fill="white"/>
<path fill-rule="evenodd" clip-rule="evenodd" d="M14.6738 18.9708C15.6834 18.4342 16.5647 17.709 17.2638 16.8459C17.7958 17.6889 18.478 18.4376 19.2754 19.0591L17.0001 23L14.6738 18.9708Z" fill="#74CDE9"/>
<path fill-rule="evenodd" clip-rule="evenodd" d="M29.4108 14.4508C27.856 15.4397 25.6041 15.1091 24.054 13.5589C22.5039 12.0088 22.1733 9.757 23.1621 8.20218C22.9281 8.36055 22.7057 8.54337 22.4984 8.75062C20.741 10.508 20.741 13.3572 22.4984 15.1146C24.2558 16.8719 27.105 16.8719 28.8624 15.1146C29.0696 14.9073 29.2524 14.6849 29.4108 14.4508Z" fill="white"/>
</svg>
