<svg width="179" height="98" viewBox="0 0 179 98" fill="none" xmlns="http://www.w3.org/2000/svg">
<path d="M43.8766 63.2761C43.3565 63.2761 42.9908 63.1704 42.7795 62.9592C42.5682 62.7479 42.4625 62.4065 42.4625 61.9352V47.9408C42.4625 47.6157 42.5844 47.3394 42.8282 47.1119C43.0721 46.8681 43.3484 46.7462 43.6572 46.7462H47.8018C48.9721 46.7462 49.9717 46.9494 50.8006 47.3557C51.6458 47.7458 52.2797 48.274 52.7023 48.9404C53.1249 49.5906 53.3362 50.2976 53.3362 51.0615C53.3362 52.2805 52.9624 53.2964 52.2147 54.1091C53.0436 54.4992 53.6613 55.0193 54.0676 55.6694C54.474 56.3033 54.6771 57.0916 54.6771 58.0343C54.6771 59.7247 53.775 61.025 51.9709 61.9352C50.1667 62.8291 47.4687 63.2761 43.8766 63.2761ZM48.6308 53.3533C49.2972 53.3533 49.8417 53.1257 50.2643 52.6706C50.7031 52.1993 50.9225 51.671 50.9225 51.0859C50.9225 50.517 50.6462 50.0457 50.0936 49.6718C49.5572 49.2817 48.7933 49.0867 47.8018 49.0867H44.9006V53.3533H48.6308ZM44.9006 60.96C47.0623 60.9275 48.8258 60.6674 50.1911 60.1798C51.5727 59.6922 52.2635 58.977 52.2635 58.0343C52.2635 57.3354 51.9465 56.7747 51.3126 56.3521C50.6787 55.9132 49.7848 55.6938 48.6308 55.6938H44.9006V60.96ZM58.5616 63.203C58.2528 63.2192 57.9765 63.1054 57.7327 62.8616C57.4889 62.6178 57.367 62.3415 57.367 62.0327V47.8189C57.367 47.4938 57.4807 47.2175 57.7083 46.99C57.9521 46.7462 58.2447 46.6243 58.586 46.6243C58.9111 46.6243 59.1874 46.7462 59.4149 46.99C59.6587 47.2175 59.7806 47.4938 59.7806 47.8189V60.7405L66.4121 60.3017C66.7534 60.2854 67.0379 60.3911 67.2654 60.6186C67.493 60.8299 67.6067 61.1144 67.6067 61.4719C67.6067 61.7645 67.493 62.0408 67.2654 62.3009C67.0541 62.5447 66.8022 62.6747 66.5096 62.691L58.5616 63.203ZM80.0821 63.2517C79.4969 63.2517 79.115 62.9754 78.9362 62.4228L77.1808 57.3517L72.2072 58.4488L70.6225 62.4472C70.525 62.6747 70.3787 62.8616 70.1836 63.0079C70.0048 63.1542 69.7773 63.2273 69.501 63.2273C69.1759 63.2273 68.8915 63.1136 68.6477 62.886C68.4039 62.6585 68.282 62.3903 68.282 62.0815C68.282 61.8702 68.3389 61.6264 68.4526 61.35L69.4278 58.912C69.3303 58.8795 69.2572 58.847 69.2084 58.8145C68.7858 58.6032 68.5745 58.2456 68.5745 57.7417C68.5745 57.4492 68.6558 57.1972 68.8183 56.986C68.9971 56.7747 69.2247 56.6365 69.501 56.5715L70.4031 56.3764L74.0114 47.2094C74.1089 46.9656 74.2633 46.7787 74.4746 46.6487C74.6859 46.5186 74.9134 46.4536 75.1572 46.4536C75.4173 46.4536 75.6448 46.5186 75.8399 46.6487C76.0349 46.7787 76.1812 46.9819 76.2787 47.2582L81.1304 61.3257C81.1467 61.3582 81.1792 61.4557 81.228 61.6182C81.2767 61.7645 81.3011 61.9189 81.3011 62.0815C81.3011 62.3903 81.1873 62.6666 80.9598 62.9104C80.7322 63.1379 80.4397 63.2517 80.0821 63.2517ZM76.3763 55.0843L75.0597 51.159L73.2312 55.7669L76.3763 55.0843ZM85.7827 63.2273C85.4576 63.2273 85.1732 63.1136 84.9294 62.886C84.6856 62.6422 84.5637 62.3578 84.5637 62.0327V49.1842H80.736C80.4109 49.1842 80.1265 49.0623 79.8827 48.8185C79.6551 48.5747 79.5413 48.2903 79.5413 47.9652C79.5413 47.6239 79.6551 47.3394 79.8827 47.1119C80.1265 46.8843 80.4109 46.7706 80.736 46.7706H90.8295C91.1708 46.7706 91.4552 46.8843 91.6828 47.1119C91.9103 47.3394 92.0241 47.6239 92.0241 47.9652C92.0241 48.3065 91.9103 48.5991 91.6828 48.8429C91.4552 49.0704 91.1708 49.1842 90.8295 49.1842H86.9774V62.0327C86.9774 62.3578 86.8555 62.6422 86.6116 62.886C86.3841 63.1136 86.1078 63.2273 85.7827 63.2273ZM95.2036 63.2273C94.8623 63.2273 94.5779 63.1136 94.3503 62.886C94.1228 62.6422 94.009 62.3578 94.009 62.0327V47.8189C94.009 47.4776 94.1228 47.1932 94.3503 46.9656C94.5779 46.7381 94.8623 46.6243 95.2036 46.6243C95.545 46.6243 95.8375 46.7381 96.0813 46.9656C96.3251 47.1932 96.447 47.4776 96.447 47.8189V54.1578L105.322 52.9144V47.8189C105.322 47.4776 105.435 47.1932 105.663 46.9656C105.907 46.7381 106.199 46.6243 106.541 46.6243C106.866 46.6243 107.15 46.7381 107.394 46.9656C107.638 47.1932 107.76 47.4776 107.76 47.8189V62.0327C107.76 62.3415 107.638 62.6178 107.394 62.8616C107.15 63.1054 106.866 63.2273 106.541 63.2273C106.199 63.2273 105.907 63.1136 105.663 62.886C105.435 62.6422 105.322 62.3578 105.322 62.0327V55.3037L96.447 56.5471V62.0327C96.447 62.3578 96.3251 62.6422 96.0813 62.886C95.8375 63.1136 95.545 63.2273 95.2036 63.2273ZM121.629 63.2517C121.044 63.2517 120.662 62.9754 120.483 62.4228L118.727 57.3517L113.754 58.4488L112.169 62.4472C112.072 62.6747 111.925 62.8616 111.73 63.0079C111.552 63.1542 111.324 63.2273 111.048 63.2273C110.723 63.2273 110.438 63.1136 110.194 62.886C109.951 62.6585 109.829 62.3903 109.829 62.0815C109.829 61.8702 109.886 61.6264 109.999 61.35L110.975 58.912C110.877 58.8795 110.804 58.847 110.755 58.8145C110.333 58.6032 110.121 58.2456 110.121 57.7417C110.121 57.4492 110.202 57.1972 110.365 56.986C110.544 56.7747 110.771 56.6365 111.048 56.5715L111.95 56.3764L115.558 47.2094C115.656 46.9656 115.81 46.7787 116.021 46.6487C116.233 46.5186 116.46 46.4536 116.704 46.4536C116.964 46.4536 117.192 46.5186 117.387 46.6487C117.582 46.7787 117.728 46.9819 117.825 47.2582L122.677 61.3257C122.693 61.3582 122.726 61.4557 122.775 61.6182C122.823 61.7645 122.848 61.9189 122.848 62.0815C122.848 62.3903 122.734 62.6666 122.506 62.9104C122.279 63.1379 121.986 63.2517 121.629 63.2517ZM117.923 55.0843L116.606 51.159L114.778 55.7669L117.923 55.0843ZM128.718 63.3736C128.149 63.3736 127.572 63.3167 126.987 63.203C126.401 63.1054 126.003 63.0242 125.792 62.9592C125.532 62.8779 125.312 62.7235 125.134 62.4959C124.955 62.2684 124.865 62.0246 124.865 61.7645V47.9408C124.865 47.5995 124.979 47.3151 125.207 47.0875C125.451 46.86 125.743 46.7462 126.084 46.7462C127.726 46.7462 129.384 46.99 131.058 47.4776C132.732 47.9652 134.179 48.8754 135.398 50.2082C136.633 51.541 137.251 53.3858 137.251 55.7426C137.251 57.4492 136.877 58.8795 136.129 60.0335C135.382 61.1713 134.366 62.0164 133.082 62.5691C131.798 63.1054 130.343 63.3736 128.718 63.3736ZM128.718 60.9356C130.619 60.9356 132.106 60.4967 133.179 59.619C134.268 58.7413 134.813 57.4492 134.813 55.7426C134.813 53.6296 134.122 52.0611 132.74 51.0371C131.375 50.0132 129.563 49.4118 127.303 49.233V60.7893C127.856 60.8868 128.327 60.9356 128.718 60.9356ZM141.275 63.0811C140.933 63.0811 140.641 62.9673 140.397 62.7397C140.169 62.4959 140.056 62.2034 140.056 61.862V47.9652C140.056 47.6239 140.169 47.3394 140.397 47.1119C140.641 46.8681 140.933 46.7462 141.275 46.7462H151.002C151.344 46.7462 151.628 46.8681 151.856 47.1119C152.083 47.3394 152.197 47.6239 152.197 47.9652C152.197 48.3065 152.083 48.5991 151.856 48.8429C151.628 49.0704 151.344 49.1842 151.002 49.1842H142.469V53.3777H149.881C150.222 53.3777 150.507 53.4914 150.734 53.719C150.962 53.9465 151.076 54.231 151.076 54.5723C151.076 54.9136 150.962 55.2062 150.734 55.45C150.507 55.6775 150.222 55.7913 149.881 55.7913H142.469V60.643H150.954C151.295 60.643 151.579 60.7649 151.807 61.0087C152.034 61.2363 152.148 61.5207 152.148 61.862C152.148 62.2034 152.034 62.4959 151.807 62.7397C151.579 62.9673 151.295 63.0811 150.954 63.0811H141.275ZM155.068 63.2273C154.711 63.2273 154.418 63.1136 154.191 62.886C153.963 62.6422 153.849 62.3578 153.849 62.0327C153.849 61.9027 153.874 61.7645 153.923 61.6182C153.971 61.4557 154.036 61.3338 154.118 61.2525L159.554 54.7917L154.605 48.5747C154.41 48.3147 154.313 48.0627 154.313 47.8189C154.313 47.4938 154.435 47.2175 154.678 46.99C154.938 46.7462 155.231 46.6243 155.556 46.6243C155.93 46.6243 156.239 46.7706 156.482 47.0631L161.139 52.89L166.04 47.0631C166.153 46.9168 166.292 46.8112 166.454 46.7462C166.633 46.6649 166.803 46.6243 166.966 46.6243C167.291 46.6243 167.576 46.7462 167.819 46.99C168.063 47.2338 168.185 47.5101 168.185 47.8189C168.185 48.0952 168.088 48.3553 167.892 48.5991L162.675 54.8161L167.819 61.3013C167.966 61.4801 168.039 61.7239 168.039 62.0327C168.039 62.3578 167.925 62.6422 167.697 62.886C167.47 63.1136 167.194 63.2273 166.869 63.2273C166.478 63.2273 166.161 63.0811 165.918 62.7885L161.066 56.7421L155.97 62.7885C155.727 63.0811 155.426 63.2273 155.068 63.2273Z" fill="white"/>
<path d="M50.0751 83.0997C49.841 83.0997 49.6548 83.0305 49.5165 82.8922C49.3888 82.7539 49.325 82.5996 49.325 82.4294C49.325 82.2591 49.3463 82.0836 49.3888 81.9027L51.3678 72.8538C51.4104 72.6623 51.5008 72.5133 51.6391 72.4069C51.7774 72.2899 51.9477 72.2314 52.1498 72.2314C52.5222 72.2314 52.7669 72.4122 52.8839 72.774L55.1342 79.844L57.6877 72.7421C57.8154 72.4016 58.0814 72.2314 58.4857 72.2314C58.6665 72.2314 58.8155 72.2899 58.9325 72.4069C59.0602 72.5133 59.1453 72.6623 59.1879 72.8538L61.2147 81.8868C61.2679 82.1315 61.2945 82.2911 61.2945 82.3655C61.2945 82.5677 61.22 82.7432 61.0711 82.8922C60.9221 83.0305 60.7359 83.0997 60.5125 83.0997C60.2997 83.0997 60.1295 83.0465 60.0018 82.9401C59.8741 82.823 59.789 82.6741 59.7465 82.4932L58.2782 75.8222L55.8205 82.589C55.7673 82.7486 55.6715 82.8762 55.5332 82.972C55.3949 83.0571 55.2406 83.0997 55.0704 83.0997C54.698 83.0997 54.4533 82.9188 54.3362 82.557L52.2615 76.0616L50.8571 82.4772C50.8146 82.6688 50.7241 82.823 50.5858 82.9401C50.4475 83.0465 50.2773 83.0997 50.0751 83.0997ZM67.9602 83.2593C67.7474 83.2593 67.5718 83.2007 67.4335 83.0837C67.3058 82.9667 67.242 82.8124 67.242 82.6209V82.3975C66.8058 82.8656 66.1993 83.0997 65.4226 83.0997C64.8374 83.0997 64.3108 82.956 63.8426 82.6688C63.3745 82.3815 63.0074 81.9772 62.7415 81.4559C62.4755 80.9239 62.3425 80.3227 62.3425 79.6524C62.3425 78.9077 62.5021 78.1895 62.8212 77.4979C63.1404 76.7957 63.5873 76.2265 64.1618 75.7903C64.747 75.3541 65.4173 75.136 66.1727 75.136C66.6621 75.136 67.1037 75.2051 67.4973 75.3434C67.891 75.4711 68.3006 75.6307 68.7262 75.8222V82.4613C68.7262 82.6741 68.6517 82.8603 68.5028 83.0199C68.3538 83.1795 68.1729 83.2593 67.9602 83.2593ZM65.5343 81.6154C65.8429 81.6154 66.1408 81.5516 66.4281 81.4239C66.726 81.2963 66.9707 81.142 67.1622 80.9611L67.2101 76.7957C66.9015 76.6681 66.5664 76.6042 66.2046 76.6042C65.7471 76.6042 65.3428 76.7478 64.9917 77.0351C64.6406 77.3117 64.3693 77.6841 64.1778 78.1523C63.9863 78.6098 63.8905 79.0992 63.8905 79.6205C63.8905 80.2695 64.0342 80.7643 64.3214 81.1047C64.6087 81.4452 65.013 81.6154 65.5343 81.6154ZM73.6866 85.7808C73.0695 85.7808 72.4417 85.7064 71.8034 85.5574C71.6331 85.5148 71.4895 85.4244 71.3725 85.2861C71.2661 85.1478 71.2129 84.9882 71.2129 84.8073C71.2129 84.5945 71.2873 84.4136 71.4363 84.2647C71.5959 84.1157 71.7768 84.0413 71.9789 84.0413C72.1066 84.0413 72.2768 84.0679 72.4896 84.1211C72.5322 84.1317 72.6652 84.153 72.8886 84.1849C73.112 84.2275 73.3727 84.2487 73.6706 84.2487C74.7665 84.2487 75.357 83.7008 75.4421 82.6049L75.474 82.2219C75.2931 82.4666 75.0537 82.6528 74.7558 82.7805C74.4579 82.8975 74.1387 82.956 73.7983 82.956C73.2344 82.956 72.7024 82.8177 72.2023 82.5411C71.7129 82.2538 71.3193 81.8442 71.0214 81.3122C70.7234 80.7696 70.5745 80.1365 70.5745 79.4131C70.5745 78.6576 70.7394 77.9501 71.0692 77.2905C71.4097 76.6308 71.8672 76.1042 72.4417 75.7105C73.0269 75.3168 73.6706 75.12 74.3728 75.12C74.7665 75.12 75.208 75.2158 75.6974 75.4073C75.7826 75.1094 76.0273 74.9604 76.4316 74.9604C76.655 74.9604 76.8359 75.0242 76.9742 75.1519C77.1231 75.2689 77.1923 75.4658 77.1817 75.7424L77.0221 82.4772C77.0008 83.5731 76.6869 84.3977 76.0805 84.9509C75.474 85.5042 74.676 85.7808 73.6866 85.7808ZM73.7025 81.4559C74.2877 81.4559 74.7452 81.2484 75.075 80.8334C75.4049 80.4079 75.5698 79.7535 75.5698 78.8704V76.9394C75.4208 76.8542 75.2399 76.7851 75.0271 76.7319C74.825 76.6787 74.6282 76.6521 74.4367 76.6521C74.0004 76.6521 73.5961 76.7691 73.2237 77.0032C72.862 77.2266 72.5694 77.5405 72.346 77.9448C72.1332 78.3491 72.0268 78.8013 72.0268 79.3013C72.0268 79.9504 72.1864 80.4717 72.5056 80.8654C72.8354 81.259 73.2344 81.4559 73.7025 81.4559ZM80.5627 74.4657C80.3605 74.4657 80.1796 74.3859 80.02 74.2263C79.8711 74.0667 79.8019 73.8858 79.8126 73.6837L79.8285 73.0932C79.8392 72.891 79.919 72.7155 80.0679 72.5665C80.2169 72.4175 80.3924 72.3431 80.5946 72.3431C80.7967 72.3431 80.9723 72.4229 81.1212 72.5825C81.2808 72.7421 81.3553 72.9176 81.3447 73.1091L81.3287 73.7156C81.3181 73.9284 81.2383 74.1092 81.0893 74.2582C80.951 74.3965 80.7755 74.4657 80.5627 74.4657ZM80.4829 83.0997C80.2701 83.0997 80.0839 83.0252 79.9243 82.8762C79.7753 82.7166 79.7009 82.5304 79.7009 82.3177L79.7807 75.9658C79.7807 75.753 79.8551 75.5722 80.0041 75.4232C80.1637 75.2636 80.3499 75.1838 80.5627 75.1838C80.7861 75.1838 80.9723 75.2636 81.1212 75.4232C81.2702 75.5722 81.3447 75.753 81.3447 75.9658L81.2649 82.3177C81.2649 82.5304 81.1851 82.7166 81.0255 82.8762C80.8765 83.0252 80.6957 83.0997 80.4829 83.0997ZM86.55 83.0997C85.9117 83.0997 85.3265 82.9454 84.7945 82.6368C84.2625 82.3283 83.8423 81.908 83.5337 81.3761C83.2252 80.8334 83.0709 80.2429 83.0709 79.6046C83.0709 78.8811 83.2411 78.1735 83.5816 77.482C83.9221 76.7904 84.3689 76.2265 84.9222 75.7903C85.4754 75.3541 86.0606 75.136 86.6777 75.136C87.2416 75.136 87.6938 75.2264 88.0343 75.4073C88.3854 75.5775 88.7258 75.8541 89.0557 76.2371C89.2152 76.4074 89.295 76.5936 89.295 76.7957C89.295 76.9979 89.2206 77.1734 89.0716 77.3224C88.9227 77.4607 88.7418 77.5299 88.529 77.5299C88.3907 77.5299 88.279 77.5086 88.1938 77.466C88.1194 77.4235 88.0289 77.3383 87.9225 77.2107C87.7417 77.0085 87.5608 76.8542 87.3799 76.7478C87.2097 76.6415 86.9809 76.5883 86.6937 76.5883C86.3638 76.5883 86.0287 76.7319 85.6882 77.0192C85.3584 77.3064 85.0871 77.6841 84.8743 78.1523C84.6722 78.6098 84.5711 79.0832 84.5711 79.5726C84.5711 79.9982 84.6615 80.3706 84.8424 80.6898C85.0339 80.9983 85.2786 81.2377 85.5765 81.408C85.8744 81.5676 86.1883 81.6474 86.5181 81.6474C86.9437 81.6474 87.2895 81.5676 87.5555 81.408C87.8321 81.2484 88.0768 81.0303 88.2896 80.7536C88.4918 80.4877 88.7205 80.3547 88.9759 80.3547C89.178 80.3547 89.3536 80.4291 89.5025 80.5781C89.6515 80.7164 89.7259 80.876 89.7259 81.0569C89.7259 81.2697 89.6674 81.4505 89.5504 81.5995C89.2418 82.0144 88.8216 82.3709 88.2896 82.6688C87.7576 82.956 87.1778 83.0997 86.55 83.0997ZM97.6286 83.0837C97.4264 83.0943 97.2455 83.0199 97.0859 82.8603C96.9263 82.7007 96.8465 82.5198 96.8465 82.3177V73.0134C96.8465 72.8006 96.921 72.6197 97.07 72.4707C97.2296 72.3112 97.4211 72.2314 97.6445 72.2314C97.8573 72.2314 98.0382 72.3112 98.1871 72.4707C98.3467 72.6197 98.4265 72.8006 98.4265 73.0134V81.4718L102.767 81.1845C102.991 81.1739 103.177 81.2431 103.326 81.392C103.475 81.5303 103.549 81.7165 103.549 81.9506C103.549 82.1421 103.475 82.323 103.326 82.4932C103.188 82.6528 103.023 82.7379 102.831 82.7486L97.6286 83.0837ZM105.811 74.4657C105.609 74.4657 105.428 74.3859 105.268 74.2263C105.119 74.0667 105.05 73.8858 105.061 73.6837L105.077 73.0932C105.087 72.891 105.167 72.7155 105.316 72.5665C105.465 72.4175 105.641 72.3431 105.843 72.3431C106.045 72.3431 106.22 72.4229 106.369 72.5825C106.529 72.7421 106.603 72.9176 106.593 73.1091L106.577 73.7156C106.566 73.9284 106.486 74.1092 106.337 74.2582C106.199 74.3965 106.024 74.4657 105.811 74.4657ZM105.731 83.0997C105.518 83.0997 105.332 83.0252 105.172 82.8762C105.024 82.7166 104.949 82.5304 104.949 82.3177L105.029 75.9658C105.029 75.753 105.103 75.5722 105.252 75.4232C105.412 75.2636 105.598 75.1838 105.811 75.1838C106.034 75.1838 106.22 75.2636 106.369 75.4232C106.518 75.5722 106.593 75.753 106.593 75.9658L106.513 82.3177C106.513 82.5304 106.433 82.7166 106.274 82.8762C106.125 83.0252 105.944 83.0997 105.731 83.0997ZM109.596 83.0997C109.394 83.0997 109.213 83.0252 109.053 82.8762C108.904 82.7273 108.83 82.557 108.83 82.3655V75.886C108.83 75.6733 108.91 75.4924 109.069 75.3434C109.229 75.1945 109.415 75.12 109.628 75.12C109.83 75.12 110 75.1945 110.138 75.3434C110.287 75.4924 110.362 75.6733 110.362 75.886V77.099C110.66 76.4606 111.037 75.9765 111.495 75.6467C111.952 75.3062 112.453 75.136 112.995 75.136C113.591 75.136 114.064 75.2743 114.416 75.5509C114.767 75.8275 115.022 76.285 115.182 76.9234C115.341 77.5511 115.421 78.4236 115.421 79.5407L115.405 82.3336C115.405 82.5358 115.336 82.7166 115.198 82.8762C115.059 83.0252 114.884 83.0997 114.671 83.0997C114.469 83.0997 114.288 83.0252 114.128 82.8762C113.979 82.7166 113.905 82.5411 113.905 82.3496V79.7003C113.905 78.8704 113.868 78.2321 113.793 77.7852C113.719 77.3383 113.607 77.0351 113.458 76.8755C113.309 76.7053 113.107 76.6202 112.852 76.6202C112.532 76.6202 112.213 76.7585 111.894 77.0351C111.575 77.3011 111.277 77.6841 111 78.1842C110.756 78.6204 110.585 79.046 110.49 79.4609C110.394 79.8759 110.346 80.3759 110.346 80.9611V82.3017C110.346 82.5358 110.277 82.7273 110.138 82.8762C110.011 83.0252 109.83 83.0997 109.596 83.0997ZM118.293 83.0997C118.102 83.0997 117.926 83.0252 117.766 82.8762C117.607 82.7166 117.527 82.5358 117.527 82.3336L117.495 73.1251C117.495 72.9229 117.57 72.7474 117.719 72.5984C117.878 72.4495 118.064 72.375 118.277 72.375C118.501 72.375 118.681 72.4548 118.82 72.6144C118.969 72.7633 119.043 72.9442 119.043 73.157L119.059 78.3278C119.506 77.9448 120.027 77.4501 120.623 76.8436C121.219 76.2371 121.724 75.6839 122.139 75.1838C122.31 74.971 122.517 74.8646 122.762 74.8646C122.975 74.8646 123.15 74.9338 123.288 75.0721C123.437 75.2104 123.512 75.386 123.512 75.5988C123.512 75.7796 123.459 75.9339 123.352 76.0616C123.076 76.434 122.725 76.8436 122.299 77.2905C121.884 77.7373 121.501 78.1257 121.15 78.4555L123.783 81.7591C123.921 81.9187 123.991 82.0836 123.991 82.2538C123.991 82.4772 123.916 82.6688 123.767 82.8284C123.629 82.9773 123.448 83.0518 123.225 83.0518C122.969 83.0518 122.767 82.9613 122.618 82.7805C121.788 81.6633 121.001 80.6419 120.256 79.7163L120.001 79.3811C119.777 79.5514 119.469 79.7642 119.075 80.0195V82.3336C119.075 82.5358 119.001 82.7166 118.852 82.8762C118.703 83.0252 118.517 83.0997 118.293 83.0997Z" fill="white"/>
<path fill-rule="evenodd" clip-rule="evenodd" d="M46.3176 23.4707L46.0519 37.0154C46.0519 37.6069 46.0097 38.1885 45.9283 38.7575C45.0829 33.1786 40.0026 28.8901 33.8617 28.8901C29.7265 28.8901 26.0723 30.8347 23.8682 33.8085C21.8132 30.8471 18.2604 28.8901 14.2219 28.8901C7.8635 28.8901 2.70896 33.7414 2.70896 39.7258C2.70896 43.5906 4.85868 46.9827 8.09409 48.9009C7.23954 50.8927 6.77235 53.0491 6.77235 55.3006C6.77235 65.3992 16.1718 73.5859 27.7666 73.5859C31.3393 73.5859 34.7036 72.8086 37.6486 71.4376C33.9536 75.2673 28.7679 77.6493 23.026 77.6493C11.8052 77.6493 2.70895 68.5531 2.70895 57.3323C2.70895 53.6272 3.70075 50.1537 5.43334 47.1629C2.15772 44.9775 0 41.2483 0 37.0151C0 34.8024 0.589567 32.7273 1.62019 30.9385L1.62019 23.4708L6.44912 26.2587C8.15991 25.3437 10.1145 24.8249 12.1902 24.8249C16.9078 24.8249 20.9994 27.5047 23.026 31.4251C25.0526 27.5048 29.1442 24.8252 33.8617 24.8252C36.324 24.8252 38.6158 25.5552 40.5325 26.8107L46.3176 23.4707Z" fill="white"/>
<path fill-rule="evenodd" clip-rule="evenodd" d="M18.6162 44.1534C16.1697 44.6493 13.4823 43.1376 12.275 40.4243C11.0681 37.7121 11.7432 34.705 13.7477 33.219C13.3753 33.3055 13.0057 33.4286 12.6434 33.5898C9.56785 34.9583 8.18405 38.5608 9.55254 41.6363C10.921 44.7118 14.5236 46.0957 17.5991 44.7272C17.9623 44.5656 18.3019 44.3728 18.6162 44.1534Z" fill="white"/>
<path fill-rule="evenodd" clip-rule="evenodd" d="M19.875 49.1672C21.2425 48.4404 22.4363 47.4581 23.3832 46.2891C24.1039 47.4309 25.0279 48.4451 26.1081 49.2869L23.0261 54.625L19.875 49.1672Z" fill="#74CDE9"/>
<path fill-rule="evenodd" clip-rule="evenodd" d="M39.8356 43.0466C37.7296 44.386 34.6795 43.9382 32.5799 41.8386C30.4803 39.7391 30.0325 36.689 31.3718 34.5831C31.0548 34.7976 30.7536 35.0452 30.4729 35.3259C28.0926 37.7061 28.0926 41.5653 30.4729 43.9456C32.8532 46.3259 36.7124 46.3259 39.0927 43.9456C39.3734 43.6649 39.621 43.3636 39.8356 43.0466Z" fill="white"/>
<path d="M134.417 87.6078C134.187 87.421 133.943 87.2504 133.687 87.0959C133.687 87.0959 132.75 86.6781 131.778 86.3595C130.806 86.0409 129.803 85.8048 129.803 85.8048C129.511 85.7783 129.215 85.7685 128.921 85.7757C128.486 85.7988 128.078 85.8524 128.042 86.0117C128.007 86.1711 128.399 86.3503 128.779 86.5216C129.159 86.6929 129.531 86.854 129.562 86.8486C129.594 86.8432 130.514 87.0672 131.435 87.3805C132.357 87.6938 133.252 88.0803 133.252 88.0803C133.252 88.0803 133.72 88.1916 134.158 88.2891L134.756 88.4079L134.722 88.3698C134.807 88.3169 134.858 88.2259 134.857 88.127C134.867 87.9903 134.819 87.855 134.726 87.7509C134.659 87.6747 134.568 87.6189 134.468 87.5987L134.417 87.6078Z" fill="#FCC21B"/>
<path d="M126.784 70.5985C126.784 70.5985 127.383 69.8139 128.01 69.0502C128.637 68.2865 129.317 67.5764 129.317 67.5764C129.317 67.5764 130.288 66.223 130.088 66.0139C129.889 65.8048 128.559 66.8027 128.545 66.838C128.531 66.8734 127.842 67.5829 127.203 68.3484C126.563 69.1138 125.938 69.9306 125.938 69.9306C125.938 69.9306 125.153 71.3863 125.406 71.5575C125.639 71.7371 126.754 70.6209 126.784 70.5985Z" fill="#FCC21B"/>
<path d="M131.913 71.9331L129.775 73.3012C129.754 73.3193 129.04 74.0563 129.199 74.3064C129.358 74.5565 130.324 74.2146 130.347 74.1943L132.492 72.8386C132.513 72.8205 133.255 72.0634 133.096 71.8134C132.937 71.5633 131.938 71.9201 131.913 71.9331Z" fill="#FCC21B"/>
<path d="M132.465 78.5353L137.276 78.2487C137.332 78.2447 139.212 77.8905 139.195 77.5956C139.179 77.3007 137.268 77.1762 137.215 77.1779L132.399 77.469C132.346 77.4707 130.4 77.8284 130.417 78.1233C130.434 78.4182 132.412 78.537 132.465 78.5353Z" fill="#FCC21B"/>
<path d="M132.067 81.1457C131.721 81.162 131.378 81.2169 131.378 81.2169C131.281 81.2763 131.19 81.3482 131.113 81.4305C130.989 81.5366 130.924 81.6991 130.941 81.8615C131.008 82.0074 131.131 82.1158 131.28 82.1653C131.367 82.2112 131.459 82.2478 131.551 82.2749C131.741 82.2472 131.93 82.2292 132.123 82.2211C132.311 82.2127 132.504 82.2141 132.693 82.2275C132.78 82.1915 132.862 82.1456 132.942 82.0924C133.081 82.0233 133.189 81.8995 133.234 81.7503C133.294 81.455 132.787 81.1511 132.765 81.1571C132.532 81.1412 132.301 81.1375 132.067 81.1457Z" fill="#FCC21B"/>
<path d="M39.0511 70.0163C39.2813 70.203 39.5244 70.3736 39.7805 70.5281C39.7805 70.5281 40.7177 70.9459 41.6896 71.2645C42.6614 71.5831 43.6645 71.8192 43.6645 71.8192C43.9569 71.8457 44.2526 71.8555 44.547 71.8484C44.982 71.8253 45.3898 71.7717 45.4255 71.6123C45.4612 71.4529 45.0692 71.2737 44.6887 71.1025C44.3083 70.9312 43.937 70.77 43.9053 70.7754C43.8737 70.7808 42.9542 70.5568 42.0327 70.2435C41.1112 69.9302 40.2155 69.5437 40.2155 69.5437C40.2155 69.5437 39.7473 69.4324 39.3096 69.3349L38.7118 69.2161L38.7457 69.2542C38.6608 69.3071 38.6097 69.3982 38.6113 69.497C38.601 69.6338 38.6486 69.769 38.7414 69.8731C38.8093 69.9493 38.9 70.0051 39 70.0254L39.0511 70.0163Z" fill="#FCC21B"/>
<path d="M46.684 87.0235C46.684 87.0235 46.0846 87.8081 45.4576 88.5719C44.8306 89.3356 44.1512 90.0457 44.1512 90.0457C44.1512 90.0457 43.1794 91.3991 43.3793 91.6082C43.5793 91.8173 44.9089 90.8194 44.923 90.784C44.937 90.7487 45.626 90.0392 46.2652 89.2737C46.9044 88.5083 47.5297 87.6915 47.5297 87.6915C47.5297 87.6915 48.3146 86.2357 48.0619 86.0646C47.8289 85.8849 46.7142 87.0012 46.684 87.0235Z" fill="#FCC21B"/>
<path d="M41.5546 85.6899L43.6933 84.3219C43.7136 84.3038 44.4283 83.5668 44.2692 83.3167C44.1101 83.0666 43.1436 83.4084 43.1208 83.4288L40.9755 84.7844C40.9552 84.8025 40.2129 85.5596 40.372 85.8097C40.531 86.0598 41.5297 85.7029 41.5546 85.6899Z" fill="#FCC21B"/>
<path d="M41.0026 79.0888L36.1917 79.3753C36.1361 79.3793 34.2557 79.7335 34.2725 80.0284C34.2892 80.3233 36.1998 80.4478 36.2529 80.4461L41.0688 80.155C41.1219 80.1533 43.0675 79.7956 43.0508 79.5007C43.034 79.2058 41.0557 79.087 41.0026 79.0888Z" fill="#FCC21B"/>
<path d="M41.4011 76.4783C41.7466 76.4621 42.0894 76.4071 42.0894 76.4071C42.1868 76.3477 42.2777 76.2758 42.3547 76.1935C42.4789 76.0875 42.5437 75.925 42.5265 75.7626C42.4602 75.6166 42.3364 75.5083 42.1875 75.4587C42.101 75.4128 42.0091 75.3762 41.9167 75.3492C41.7272 75.3768 41.5382 75.3948 41.345 75.403C41.1566 75.4114 40.964 75.4099 40.7744 75.3966C40.688 75.4326 40.6059 75.4784 40.5257 75.5316C40.3868 75.6007 40.2785 75.7246 40.2338 75.8738C40.1734 76.169 40.6811 76.4729 40.7031 76.467C40.9359 76.4828 41.167 76.4865 41.4011 76.4783Z" fill="#FCC21B"/>
<g clip-path="url(#clip0_969_4768)">
<path d="M33.7963 19.7669H12.6174C12.2274 19.7669 11.9115 20.0828 11.9115 20.4729V21.8848C11.9115 22.2748 12.2274 22.5907 12.6174 22.5907H33.7963C34.1863 22.5907 34.5022 22.2748 34.5022 21.8848V20.4729C34.5022 20.0828 34.1863 19.7669 33.7963 19.7669ZM20.383 16.9431L17.5592 15.5311L20.383 14.1192L21.7949 11.2954L23.2069 14.1192L26.0307 15.5311L23.2069 16.9431L22.5009 18.355H31.6784L27.8658 9.45855C27.5931 8.8229 27.5635 8.10927 27.7824 7.45318L30.2665 0L21.99 4.7295C20.9459 5.32611 20.1195 6.24044 19.6312 7.33934L14.7353 18.355H21.089L20.383 16.9431ZM23.2069 7.05961L23.9128 5.64769L24.6188 7.05961L26.0307 7.76557L24.6188 8.47153L23.9128 9.88345L23.2069 8.47153L21.7949 7.76557L23.2069 7.05961Z" fill="white"/>
</g>
<defs>
<clipPath id="clip0_969_4768">
<rect width="22.5907" height="22.5907" fill="white" transform="translate(11.9115)"/>
</clipPath>
</defs>
</svg>
