<svg width="28" height="28" viewBox="0 0 28 28" fill="none" xmlns="http://www.w3.org/2000/svg">
<path d="M25.0262 1.97589H24.1082V1.05789C24.1082 0.552993 23.6951 0.139893 23.1902 0.139893C22.6853 0.139893 22.2722 0.552993 22.2722 1.05789V1.97589H18.1412V1.05789C18.1412 0.552993 17.7281 0.139893 17.2232 0.139893C16.7183 0.139893 16.3052 0.552993 16.3052 1.05789V1.97589H11.7152V1.05789C11.7152 0.552993 11.3021 0.139893 10.7972 0.139893C10.2923 0.139893 9.87923 0.552993 9.87923 1.05789V1.97589H5.74823V1.05789C5.74823 0.552993 5.33513 0.139893 4.83023 0.139893C4.32533 0.139893 3.91223 0.552993 3.91223 1.05789V1.97589H2.99423C1.47494 1.97589 0.240234 3.2106 0.240234 4.72989V24.9259C0.240234 26.4452 1.47494 27.6799 2.99423 27.6799H25.0262C26.5455 27.6799 27.7802 26.4452 27.7802 24.9259V4.72989C27.7802 3.2106 26.5455 1.97589 25.0262 1.97589ZM2.07623 4.72989C2.07623 4.22499 2.48933 3.81189 2.99423 3.81189H25.0262C25.5311 3.81189 25.9442 4.22499 25.9442 4.72989V7.48389H2.07623V4.72989ZM25.9442 24.9259C25.9442 25.4308 25.5311 25.8439 25.0262 25.8439H2.99423C2.48933 25.8439 2.07623 25.4308 2.07623 24.9259V9.31989H25.9442V24.9259Z" fill="currentColor"/>
<path d="M5.28911 16.8679H8.04311C8.80505 16.8679 9.42011 16.2528 9.42011 15.4909V12.7369C9.42011 11.9749 8.80505 11.3599 8.04311 11.3599H5.28911C4.52717 11.3599 3.91211 11.9749 3.91211 12.7369V15.4909C3.91211 16.2528 4.52717 16.8679 5.28911 16.8679ZM5.74811 13.1959H7.58411V15.0319H5.74811V13.1959Z" fill="currentColor"/>
<path d="M12.6333 16.6638H15.3873C16.1493 16.6638 16.7643 16.0487 16.7643 15.2868V12.5328C16.7643 11.7708 16.1493 11.1558 15.3873 11.1558H12.6333C11.8714 11.1558 11.2563 11.7708 11.2563 12.5328V15.2868C11.2563 16.0487 11.8714 16.6638 12.6333 16.6638ZM13.0923 12.9918H14.9283V14.8278H13.0923V12.9918Z" fill="currentColor"/>
<path d="M19.9771 16.6638H22.7311C23.493 16.6638 24.1081 16.0487 24.1081 15.2868V12.5328C24.1081 11.7708 23.493 11.1558 22.7311 11.1558H19.9771C19.2152 11.1558 18.6001 11.7708 18.6001 12.5328V15.2868C18.6001 16.0487 19.2152 16.6638 19.9771 16.6638ZM20.4361 12.9918H22.2721V14.8278H20.4361V12.9918Z" fill="currentColor"/>
<path d="M5.28911 24.0078H8.04311C8.80505 24.0078 9.42011 23.3927 9.42011 22.6308V19.8768C9.42011 19.1148 8.80505 18.4998 8.04311 18.4998H5.28911C4.52717 18.4998 3.91211 19.1148 3.91211 19.8768V22.6308C3.91211 23.3927 4.52717 24.0078 5.28911 24.0078ZM5.74811 20.3358H7.58411V22.1718H5.74811V20.3358Z" fill="currentColor"/>
<path d="M12.6333 24.0078H15.3873C16.1493 24.0078 16.7643 23.3927 16.7643 22.6308V19.8768C16.7643 19.1148 16.1493 18.4998 15.3873 18.4998H12.6333C11.8714 18.4998 11.2563 19.1148 11.2563 19.8768V22.6308C11.2563 23.3927 11.8714 24.0078 12.6333 24.0078ZM13.0923 20.3358H14.9283V22.1718H13.0923V20.3358Z" fill="currentColor"/>
<path d="M19.9771 24.0078H22.7311C23.493 24.0078 24.1081 23.3927 24.1081 22.6308V19.8768C24.1081 19.1148 23.493 18.4998 22.7311 18.4998H19.9771C19.2152 18.4998 18.6001 19.1148 18.6001 19.8768V22.6308C18.6001 23.3927 19.2152 24.0078 19.9771 24.0078ZM20.4361 20.3358H22.2721V22.1718H20.4361V20.3358Z" fill="currentColor"/>
</svg>
