<svg width="40" height="40" viewBox="0 0 40 40" fill="none" xmlns="http://www.w3.org/2000/svg">
<path fill-rule="evenodd" clip-rule="evenodd" d="M15.1393 4.44444H34.5838C35.0995 4.44444 35.594 4.64931 35.9587 5.01396C36.3234 5.37861 36.5282 5.87319 36.5282 6.38889C36.5282 6.90459 36.3234 7.39916 35.9587 7.76382C35.594 8.12847 35.0995 8.33333 34.5838 8.33333H15.1393C14.6236 8.33333 14.129 8.12847 13.7644 7.76382C13.3997 7.39916 13.1949 6.90459 13.1949 6.38889C13.1949 5.87319 13.3997 5.37861 13.7644 5.01396C14.129 4.64931 14.6236 4.44444 15.1393 4.44444V4.44444ZM15.1393 18.0556H34.5838C35.0995 18.0556 35.594 18.2604 35.9587 18.6251C36.3234 18.9897 36.5282 19.4843 36.5282 20C36.5282 20.5157 36.3234 21.0103 35.9587 21.3749C35.594 21.7396 35.0995 21.9444 34.5838 21.9444H15.1393C14.6236 21.9444 14.129 21.7396 13.7644 21.3749C13.3997 21.0103 13.1949 20.5157 13.1949 20C13.1949 19.4843 13.3997 18.9897 13.7644 18.6251C14.129 18.2604 14.6236 18.0556 15.1393 18.0556V18.0556ZM15.1393 31.6667H34.5838C35.0995 31.6667 35.594 31.8715 35.9587 32.2362C36.3234 32.6008 36.5282 33.0954 36.5282 33.6111C36.5282 34.1268 36.3234 34.6214 35.9587 34.986C35.594 35.3507 35.0995 35.5556 34.5838 35.5556H15.1393C14.6236 35.5556 14.129 35.3507 13.7644 34.986C13.3997 34.6214 13.1949 34.1268 13.1949 33.6111C13.1949 33.0954 13.3997 32.6008 13.7644 32.2362C14.129 31.8715 14.6236 31.6667 15.1393 31.6667V31.6667ZM4.44488 4.44444C4.18703 4.44444 3.93974 4.34201 3.75741 4.15969C3.57509 3.97736 3.47266 3.73007 3.47266 3.47222C3.47266 3.21437 3.57509 2.96708 3.75741 2.78476C3.93974 2.60243 4.18703 2.5 4.44488 2.5H6.38932C6.93377 2.5 7.36155 2.92778 7.36155 3.47222V9.30556C7.36155 9.5634 7.25911 9.81069 7.07679 9.99302C6.89446 10.1753 6.64717 10.2778 6.38932 10.2778C6.13147 10.2778 5.88419 10.1753 5.70186 9.99302C5.51953 9.81069 5.4171 9.5634 5.4171 9.30556V4.47361L4.44488 4.44444ZM4.44488 16.1111H8.33377C8.87821 16.1111 9.30599 16.5389 9.30599 17.0833V18.0556L6.00043 21.9444H8.33377C8.87821 21.9444 9.30599 22.3722 9.30599 22.9167C9.30599 23.4611 8.87043 23.8889 8.33377 23.8889H4.44488C3.90043 23.8889 3.47266 23.4611 3.47266 22.9167V21.9444L6.77821 18.0556H4.44488C3.90043 18.0556 3.47266 17.6278 3.47266 17.0833C3.47266 16.5389 3.8596 16.1111 4.44488 16.1111ZM8.33377 37.5H4.44488C4.18703 37.5 3.93974 37.3976 3.75741 37.2152C3.57509 37.0329 3.47266 36.7856 3.47266 36.5278C3.47266 36.2699 3.57509 36.0226 3.75741 35.8403C3.93974 35.658 4.18703 35.5556 4.44488 35.5556H7.36155V34.5833H4.44488C4.18703 34.5833 3.93974 34.4809 3.75741 34.2986C3.57509 34.1162 3.47266 33.869 3.47266 33.6111C3.47266 33.3533 3.57509 33.106 3.75741 32.9236C3.93974 32.7413 4.18703 32.6389 4.44488 32.6389H7.36155V31.6667H4.44488C4.18703 31.6667 3.93974 31.5642 3.75741 31.3819C3.57509 31.1996 3.47266 30.9523 3.47266 30.6944C3.47266 30.4366 3.57509 30.1893 3.75741 30.007C3.93974 29.8247 4.18703 29.7222 4.44488 29.7222H8.33377C8.59162 29.7222 8.83891 29.8247 9.02123 30.007C9.20356 30.1893 9.30599 30.4366 9.30599 30.6944V36.5278C9.30599 36.7856 9.20356 37.0329 9.02123 37.2152C8.83891 37.3976 8.59162 37.5 8.33377 37.5Z" fill="black"/>
</svg>
