<svg width="18" height="12" viewBox="0 0 18 12" fill="none" xmlns="http://www.w3.org/2000/svg">
<g clip-path="url(#after-clip)">
<path d="M4.17782 7.30474e-07C1.87359 3.2759e-07 -3.39783e-07 1.94333 -7.57664e-07 4.33333C-1.12892e-06 6.45667 1.46866 8.24667 3.46117 8.60334C3.57043 10.13 2.35565 11.4167 2.34279 11.43C2.23996 11.54 2.21746 11.7033 2.29137 11.8333C2.35243 11.94 2.45849 12 2.57097 12C2.59668 12 2.6256 11.9967 2.65452 11.9867C8.48741 10.3067 8.36529 4.63667 8.35565 4.32667C8.34922 1.94 6.47884 1.1328e-06 4.17782 7.30474e-07Z" fill="currentColor"/>
<path d="M17.9963 4.32667C17.9898 1.94 16.1195 1.1328e-06 13.8184 7.30474e-07C11.5142 3.27589e-07 9.64062 1.94333 9.64062 4.33333C9.64062 6.45667 11.1093 8.24667 13.1018 8.60334C13.2111 10.13 11.9963 11.4167 11.9834 11.43C11.8806 11.54 11.8581 11.7033 11.932 11.8333C11.9931 11.94 12.0991 12 12.2116 12C12.2373 12 12.2662 11.9967 12.2951 11.9867C18.128 10.3067 18.0059 4.63667 17.9963 4.32667Z" fill="currentColor"/>
</g>
<defs>
<clipPath id="after-clip">
<rect width="18" height="12" fill="white"/>
</clipPath>
</defs>
</svg>
