<svg width="18" height="12" viewBox="0 0 18 12" fill="none" xmlns="http://www.w3.org/2000/svg">
<g clip-path="url(#before-clip)">
<path d="M13.8222 12C16.1264 12 18 10.0567 18 7.66667C18 5.54333 16.5313 3.75333 14.5388 3.39667C14.4296 1.87 15.6443 0.583332 15.6572 0.569999C15.76 0.459998 15.7825 0.296665 15.7086 0.166665C15.6476 0.0599987 15.5415 -1.69242e-06 15.429 -1.68259e-06C15.4033 -1.68034e-06 15.3744 0.00333237 15.3455 0.0133326C9.51259 1.69333 9.63471 7.36333 9.64435 7.67333C9.65078 10.06 11.5212 12 13.8222 12Z" fill="#5382DE"/>
<path d="M0.00372753 7.67333C0.0101546 10.06 1.88053 12 4.18155 12C6.48578 12 8.35937 10.0567 8.35937 7.66667C8.35937 5.54333 6.89071 3.75333 4.89821 3.39667C4.78894 1.87 6.00372 0.583332 6.01658 0.569999C6.11942 0.459998 6.14191 0.296665 6.068 0.166665C6.00694 0.0599987 5.90089 -1.69242e-06 5.78841 -1.68259e-06C5.7627 -1.68034e-06 5.73377 0.00333237 5.70485 0.0133326C-0.128035 1.69333 -0.00591414 7.36333 0.00372753 7.67333Z" fill="#5382DE"/>
</g>
<defs>
<clipPath id="before-clip">
<rect x="18" y="12" width="18" height="12" transform="rotate(180 18 12)" fill="white"/>
</clipPath>
</defs>
</svg>
