<svg width="29" height="28" viewBox="0 0 29 28" fill="none" xmlns="http://www.w3.org/2000/svg">
<path d="M9.40791 22.385C9.46789 22.5651 9.41791 22.7652 9.28296 22.8952L7.36364 24.7659L7.81848 27.4118C7.86347 27.6819 7.68353 27.942 7.41363 27.987C7.30367 28.007 7.1937 27.987 7.09374 27.937L4.71959 26.6866L2.34544 27.937C2.10052 28.0671 1.80063 27.972 1.67068 27.7269C1.62069 27.6319 1.6007 27.5169 1.62069 27.4118L2.07553 24.7659L0.15122 22.8952C-0.0487086 22.7001 -0.0487086 22.385 0.141224 22.19C0.216197 22.1099 0.316161 22.0599 0.426122 22.0449L3.08017 21.6598L4.26475 19.2539C4.4097 19.0038 4.72958 18.9238 4.9745 19.0688C5.04947 19.1139 5.11445 19.1789 5.15943 19.2539L6.34401 21.6598L8.99806 22.0449C9.19299 22.0699 9.34793 22.2 9.40791 22.385ZM11.7121 10.8809C11.867 10.7709 11.942 10.5808 11.912 10.3908L11.3372 7.02955L13.7764 4.6487C13.9763 4.45363 13.9763 4.13852 13.7863 3.94345C13.7064 3.86842 13.6064 3.8184 13.4965 3.8034L10.1227 3.31322L8.6132 0.257133C8.46825 0.00704403 8.14836 -0.0729845 7.90345 0.0720672C7.82848 0.117083 7.7635 0.182107 7.71852 0.257133L6.20906 3.31322L2.84026 3.8034C2.57036 3.84341 2.38042 4.0935 2.42041 4.3686C2.4354 4.47864 2.48539 4.57868 2.56536 4.6537L5.00449 7.03455L4.42969 10.3958C4.38471 10.6658 4.56464 10.9259 4.83955 10.971C4.94951 10.991 5.05947 10.971 5.15443 10.9209L8.16836 9.33537L11.1823 10.9209C11.3522 11.011 11.5571 10.996 11.7121 10.8809ZM27.9763 15.0074C27.9163 14.8273 27.7614 14.6923 27.5714 14.6673L22.4183 13.917L20.1141 9.24534C19.9941 8.99525 19.6942 8.89522 19.4443 9.02026C19.3444 9.07028 19.2644 9.15031 19.2194 9.24534L16.9152 13.917L11.7621 14.6673C11.4872 14.7073 11.2972 14.9624 11.3372 15.2325C11.3522 15.3425 11.4022 15.4426 11.4822 15.5176L15.2108 19.1539L14.3312 24.2857C14.2862 24.5558 14.4661 24.8159 14.741 24.8609C14.851 24.8809 14.9609 24.8609 15.0559 24.8109L19.6642 22.385L24.2726 24.8109C24.5175 24.9409 24.8174 24.8459 24.9474 24.6008C24.9973 24.5058 25.0173 24.3908 24.9973 24.2857L24.1227 19.1539L27.8513 15.5176C27.9863 15.3875 28.0363 15.1875 27.9763 15.0074Z" fill="var(--calendar-accent)"/>
</svg>
