<svg width="45" height="51" viewBox="0 0 45 51" fill="none" xmlns="http://www.w3.org/2000/svg">
<path d="M35.9891 8.5912C35.1355 9.51217 33.2995 9.30991 32.1205 8.81997L31.8339 8.69134C31.6456 8.602 31.4368 8.49694 31.3263 8.42232C30.874 8.12187 30.3684 7.88034 29.9099 7.59364C29.5496 7.3688 29.216 7.11548 28.956 6.78362C28.473 8.79149 28.5937 9.25591 29.7686 10.9486C30.3602 11.7999 31.5945 13.2176 32.7673 14.2329C33.3097 14.7022 33.8378 15.0851 34.282 15.2864L35.6329 15.8971C36.3698 16.2309 37.1476 16.4224 37.9275 16.4803C37.8231 17.3198 37.7289 18.3124 37.7289 19.4258C37.7289 20.3331 37.5467 21.2089 37.2111 22.0218C35.0762 20.4008 32.4214 19.3797 29.5251 19.2265C29.6254 19.0626 29.7011 18.8829 29.7502 18.6924C29.7768 18.5913 29.7932 18.4872 29.8034 18.3802C29.8096 18.3213 29.8116 18.2614 29.8116 18.2015V17.1961C29.8116 16.8809 29.7359 16.5824 29.6008 16.3163C29.261 15.6467 28.5446 15.1853 27.7156 15.1853C26.5571 15.1853 25.6196 16.0856 25.6196 17.1961V18.2015C25.6196 18.5677 25.722 18.9114 25.9001 19.2069H18.0033C18.1813 18.9114 18.2837 18.5677 18.2837 18.2015V17.1961C18.2837 16.5117 17.9275 15.9069 17.383 15.5436C17.0433 15.3178 16.6318 15.1853 16.1877 15.1853C15.0291 15.1853 14.0917 16.0856 14.0917 17.1961V18.2015C14.0917 18.5746 14.194 18.9271 14.3782 19.2265C11.4819 19.3797 8.82919 20.3998 6.6943 22.0209C6.59605 21.7803 6.51009 21.5339 6.43845 21.2835C6.36885 21.0371 6.31154 20.7867 6.26856 20.5324C6.24195 20.3723 6.21943 20.2113 6.2051 20.0493C6.18463 19.8431 6.17645 19.636 6.17645 19.4258C6.17645 18.6276 6.12732 17.9069 6.06182 17.2668C7.00747 17.1961 7.94085 16.8956 8.76778 16.3605L9.82806 15.6752C10.7205 15.0979 11.9118 13.4494 12.6343 12.224C12.8063 11.9314 12.9516 11.6634 13.0601 11.4395C13.8235 9.86072 13.8624 9.45129 13.1808 7.81358C12.9065 8.3045 12.4521 8.65502 11.9977 9.0075C11.7931 9.16558 11.5884 9.32463 11.398 9.49646C11.265 9.61821 10.9354 9.83716 10.7799 9.93141C9.84853 10.494 8.32156 10.8946 7.47416 10.222C7.2183 10.0178 7.12005 9.64668 7.11801 9.20583C7.11596 8.96921 7.14257 8.71196 7.18555 8.45079C7.45779 6.81013 8.52216 5.41984 9.70525 4.20726L10.831 3.00156C10.3623 2.80028 9.88742 2.64416 9.35318 2.59998C8.17419 2.50376 6.70454 2.95246 4.37316 4.67953L4.38339 4.65891C3.45002 5.3354 2.29354 6.48612 1.7327 7.46993L0.690841 9.29911C-0.512717 11.4081 -0.107437 14.0021 1.62421 15.6811L1.69585 16.1887L1.73065 16.4194C1.85551 17.2923 1.98446 18.2643 1.98446 19.4258C1.98446 20.1995 2.06634 20.9526 2.2219 21.6802C2.49618 22.9497 2.99357 24.1377 3.67517 25.2119C3.32107 25.7381 3.00585 26.2899 2.73362 26.8643C2.51869 27.3179 2.33038 27.7853 2.16868 28.2644C1.93738 28.9546 1.7634 29.6694 1.65492 30.4038C1.6017 30.7534 1.56485 31.1078 1.54234 31.4662C1.52392 31.7342 1.51573 32.0052 1.51573 32.2772C1.51573 34.1574 1.9292 35.9454 2.67426 37.5605C2.22599 38.7436 1.98241 40.0181 1.98241 41.3524C1.98241 41.971 1.94557 42.5483 1.8944 43.0971C1.84732 43.5822 1.78592 44.0446 1.72656 44.4923L1.69995 44.6877V44.7024C1.58942 45.5193 1.45637 46.4904 1.54643 47.3318L1.56895 47.5125L1.58942 47.6499C1.60784 47.7481 1.62831 47.8483 1.65492 47.9494L1.73884 48.2351C1.81867 48.4776 1.92715 48.7241 2.07657 48.9666C2.42658 49.541 2.92397 49.9799 3.51757 50.2931C4.59422 50.8606 5.97995 51 7.46188 51C7.82213 51 8.15986 50.9126 8.45666 50.7594C8.74731 50.6082 8.99703 50.3932 9.18534 50.133C9.42073 49.808 9.55787 49.4143 9.55787 48.9892C9.55787 47.8787 8.61836 46.9784 7.46188 46.9784C6.4712 46.9784 5.95539 46.8939 5.70976 46.8281C5.70157 46.6681 5.71181 46.4717 5.73637 46.2086C5.76503 45.9082 5.81415 45.5213 5.88374 45.0049C5.99223 44.2105 6.11913 43.2316 6.16007 42.1074C8.55695 44.1251 11.6989 45.3475 15.1397 45.3475H28.7636C32.2024 45.3475 35.3443 44.1251 37.7412 42.1084L37.778 42.7888C37.8006 43.0981 37.8272 43.3927 37.8579 43.6705C37.909 44.1281 37.9684 44.5424 38.0216 44.9106C38.1096 45.5223 38.1608 45.9023 38.1833 46.1546C37.864 46.2047 37.3236 46.2508 36.4435 46.2508C35.287 46.2508 34.3475 47.1512 34.3475 48.2616C34.3475 48.672 34.4764 49.054 34.6975 49.3721C35.0721 49.9151 35.7148 50.2725 36.4435 50.2725C37.166 50.2725 37.8579 50.2499 38.4944 50.1733C39.1228 50.0987 39.7 49.972 40.2036 49.7648C40.7685 49.5331 41.313 49.1728 41.7244 48.623C42.1276 48.081 42.2934 47.5007 42.3548 47C42.449 46.2243 42.3139 45.3112 42.2075 44.5895L42.1727 44.3588C42.0478 43.4859 41.9188 42.5139 41.9188 41.3524C41.9188 40.0191 41.6732 38.7446 41.227 37.5625C41.9721 35.9464 42.3876 34.1584 42.3876 32.2772C42.3876 31.9179 42.3733 31.5614 42.3446 31.209C42.3323 31.0646 42.318 30.9203 42.2996 30.7779L42.273 30.5698C42.2443 30.3616 42.2116 30.1554 42.1727 29.9502C41.8513 28.232 41.1779 26.6296 40.2281 25.2138C41.3007 23.5241 41.9209 21.5496 41.9209 19.4258C41.9209 18.2594 42.0499 17.2403 42.1768 16.2859L42.2034 16.0905V16.0758C42.2382 15.8254 42.273 15.5593 42.3037 15.2884C42.6762 15.0272 43.0262 14.7258 43.3414 14.3851C45.4313 12.1288 45.5602 8.76695 43.6485 6.37026L42.1072 4.43701C41.2761 3.39626 39.7287 2.26517 38.5272 1.64367L38.5415 1.66625C34.1653 -0.654832 32.3927 -0.167837 30.7778 0.829717L32.3006 2.02953C33.891 3.22738 35.375 4.65105 35.9952 6.49889C36.2756 7.33934 36.3862 8.16213 35.9891 8.5912Z" fill="currentColor"/>
</svg>
