<svg width="32" height="32" viewBox="0 0 32 32" fill="none" xmlns="http://www.w3.org/2000/svg">
<path d="M30.5672 28.386L22.2132 20.032C26.4212 14.618 25.4462 6.82197 20.0332 2.61397C14.6172 -1.59303 6.82116 -0.619034 2.61316 4.79497C-1.59284 10.21 -0.618838 18.021 4.79516 22.23C6.97437 23.9219 9.65477 24.8403 12.4137 24.8403C15.1726 24.8403 17.853 23.9219 20.0322 22.23L28.3862 30.583C28.6809 30.8648 29.0745 31.0196 29.4823 31.014C29.8901 31.0084 30.2793 30.8428 30.5662 30.553C30.849 30.2634 31.0073 29.8747 31.0073 29.47C31.0073 29.0652 30.849 28.6765 30.5662 28.387L30.5672 28.386ZM3.18716 12.468C3.18716 7.34797 7.34716 3.18697 12.4682 3.18697C17.5882 3.18697 21.7492 7.34697 21.7492 12.468C21.7492 17.588 17.5892 21.749 12.4682 21.749C7.33216 21.734 3.18716 17.589 3.18716 12.468Z" fill="white"/>
</svg>
