
<svg width="36" height="37" viewBox="0 0 36 37" fill="none" xmlns="http://www.w3.org/2000/svg">
<g clip-path="url(#clip0)">
<path d="M34.9992 15.4435C36.0113 14.686 36.2936 13.2809 35.6565 12.1854L32.1363 6.19451C31.5194 5.05824 30.1081 4.63876 28.979 5.2578L25.8863 6.69137C25.346 6.32891 24.7815 5.99902 24.1968 5.70579L23.8823 2.21146L23.8581 2.03634C23.6444 0.871559 22.6484 0.0203758 21.475 1.2576e-05H14.6C13.3339 -0.00406007 12.2774 0.981521 12.1807 2.25626L11.8702 5.70986C11.2815 5.99902 10.717 6.32483 10.1726 6.69137L7.03953 5.23744L6.96292 5.20486C5.82985 4.74465 4.5355 5.18857 3.91453 6.25153L0.503242 12.1732C-0.133855 13.2687 0.148403 14.6738 1.15647 15.4313L4.00324 17.4676C3.97098 17.7853 3.95082 18.1233 3.95082 18.4817C3.95082 18.8401 3.95082 19.1618 3.99921 19.4713L1.06373 21.5158L1.00324 21.5606C-0.0128868 22.314 -0.303209 23.7232 0.33792 24.8187L3.78953 30.8137C4.08389 31.3268 4.54356 31.7178 5.09598 31.9214C5.70082 32.1251 6.36615 32.0599 6.9226 31.7463L10.0315 30.3127C10.5718 30.6752 11.1363 31.0051 11.717 31.2983L12.0355 34.7926L12.0597 34.9637C12.2734 36.1285 13.2694 36.9756 14.4387 37H21.3178C22.5839 37.0041 23.6403 36.0185 23.7371 34.7438L24.0476 31.3024C24.6363 31.0132 25.2008 30.6793 25.7452 30.3127L28.8863 31.7748L28.9629 31.8074C30.096 32.2676 31.3903 31.8237 32.0113 30.7607L35.4226 24.8309C36.0678 23.7395 35.7855 22.3303 34.7774 21.5728L32.1524 19.5528C32.1887 19.2025 32.2049 18.8523 32.2049 18.502C32.2049 18.1437 32.1847 17.8056 32.1524 17.488L34.975 15.4516L34.9992 15.4435ZM28.6968 15.9729L28.8339 16.9544C28.9186 17.4676 28.967 17.9848 28.979 18.502C28.967 19.0193 28.9186 19.5365 28.8339 20.0497L28.7008 20.9986L32.2976 23.7639L29.5718 28.5085L25.3137 26.5292L24.5355 27.1768C23.725 27.8121 22.8339 28.3293 21.8823 28.7162L20.9992 29.0909L20.596 33.746H15.1766L14.7734 29.0909L13.8903 28.7081C12.9266 28.2927 12.0194 27.7632 11.1847 27.1238L10.4145 26.5415L6.18873 28.5085L3.48308 23.7965L6.64034 21.6258L7.47098 21.0475L7.32985 20.0415C7.24115 19.5324 7.18873 19.0193 7.17663 18.502C7.18873 17.9848 7.23711 17.4676 7.32179 16.9544L7.45889 15.9729L3.62824 13.2076L6.34598 8.48334L10.6 10.4586L11.3782 9.81509C12.1887 9.17976 13.0799 8.66253 14.0315 8.27563L14.9226 7.91317L15.3258 3.25813H20.7371L21.1403 7.91317L22.0234 8.29599C22.9871 8.7114 23.8944 9.24085 24.729 9.88025L25.4992 10.4626L29.717 8.5037L32.5153 13.2076L28.6968 15.9729Z" fill="currentColor"/>
<path d="M18.0002 11.5051C14.1736 11.5051 11.0728 14.637 11.0728 18.5019C11.0728 22.3669 14.1736 25.4987 18.0002 25.4987C21.8268 25.4987 24.9276 22.3669 24.9276 18.5019C24.9679 14.6777 21.9316 11.5459 18.1453 11.5051C18.0969 11.5051 18.0486 11.5051 18.0002 11.5051ZM18.0002 22.2406C15.9558 22.2406 14.2986 20.5668 14.2986 18.5019C14.2986 16.4371 15.9558 14.7632 18.0002 14.7632C20.0445 14.7632 21.7018 16.4371 21.7018 18.5019C21.726 20.5423 20.105 22.2162 18.0808 22.2406C18.0566 22.2406 18.0284 22.2406 18.0002 22.2406Z" fill="currentColor"/>
</g>
<defs>
<clipPath id="clip0">
<rect width="36" height="37" fill="currentColor"/>
</clipPath>
</defs>
</svg>
