<svg width="47" height="47" viewBox="0 0 28 28" fill="none" xmlns="http://www.w3.org/2000/svg">
<path d="M14 0C6.26827 0 0 6.26827 0 14C0 21.7317 6.26827 28 14 28C21.7317 28 28 21.7317 28 14C28 6.26827 21.7317 0 14 0ZM25.1807 9.27733C25.1804 9.27733 25.1802 9.27764 25.1803 9.27792C25.8144 10.7712 26.1387 12.3777 26.1333 14C26.1349 15.5219 25.8508 17.0306 25.2958 18.4476V18.4476C25.3137 18.3963 25.3049 18.3394 25.2723 18.2959L23.6 16.0665C22.8446 15.0594 21.6591 14.4667 20.4001 14.4667H14.6222C13.7631 14.4667 13.0667 13.7619 13.0667 12.9028V12.9028C13.0667 12.421 13.2935 11.9632 13.679 11.6741V11.6741C14.0274 11.4128 14.4706 11.3123 14.8976 11.3977L17.6141 11.941C18.4637 12.1109 19.342 11.845 19.9547 11.2323L20.1823 11.0048C20.7773 10.4098 20.9604 9.51746 20.6479 8.73621L20.6172 8.65933C20.3587 8.01315 20.4624 7.27836 20.8897 6.72901L21.8672 5.47226C22.0436 5.24548 22.3766 5.21707 22.5804 5.41956V5.41956C23.6691 6.50512 24.5416 7.78766 25.1515 9.19893L25.1811 9.27676C25.1812 9.27704 25.181 9.27733 25.1807 9.27733V9.27733ZM5.4208 22.5798C5.4208 22.5794 5.42064 22.579 5.42036 22.5788C4.29213 21.4522 3.39743 20.114 2.7876 18.6409C2.17768 17.1676 1.86472 15.5883 1.86667 13.9938C1.86667 12.2914 2.2176 10.6699 2.84978 9.19893L2.81991 9.27733V9.27733C2.9088 9.06807 3.17712 9.01393 3.34611 9.16602L5.30792 10.9316C5.79168 11.367 6.06791 11.9873 6.06791 12.6381V13.714C6.06791 14.7352 6.45853 15.7178 7.15971 16.4603L10.0961 19.5698C10.3956 19.8869 10.8125 20.0667 11.2487 20.0667V20.0667C12.1242 20.0667 12.834 20.7764 12.834 21.6519V22.061C12.834 22.6138 12.6045 23.1418 12.2004 23.519L10.7235 24.8975C10.3326 25.2623 9.77003 25.3888 9.27733 25.1813V25.1813C7.83657 24.5708 6.52725 23.6878 5.42124 22.5809C5.42096 22.5806 5.4208 22.5802 5.4208 22.5798V22.5798ZM22.5792 22.5792C21.4573 23.7074 20.1231 24.6023 18.6536 25.2123C17.1842 25.8223 15.6085 26.1353 14.0174 26.1333H13.9988C13.3877 26.1333 12.7867 26.0885 12.1993 26.0027V26.0027C12.2419 26.0074 12.2845 25.9933 12.3159 25.964L13.5173 24.8431C14.2721 24.1389 14.7006 23.1529 14.7006 22.1207V20.528C14.7006 19.2423 13.6583 18.2 12.3726 18.2V18.2C11.7322 18.2 11.12 17.9362 10.6802 17.4706L9.02547 15.7187C8.32409 14.9762 7.93333 13.9934 7.93333 12.972V12.5658C7.93333 11.4318 7.45207 10.3512 6.60924 9.59263L6.54636 9.53604C5.05903 8.1974 4.75237 5.89967 6.29729 4.62794C7.17305 3.90703 8.14872 3.30731 9.19893 2.84978L9.27733 2.81991C10.7698 2.18209 12.3769 1.85601 14 1.86169C16.5063 1.86169 18.8359 2.62329 20.7685 3.92622V3.92622C20.7438 3.91068 20.7113 3.9164 20.6934 3.93945L18.7617 6.4228C18.3313 6.97605 18.2268 7.71608 18.4872 8.36686L18.7932 9.13189C18.9006 9.40056 18.8376 9.70742 18.633 9.91203V9.91203C18.462 10.0831 18.2168 10.1573 17.9797 10.1099L15.2626 9.56645C14.3151 9.37694 13.3317 9.6 12.5586 10.1798V10.1798C11.7033 10.8212 11.2 11.8322 11.2 12.9013V12.9013C11.2 14.7913 12.7322 16.3321 14.6222 16.3321H19.4665C20.7256 16.3321 21.9113 16.9249 22.6667 17.9322L22.7863 18.0918C23.7638 19.3953 23.8957 21.2079 22.7692 22.3851C22.7066 22.4505 22.6433 22.5152 22.5792 22.5792Z" fill="currentColor"/>
<path d="M27 14H1L2.40541 19.7778L5.21622 23.75L9.08108 25.9167L13.2973 27L17.8649 26.2778L22.7838 24.1111L25.5946 19.7778L27 14Z" fill="currentColor"/>
</svg>
