<svg width="34" height="32" viewBox="0 0 34 32" fill="none" xmlns="http://www.w3.org/2000/svg">
<path d="M9.2155 3.2158C10.7577 1.33327 13.1449 0 16.4311 0C18.4263 0 20.7525 0.657244 22.6045 2.1736C24.1021 3.39889 25.2522 5.16171 25.6583 7.48319C23.5517 6.9151 21.3354 6.89022 19.2165 7.41085C17.0976 7.93149 15.1452 8.98067 13.5417 10.4604C11.9382 11.9401 10.7359 13.8021 10.0471 15.8724C9.35828 17.9428 9.20542 20.1539 9.6028 22.2993H8.21555C5.03731 22.2993 2.91535 21.337 1.61025 19.8441C0.333316 18.3841 0 16.6024 0 15.2574C0 12.4923 2.26514 8.76716 7.10762 8.27188C7.30949 6.56305 7.97612 4.72981 9.2155 3.21815V3.2158Z" fill="white"/>
<path d="M22.8333 10.334C25.7065 10.334 28.462 11.4753 30.4937 13.507C32.5253 15.5386 33.6667 18.2941 33.6667 21.1673C33.6667 24.0405 32.5253 26.796 30.4937 28.8276C28.462 30.8593 25.7065 32.0007 22.8333 32.0007C19.9602 32.0007 17.2047 30.8593 15.173 28.8276C13.1414 26.796 12 24.0405 12 21.1673C12 18.2941 13.1414 15.5386 15.173 13.507C17.2047 11.4753 19.9602 10.334 22.8333 10.334V10.334ZM22.8333 14.9768C22.6368 14.9767 22.4425 15.0175 22.2627 15.0967C22.0828 15.1759 21.9215 15.2917 21.789 15.4367C21.6564 15.5818 21.5556 15.7529 21.493 15.9391C21.4303 16.1254 21.4071 16.3226 21.425 16.5183L21.9899 22.718C22.0118 22.9265 22.1101 23.1194 22.2658 23.2597C22.4216 23.3999 22.6237 23.4775 22.8333 23.4775C23.0429 23.4775 23.2451 23.3999 23.4008 23.2597C23.5566 23.1194 23.6549 22.9265 23.6768 22.718L24.2401 16.5183C24.258 16.3227 24.2349 16.1256 24.1723 15.9395C24.1097 15.7534 24.009 15.5823 23.8767 15.4373C23.7443 15.2923 23.5832 15.1764 23.4035 15.0971C23.2239 15.0179 23.0297 14.9769 22.8333 14.9768V14.9768ZM22.8333 27.3578C23.1617 27.3578 23.4766 27.2274 23.7088 26.9952C23.941 26.763 24.0714 26.4481 24.0714 26.1197C24.0714 25.7913 23.941 25.4764 23.7088 25.2442C23.4766 25.012 23.1617 24.8816 22.8333 24.8816C22.505 24.8816 22.1901 25.012 21.9579 25.2442C21.7257 25.4764 21.5952 25.7913 21.5952 26.1197C21.5952 26.4481 21.7257 26.763 21.9579 26.9952C22.1901 27.2274 22.505 27.3578 22.8333 27.3578V27.3578Z" fill="#F94D04"/>
</svg>
