<svg width="34" height="33" viewBox="0 0 34 33" fill="none" xmlns="http://www.w3.org/2000/svg">
<path d="M9.21532 3.21574C10.7575 1.33324 13.1446 0 16.4308 0C18.4259 0 20.7521 0.657231 22.6041 2.17356C24.1016 3.39882 25.2518 5.16161 25.6578 7.48305C23.5512 6.91497 21.335 6.89008 19.2161 7.41071C17.0973 7.93134 15.1449 8.9805 13.5415 10.4602C11.938 11.9399 10.7357 13.8018 10.0469 15.8721C9.3581 17.9424 9.20524 20.1535 9.60262 22.2989H8.21539C5.03721 22.2989 2.91529 21.3365 1.61022 19.8437C0.33331 18.3837 0 16.6021 0 15.2572C0 12.4921 2.2651 8.767 7.10749 8.27173C7.30935 6.56292 7.97597 4.72972 9.21532 3.21809V3.21574Z" fill="white"/>
<path fill-rule="evenodd" clip-rule="evenodd" d="M22.8331 10.334C16.8503 10.334 12 15.1843 12 21.1671C12 27.15 16.8503 32.0002 22.8331 32.0002C28.816 32.0002 33.6663 27.15 33.6663 21.1671C33.6663 15.1843 28.816 10.334 22.8331 10.334ZM27.5288 19.3353C27.6153 19.2365 27.6811 19.1214 27.7224 18.9967C27.7637 18.8721 27.7797 18.7404 27.7694 18.6095C27.759 18.4786 27.7226 18.3511 27.6623 18.2344C27.602 18.1178 27.5189 18.0144 27.418 17.9303C27.3172 17.8462 27.2005 17.7832 27.0749 17.7449C26.9493 17.7066 26.8173 17.6938 26.6867 17.7072C26.556 17.7207 26.4294 17.7601 26.3142 17.8233C26.1991 17.8864 26.0977 17.9719 26.0161 18.0747L21.7813 23.1555L19.5901 20.9633C19.4043 20.7839 19.1556 20.6846 18.8974 20.6868C18.6391 20.6891 18.3921 20.7927 18.2095 20.9752C18.0269 21.1578 17.9234 21.4049 17.9211 21.6631C17.9189 21.9213 18.0181 22.1701 18.1975 22.3558L21.152 25.3103C21.2488 25.407 21.3646 25.4825 21.4922 25.5319C21.6198 25.5814 21.7562 25.6037 21.8929 25.5975C22.0295 25.5913 22.1634 25.5567 22.286 25.4959C22.4085 25.4351 22.517 25.3494 22.6046 25.2443L27.5288 19.3353Z" fill="#74E980"/>
</svg>
