<svg width="34" height="32" viewBox="0 0 34 32" fill="none" xmlns="http://www.w3.org/2000/svg">
  <path style="transform-origin:center; transform-box: fill-box;"
    d="M12 21.1652C12 22.5881 12.2803 23.997 12.8248 25.3116C13.3693 26.6262 14.1674 27.8206 15.1735 28.8267C16.1797 29.8329 17.3741 30.631 18.6887 31.1755C20.0033 31.72 21.4122 32.0003 22.8351 32.0003C24.258 32.0003 25.6669 31.72 26.9815 31.1755C28.2961 30.631 29.4905 29.8329 30.4967 28.8267C31.5028 27.8206 32.3009 26.6262 32.8454 25.3116C33.3899 23.997 33.6702 22.5881 33.6702 21.1652C33.6702 18.2915 32.5286 15.5356 30.4967 13.5036C28.4647 11.4716 25.7087 10.3301 22.8351 10.3301C19.9615 10.3301 17.2055 11.4716 15.1735 13.5036C13.1416 15.5356 12 18.2915 12 21.1652ZM27.6507 13.9418C27.97 13.9418 28.2762 14.0686 28.502 14.2944C28.7278 14.5202 28.8546 14.8264 28.8546 15.1457V18.7574C28.8546 19.0767 28.7278 19.3829 28.502 19.6087C28.2762 19.8344 27.97 19.9613 27.6507 19.9613H24.039C23.7197 19.9613 23.4135 19.8344 23.1877 19.6087C22.9619 19.3829 22.8351 19.0767 22.8351 18.7574C22.8351 18.4381 22.9619 18.1319 23.1877 17.9061C23.4135 17.6803 23.7197 17.5535 24.039 17.5535H25.1659C24.4781 17.1706 23.7064 16.9638 22.9194 16.9515C22.2725 16.9401 21.6299 17.0592 21.0301 17.3016C20.4302 17.544 19.8854 17.9048 19.4281 18.3625C19.1993 18.5727 18.8982 18.6864 18.5876 18.6797C18.277 18.6731 17.981 18.5466 17.7615 18.3268C17.542 18.107 17.4159 17.8108 17.4097 17.5002C17.4035 17.1896 17.5176 16.8886 17.7282 16.6602C18.8524 15.5359 20.3162 14.8139 21.8926 14.6063C23.4689 14.3986 25.0697 14.7169 26.4468 15.5117V15.1457C26.4468 14.8264 26.5736 14.5202 26.7994 14.2944C27.0252 14.0686 27.3314 13.9418 27.6507 13.9418ZM25.5415 27.2617C24.5239 27.6728 23.426 27.8466 22.3313 27.7699C21.2365 27.6931 20.1736 27.3678 19.2234 26.8187V27.1847C19.2234 27.504 19.0966 27.8102 18.8708 28.036C18.645 28.2617 18.3388 28.3886 18.0195 28.3886C17.7002 28.3886 17.394 28.2617 17.1682 28.036C16.9424 27.8102 16.8156 27.504 16.8156 27.1847V23.573C16.8156 23.2537 16.9424 22.9475 17.1682 22.7217C17.394 22.4959 17.7002 22.3691 18.0195 22.3691H21.6312C21.9505 22.3691 22.2567 22.4959 22.4825 22.7217C22.7083 22.9475 22.8351 23.2537 22.8351 23.573C22.8351 23.8923 22.7083 24.1985 22.4825 24.4243C22.2567 24.65 21.9505 24.7769 21.6312 24.7769H20.5043C21.1924 25.159 21.9639 25.3657 22.7508 25.3788C23.3977 25.3902 24.0403 25.2712 24.6401 25.0287C25.24 24.7863 25.7848 24.4255 26.2421 23.9679C26.4709 23.7576 26.772 23.644 27.0826 23.6506C27.3932 23.6573 27.6892 23.7837 27.9087 24.0036C28.1282 24.2234 28.2543 24.5196 28.2605 24.8302C28.2667 25.1408 28.1526 25.4417 27.942 25.6702C27.2558 26.3564 26.4396 26.8981 25.5415 27.2593V27.2617Z"
    fill="#74CDE9">
    <animateTransform attributeName="transform" attributeType="XML" type="rotate" values='0;400; 360 ;360; 360' dur="2s"
      repeatCount="indefinite" keySplines="0.5 0 0.5 1; 0.5 0 0.5 1; 0.5 0 0.5 1; 0.5 0 0.5 1"
      keyTimes="0; 0.25; 0.5; 0.75; 1" calcMode="spline" />
  </path>
  <path
    d="M9.217 3.21632C10.7594 1.33348 13.147 0 16.4338 0C18.4293 0 20.7559 0.657351 22.6082 2.17395C24.106 3.39944 25.2564 5.16255 25.6625 7.48441C23.5555 6.91623 21.3389 6.89134 19.2196 7.41206C17.1004 7.93278 15.1477 8.98213 13.5439 10.4621C11.9402 11.9421 10.7377 13.8043 10.0487 15.875C9.3598 17.9457 9.20692 20.1572 9.60437 22.303H8.21689C5.03813 22.303 2.91582 21.3404 1.61051 19.8473C0.333371 18.387 0 16.6052 0 15.2599C0 12.4944 2.26551 8.76859 7.10878 8.27323C7.31068 6.56412 7.97742 4.73058 9.217 3.21867V3.21632Z"
    fill="white" />
</svg>