<svg width="60" height="70" viewBox="0 0 60 70" fill="none" xmlns="http://www.w3.org/2000/svg">
<g filter="url(#filter0_d)">
<rect x="5.28595" y="13.2637" width="35.3043" height="50" rx="3" transform="rotate(-18.3946 5.28595 13.2637)" fill="#71D084" stroke="white" stroke-width="2"/>
</g>
<path d="M35.659 21.3429C34.7407 21.9429 33.7967 21.2179 34.3818 20.2901C34.6487 19.867 34.9873 19.4248 35.4163 18.9953C36.6565 17.7584 37.1956 17.9184 37.4055 18.1196C37.5072 18.2171 37.5671 18.3516 37.653 18.4633V18.4633C38.1971 19.1707 37.8584 20.2261 37.0455 20.5942C36.5956 20.798 36.1108 21.0482 35.659 21.3429V21.3429Z" fill="white"/>
<path fill-rule="evenodd" clip-rule="evenodd" d="M22.9684 28.382C22.6392 28.5417 22.4292 28.8553 22.2269 29.1602C21.0863 30.8783 17.4404 37.2349 21.97 42.4487C22.6084 43.1843 23.25 43.2135 23.9886 43.1826C24.0318 43.181 24.086 43.1803 24.1506 43.1795C25.2123 43.1659 29.0889 43.1165 33.1138 38.4651C34.0986 37.354 34.3971 35.9942 34.4875 35.2566C34.5313 34.8993 34.5492 34.5331 34.4567 34.1851C34.222 33.3015 33.2379 31.4434 29.1892 29.5632C25.3686 27.7919 23.6648 28.044 22.9684 28.382ZM30.1737 39.2702C29.8384 39.0471 29.7475 38.5945 29.9706 38.2592L31.9906 35.2238C32.2137 34.8885 32.6664 34.7975 33.0017 35.0207C33.337 35.2438 33.4279 35.6965 33.2048 36.0317L31.1848 39.0672C30.9617 39.4024 30.509 39.4934 30.1737 39.2702ZM28.9276 40.9989C29.4053 40.8401 29.6637 40.324 29.5049 39.8463C29.346 39.3686 28.83 39.1102 28.3523 39.269C27.8746 39.4279 27.6161 39.9439 27.775 40.4216C27.9338 40.8993 28.4499 41.1578 28.9276 40.9989Z" fill="white"/>
<path fill-rule="evenodd" clip-rule="evenodd" d="M30.539 28.1185C33.3439 29.7291 34.5973 31.1246 35.1494 31.9734C35.4315 32.407 36.0274 32.7155 36.416 32.3741V32.3741C36.7684 32.0645 36.924 31.272 36.9342 30.2407C36.9443 29.2095 36.9264 27.4051 35.7055 25.7268C34.4846 24.0485 33.2097 23.5682 32.2017 23.205C31.1937 22.8418 29.3006 22.6414 27.9733 22.8024C26.6461 22.9634 25.0032 23.7366 24.2445 24.4274C23.4867 25.1198 23.0879 25.5955 23.2856 26.0801V26.0801C23.3942 26.348 23.7009 26.4786 23.9847 26.4238C24.9162 26.2439 27.1336 26.1602 30.539 28.1185ZM25.0759 25.7665C27.0909 25.5728 29.0252 25.9241 30.6359 26.772C30.8074 26.8623 31.0206 26.8229 31.1415 26.6713V26.6713C31.2906 26.4843 31.2388 26.2078 31.026 26.0985C29.3076 25.2158 27.2552 24.8522 25.1185 25.0575L25.0196 25.0671C24.8477 25.0836 24.7133 25.2228 24.703 25.3952L24.7023 25.4061C24.6897 25.6154 24.8671 25.7865 25.0759 25.7665V25.7665ZM31.2168 25.3951C31.0959 25.5467 30.8828 25.5858 30.7102 25.4976C29.4884 24.8732 28.0309 24.6164 26.5137 24.7622V24.7622C26.3517 24.7778 26.2141 24.645 26.2239 24.4826L26.2299 24.3824C26.2403 24.21 26.3746 24.0708 26.5465 24.0542L26.5563 24.0533C28.1952 23.8958 29.7708 24.1652 31.0998 24.8251C31.3141 24.9315 31.3659 25.2081 31.2168 25.3951V25.3951ZM28.0103 23.8085C29.1876 23.6953 30.3197 23.888 31.2756 24.3603C31.4494 24.4462 31.6624 24.4074 31.7833 24.2558V24.2558C31.9324 24.0687 31.8806 23.792 31.6648 23.6888C30.6021 23.1803 29.352 22.9747 28.0529 23.0996V23.0996C27.9103 23.1133 27.7989 23.2287 27.7903 23.3717L27.7775 23.584C27.7697 23.7144 27.8802 23.821 28.0103 23.8085V23.8085Z" fill="white"/>
<defs>
<filter id="filter0_d" x="0.0214844" y="0.858398" width="59.8074" height="69.1148" filterUnits="userSpaceOnUse" color-interpolation-filters="sRGB">
<feFlood flood-opacity="0" result="BackgroundImageFix"/>
<feColorMatrix in="SourceAlpha" type="matrix" values="0 0 0 0 0 0 0 0 0 0 0 0 0 0 0 0 0 0 127 0"/>
<feOffset dy="4"/>
<feGaussianBlur stdDeviation="2"/>
<feColorMatrix type="matrix" values="0 0 0 0 0 0 0 0 0 0 0 0 0 0 0 0 0 0 0.25 0"/>
<feBlend mode="normal" in2="BackgroundImageFix" result="effect1_dropShadow"/>
<feBlend mode="normal" in="SourceGraphic" in2="effect1_dropShadow" result="shape"/>
</filter>
</defs>
</svg>
