<svg viewBox="0 0 33 33" fill="none" xmlns="http://www.w3.org/2000/svg">
<circle cx="17" cy="17" r="13" fill="white"/>
<path d="M28.1695 28.1695C34.6128 21.7262 34.6128 11.2777 28.1695 4.83441C21.7262 -1.60886 11.2777 -1.60886 4.83441 4.83441C-1.60886 11.2777 -1.60886 21.7262 4.83441 28.1695C11.2777 34.6128 21.7262 34.6128 28.1695 28.1695ZM14.656 8.52623C15.074 7.62069 16.0492 7.13309 17.0244 7.37689C17.9647 7.62069 18.5917 8.52623 18.522 9.53625C18.4872 10.198 18.4523 10.8249 18.4175 11.4866C18.2782 13.9246 18.1389 16.3626 18.0344 18.7658C17.9996 19.5669 17.3378 20.1938 16.5368 20.1938C15.7009 20.1938 15.074 19.5669 15.0392 18.6961C15.0043 18.2085 15.0043 17.7209 14.9695 17.2334C14.865 15.6661 14.7954 14.0988 14.6909 12.4967C14.6212 11.4866 14.5864 10.4766 14.5167 9.4666C14.4819 9.18797 14.5132 8.83968 14.656 8.52623ZM16.502 21.6183C17.6165 21.6183 18.522 22.5238 18.5568 23.6383C18.5568 24.7528 17.6513 25.6584 16.5368 25.6584C15.4571 25.6584 14.5167 24.7528 14.5167 23.6731C14.4819 22.5621 15.384 21.6183 16.502 21.6183Z" fill="#ED4B92"/>
</svg>
